<svg xmlns="http://www.w3.org/2000/svg" width="125" height="138"><path fill="#F7F7F7" d="M116.499 0h-2.16c-3.271 0-6.115 1.86-7.536 4.576L36.224 30.248H12.821C5.75 30.248 0 36.001 0 43.073V69c0 7.071 5.751 12.824 12.82 12.824h.553l11.826 51.26A6.313 6.313 0 0031.377 138h8.413a6.307 6.307 0 004.962-2.394 6.312 6.312 0 001.217-5.375L34.8 81.825h1.424l70.578 25.672c1.42 2.717 4.265 4.576 7.536 4.576h2.16c4.688 0 8.501-3.814 8.501-8.503V8.503C125 3.814 121.186 0 116.499 0zM42.03 131.14a2.288 2.288 0 01-.44 1.949 2.287 2.287 0 01-1.8.868h-8.413a2.289 2.289 0 01-2.24-1.783l-11.616-50.35h13.132L42.03 131.14zm74.47-23.11h-2.16a4.465 4.465 0 01-4.46-4.46V21.466a2.021 2.021 0 10-4.041 0v81.377L38.602 78.387V73.32a2.021 2.021 0 10-4.042 0v4.46H12.82c-4.84 0-8.778-3.94-8.778-8.781V43.073c0-4.842 3.938-8.782 8.779-8.782H34.56v30.387a2.021 2.021 0 104.041 0V33.686l67.237-24.457v3.596a2.021 2.021 0 104.042 0V8.503c0-2.46 2-4.46 4.46-4.46h2.159a4.465 4.465 0 014.459 4.46v95.066c0 2.46-2 4.46-4.459 4.46z"/></svg>