<svg xmlns="http://www.w3.org/2000/svg" width="16" height="16"><g fill="#999"><path d="M10.789 4.133V1.737a.691.691 0 00-.683-.694H1.683A.69.69 0 001 1.737v9.812c0 .255.148.498.364.613l5.19 2.731a.344.344 0 00.501-.312v-2.662h3.05a.691.691 0 00.684-.694V7.43H9.423v2.754a.338.338 0 01-.342.347H7.067v-5.89a.705.705 0 00-.365-.612L3.641 2.432h5.44c.194 0 .342.15.342.347v1.365h1.366v-.011z"/><path d="M12.541 2.999l2.22 2.256a.699.699 0 010 1.006l-2.22 2.257c-.284.289-.717.3-1.001.011-.273-.277-.24-.74.023-1.018l1.001-1.007H8.683a.666.666 0 01-.512-.231c-.319-.347-.24-.96.17-1.192a.721.721 0 01.342-.092h3.881s-.99-1.007-1.001-1.007c-.262-.266-.296-.74-.023-1.006.273-.278.717-.267 1.001.023z"/></g></svg>