<svg xmlns="http://www.w3.org/2000/svg" width="16" height="16"><g fill="none" fill-rule="evenodd"><path fill="#4CAF50" d="M8.002 1h-.004C4.138 1 1 4.14 1 8c0 1.531.494 2.95 1.333 4.103l-.873 2.6 2.69-.86A6.94 6.94 0 008.003 15C11.862 15 15 11.86 15 8s-3.139-7-6.998-7z"/><path fill="#FAFAFA" d="M11.857 10.928c-.163.494-.81.904-1.326 1.024-.353.08-.814.145-2.366-.546-1.985-.884-3.263-3.05-3.363-3.191C4.707 8.075 4 7.067 4 6.026c0-1.041.492-1.548.69-1.766.164-.178.433-.26.691-.26.084 0 .16.005.227.008.198.01.298.022.429.358.163.422.56 1.463.607 1.57.048.107.096.253.028.393-.063.145-.119.21-.218.333-.1.123-.194.218-.294.35-.091.115-.194.239-.08.452.115.208.512.904 1.097 1.463.754.72 1.365.951 1.584 1.05.163.072.357.055.476-.082.151-.175.338-.465.528-.75.135-.205.305-.23.484-.158.183.068 1.148.58 1.346.686.199.107.33.158.378.248.047.09.047.511-.116 1.007z"/></g></svg>