<svg xmlns="http://www.w3.org/2000/svg" width="24" height="24"><path fill="#999" fill-rule="evenodd" d="M9.759 4.085a.44.44 0 00-.066.102.72.72 0 01-.083.13c-.046.064-.15.22-.231.35a1.988 1.988 0 01-.168.243c-.01.004-.02.024-.02.043 0 .02-.008.035-.019.035-.01 0-.03.022-.043.048-.079.154-.525.821-.571.853-.18.124-1.272.035-1.272-.104a.708.708 0 00-.062-.16.92.92 0 01-.063-.147c0-.011-.03-.081-.065-.156l-.066-.137H5.143l-.046.118a7.083 7.083 0 01-.13.314l-.076.178c-.056.131-.052.13-.644.13-.273 0-.515.011-.54.023a2.943 2.943 0 01-.154.068c-.214.087-.435.361-.526.652-.018.06-.027.605-.027 1.71V10l2.249-.006 2.248-.007.044-.086.121-.247a5.84 5.84 0 01.152-.284c.04-.068.08-.143.09-.166.008-.024.025-.044.037-.044.012 0 .022-.011.022-.025 0-.178 1.247-1.407 1.429-1.407.014 0 .025-.01.025-.021 0-.012.02-.03.044-.038.024-.008.1-.048.17-.088.122-.07.32-.168.482-.238.242-.103.243-.104.545-.196.428-.131 1.147-.222 1.53-.192 1.27.096 2.178.454 3.032 1.193.227.196.612.603.675.713a.19.19 0 00.04.052c.047.033.377.59.488.824l.126.262h2.194c1.674 0 2.202-.006 2.225-.029.04-.04.043-3.102.003-3.274a1.047 1.047 0 00-.257-.475c-.136-.139-.146-.145-.43-.272-.052-.024-.236-.038-.597-.047l-.522-.013-.052-.123a9.524 9.524 0 00-.11-.254.959.959 0 01-.06-.15.418.418 0 00-.04-.099l-.04-.078h-1.888l-.035.08-.142.334a4.528 4.528 0 01-.11.253c-.016.031-.114.037-.643.037h-.624l-.17-.247a4.908 4.908 0 01-.208-.326.42.42 0 00-.076-.108c-.02-.016-.035-.043-.035-.06 0-.018-.009-.036-.02-.04a3.57 3.57 0 01-.227-.33l-.353-.543-.145-.222-2.181-.007L9.824 4l-.065.085m1.937 3.937a4.694 4.694 0 01-.304.038.585.585 0 00-.197.039c-.007.011-.052.021-.1.022a.346.346 0 00-.147.037.293.293 0 01-.124.036c-.035 0-.07.012-.078.026-.008.014-.035.025-.06.025a.31.31 0 00-.11.035 6.49 6.49 0 00-.543.274c-.121.074-.24.155-.269.185a.424.424 0 01-.08.06c-.113.063-.454.393-.672.65-.18.212-.214.257-.263.344-.024.044-.052.08-.06.08-.009 0-.022.02-.03.043a.611.611 0 01-.087.157c-.023.024-.07.115-.166.325-.14.302-.16.35-.19.463a1.332 1.332 0 01-.062.171.402.402 0 00-.033.143c0 .04-.01.078-.024.087-.013.008-.024.057-.024.108 0 .05-.016.148-.035.215-.05.175-.05 1.176 0 1.352.02.068.036.171.036.23s.01.114.023.123c.013.008.024.057.025.108 0 .05.016.12.035.155a.364.364 0 01.034.142c0 .044.01.086.022.094.012.007.027.05.033.095.012.082.054.22.092.3.011.024.02.064.021.088a.2.2 0 00.036.093c.02.026.035.069.035.094 0 .046.006.062.079.216.022.046.04.105.04.131 0 .027.01.048.023.048s.024.027.024.06.016.073.036.09c.02.018.035.047.035.067 0 .019.01.054.022.078.012.024.028.06.036.08a.563.563 0 00.033.076c.055.1.076.153.076.187 0 .021.01.038.023.038s.03.028.038.062c.015.062.271.608.406.865.04.075.123.239.186.363a8.332 8.332 0 00.226.425c.16.307.198.378.253.47.03.05.055.099.055.107 0 .008.038.076.083.15.046.076.083.143.083.15 0 .007.054.104.12.215.065.11.118.206.118.212 0 .006.053.102.119.213.065.111.119.206.119.212 0 .005.069.128.154.273.085.145.154.268.154.274 0 .006.054.102.12.213.064.11.118.206.118.212 0 .007.053.102.119.213.065.111.118.207.118.213 0 .03.313.537.358.58.133.127.52-.017.521-.194 0-.01.064-.126.143-.258.078-.133.142-.246.142-.253 0-.006.054-.102.119-.213a2.83 2.83 0 00.119-.213c0-.006.053-.101.119-.212.065-.111.118-.207.118-.213 0-.006.07-.13.155-.274.085-.145.154-.268.154-.273 0-.006.054-.101.119-.212.065-.111.119-.207.119-.214 0-.011.092-.174.184-.327a.854.854 0 00.046-.087 1.7 1.7 0 01.072-.133c.056-.095.071-.123.214-.393l.158-.297a2.01 2.01 0 00.086-.169.74.74 0 01.056-.104c.107-.18.615-1.223.752-1.545l.121-.283a1.7 1.7 0 00.068-.171c0-.008.015-.05.033-.093.018-.044.062-.158.098-.255.035-.096.079-.212.097-.257a.454.454 0 00.034-.13c0-.026.009-.054.02-.061.012-.008.027-.045.035-.083.007-.038.03-.131.051-.207.288-1.026.32-1.946.094-2.707a.856.856 0 01-.034-.157.23.23 0 00-.021-.084 2.31 2.31 0 01-.063-.156 4.38 4.38 0 00-.243-.557 5.598 5.598 0 00-.303-.484 4.067 4.067 0 00-.914-.914 2.922 2.922 0 01-.166-.125.605.605 0 00-.1-.057.347.347 0 01-.103-.067c-.007-.013-.035-.024-.06-.024-.025 0-.046-.012-.046-.025 0-.014-.02-.025-.045-.025a.108.108 0 01-.074-.038c-.016-.02-.044-.038-.062-.038-.034 0-.052-.007-.195-.083a.362.362 0 00-.113-.042.196.196 0 01-.076-.022c-.083-.044-.395-.12-.623-.152a40.6 40.6 0 01-.332-.048 1.89 1.89 0 00-.582 0m.756 1.508a.524.524 0 01.175.046c.014.014.053.025.087.025.034 0 .08.008.1.019.021.01.073.034.116.052.68.3 1.17.806 1.418 1.465.176.466.203 1.164.06 1.547a3.525 3.525 0 00-.043.133 2.222 2.222 0 01-.06.166 2.615 2.615 0 01-.966 1.138c-.15.094-.483.254-.532.254-.018 0-.05.01-.07.02-.208.11-.989.141-1.308.052a2.683 2.683 0 01-.623-.242.528.528 0 00-.094-.05c-.032 0-.353-.256-.479-.381a1.938 1.938 0 01-.3-.36.483.483 0 00-.076-.096c-.009-.004-.016-.026-.016-.05 0-.023-.01-.042-.022-.042-.012 0-.028-.025-.035-.055-.008-.03-.023-.056-.034-.056-.01 0-.02-.02-.02-.045a.13.13 0 00-.033-.08.123.123 0 01-.033-.074c0-.023-.01-.047-.022-.055-.012-.007-.022-.04-.023-.073a.284.284 0 00-.032-.115.328.328 0 01-.032-.133c0-.044-.012-.09-.024-.102-.08-.08.008-1.06.114-1.273a.215.215 0 00.02-.08c0-.023.014-.054.032-.07a.103.103 0 00.035-.063c0-.02.02-.066.043-.102.023-.037.063-.109.09-.16.028-.052.058-.095.068-.095.01 0 .018-.01.018-.023 0-.012.01-.035.022-.05l.068-.081c.163-.203.589-.575.657-.575.012 0 .025-.007.029-.017a1.06 1.06 0 01.275-.138c.014 0 .037-.015.052-.033a.115.115 0 01.079-.033c.028 0 .057-.01.065-.022.007-.012.041-.022.076-.022.034 0 .09-.015.125-.033a.409.409 0 01.152-.035c.048 0 .108-.01.132-.022.053-.023.555-.011.769.019M3.02 11.02c-.037.038-.018 6.132.02 6.245.1.308.278.526.528.651l.152.076L6.348 18c1.549.004 2.637-.003 2.65-.016.012-.013-.022-.1-.084-.217l-.158-.293c-.03-.055-.104-.2-.166-.322a98.22 98.22 0 00-.195-.383c-.5-.975-1.012-2.22-1.166-2.833l-.065-.248a6.092 6.092 0 01-.121-2.472.64.64 0 00.013-.18c-.013-.034-4.003-.05-4.036-.015m13.932.015c-.008.021-.002.066.013.1a.478.478 0 01.027.153c0 .05.016.159.035.24.042.18.047.96.009 1.201-.014.089-.035.228-.045.31-.032.238-.07.436-.095.484a.287.287 0 00-.022.109c0 .035-.01.083-.02.106a1.543 1.543 0 00-.098.349c0 .028-.01.057-.024.066-.013.008-.024.034-.024.057a.34.34 0 01-.035.113.338.338 0 00-.035.116c0 .025-.01.051-.021.059-.011.007-.026.038-.033.07-.02.094-.135.4-.16.425a.094.094 0 00-.022.055c0 .03-.027.097-.176.442a44.439 44.439 0 01-.63 1.324c-.04.075-.117.226-.172.335a8.1 8.1 0 01-.251.47 1.25 1.25 0 00-.06.111c-.009.02-.042.08-.073.133-.034.058-.048.105-.035.118.033.035 5.287.016 5.346-.019.026-.015.09-.049.14-.074.17-.083.37-.326.444-.535L21 17.17l-.006-3.08-.006-3.08-2.01-.007c-1.81-.005-2.013-.002-2.026.033"/></svg>