<svg xmlns="http://www.w3.org/2000/svg" width="16" height="16"><path fill="#283842" fill-rule="evenodd" d="M13.172 13.375H2.203A.204.204 0 012 13.172V3.016c0-.112.092-.204.203-.204h1.422v1.034c0 .571.61.998 1.219.998.61 0 1.218-.427 1.218-.998V2.812h3.25v1.034c0 .571.63.998 1.24.998s1.198-.427 1.198-.998V2.812h1.422c.112 0 .203.092.203.204v10.157c0 .11-.091.202-.203.202zm-1.016-7.719H3.22v6.5h8.937v-6.5zm-1.625-1.219a.81.81 0 01-.811-.812v-.813a.81.81 0 111.624 0v.813a.81.81 0 01-.813.812zm-5.687 0a.811.811 0 01-.813-.812v-.813a.812.812 0 111.625 0v.813a.81.81 0 01-.812.812z"/></svg>