<svg xmlns="http://www.w3.org/2000/svg" width="130" height="125"><g fill="none"><path fill="#C8CBD0" d="M58.642.548a3.426 3.426 0 013.716 0l8.011 5.188 49.144 31.827a3.242 3.242 0 011.353 3.654 3.213 3.213 0 01-3.102 2.337h-8.67V54.74c0 1.377-.97 2.53-2.259 2.804v3.045c0 1.58-1.276 2.864-2.845 2.864h-.237V74.19c-.43-.024-.862-.036-1.295-.036-.724 0-1.438.04-2.143.113V61.723c0-.956.77-1.73 1.72-1.73h1.363v-2.388H91.224v2.388h1.363c.95 0 1.719.775 1.719 1.73l-.001 13.924a23.069 23.069 0 00-3.437 1.614V63.454h-.236c-1.57 0-2.846-1.285-2.846-2.865v-3.045a2.865 2.865 0 01-2.259-2.803v-3.493H72.284v3.493c0 1.377-.97 2.53-2.259 2.803v3.045c0 1.58-1.277 2.865-2.846 2.865h-.236v34.765h.236c1.57 0 2.846 1.285 2.846 2.865v3.045a2.865 2.865 0 012.259 2.803v3.492h10.83l.153.226c.064.093.13.184.198.273l.408.535c.318.421.644.834.991 1.235a21.416 21.416 0 001.118 1.197l-80.165-.006-.008 3.648 84.841.007a23.152 23.152 0 0011.808 3.224c4.307 0 8.346-1.175 11.812-3.222h.913l.004-.001v-.57a23.399 23.399 0 003.442-2.747v3.309c0 1.912-1.546 3.468-3.446 3.468H5.817c-1.9 0-3.446-1.556-3.446-3.468v-3.64c0-1.912 1.546-3.468 3.446-3.468h6.089v-3.493c0-1.377.97-2.53 2.259-2.803v-3.045c0-1.58 1.276-2.864 2.845-2.864h.237V63.454h-.237c-1.569 0-2.845-1.285-2.845-2.865v-3.045a2.865 2.865 0 01-2.26-2.803V43.554H3.237a3.214 3.214 0 01-3.102-2.336 3.243 3.243 0 011.353-3.655zm-9.926 50.7H35.473v3.493c0 1.377-.97 2.53-2.259 2.803v3.045c0 1.58-1.277 2.865-2.846 2.865h-.236v34.765h.236c1.57 0 2.846 1.285 2.846 2.865v3.045a2.865 2.865 0 012.259 2.803v3.492h13.243v-3.492c0-1.377.97-2.53 2.26-2.803v-3.045c0-1.58 1.276-2.865 2.845-2.865h.236V63.454h-.236c-1.57 0-2.846-1.285-2.846-2.865v-3.045a2.865 2.865 0 01-2.259-2.803v-3.493zm20.13 56.397a1.711 1.711 0 01-.548.091H52.687c-.186 0-.365-.03-.533-.086v2.774h16.692zm-36.81.003c-.17.056-.352.088-.54.088H15.882c-.189 0-.37-.032-.54-.088v2.776h16.692zm-2.26-50.043H17.602v2.388h1.364c.949 0 1.718.775 1.718 1.73V99.95c0 .955-.77 1.73-1.718 1.73h-1.364v2.596h12.174v-2.596h-1.363c-.95 0-1.719-.775-1.719-1.73V61.723c0-.956.77-1.73 1.72-1.73h1.362v-2.388zm36.811 0H54.413v2.388h1.363c.95 0 1.72.775 1.72 1.73V99.95c0 .955-.77 1.73-1.72 1.73h-1.363v2.596h12.174v-2.596h-1.363c-.95 0-1.719-.775-1.719-1.73V61.723c0-.956.77-1.73 1.719-1.73h1.363v-2.388zm2.259-6.357H52.154v2.897h16.692v-2.897zm36.81 0h-16.69v2.897h16.691v-2.897zm-73.62 0H15.343v2.897h16.691v-2.897zm73.62-7.694H15.343v4.234h90.313v-4.234zM61.155 13.948a1.21 1.21 0 00-1.31 0L19.473 40.094h82.054zm-.657-10.49L3.93 40.094h9.188l44.866-29.056a4.637 4.637 0 015.03 0l44.866 29.056h9.188L68.509 8.646l-8.011-5.188z"/><path stroke="#C8CBD0" stroke-width="4" d="M102.458 72.153c-1.423 0-2.809.144-4.213.379-3.695.62-7.14 2.034-10.442 4.333-.604.43-1.19.883-2.29 1.85-.485.44-.96.894-1.411 1.373a23.54 23.54 0 00-.478.526 24.652 24.652 0 00-1.308 1.584c-.115.151-.234.307-.348.465-.445.62-.866 1.26-1.349 2.069-.085.137-.205.332-.452.765a25.25 25.25 0 00-.932 1.932c-.299.688-.559 1.391-.898 2.394-.234.74-.428 1.487-.655 2.488a29.283 29.283 0 00-.396 2.549c-.09.859-.133 1.725-.133 2.598 0 1.006.07 2.031.235 3.282.135.994.322 1.987.698 3.448.17.61.365 1.214.673 2.073.077.218.157.44.244.658.275.677.578 1.328 1.204 2.583.43.791.91 1.555 1.643 2.602l.43.563c.344.456.698.903 1.074 1.337.258.295.516.58.784.862.411.431.84.847 1.457 1.411.187.174.373.347.568.512a25.42 25.42 0 002.244 1.7 25.158 25.158 0 0014.05 4.274c6.977 0 13.304-2.838 17.886-7.42 4.582-4.582 7.42-10.91 7.42-17.885 0-5.029-1.477-9.715-4.018-13.654a25.505 25.505 0 00-13.332-10.353c-.766-.257-1.54-.467-2.625-.723-.728-.158-1.465-.27-2.655-.43a24.566 24.566 0 00-2.675-.145z"/><path fill="#C8CBD0" d="M115.857 95.857h-10.714V85.143a2.142 2.142 0 10-4.286 0v10.714H90.143a2.142 2.142 0 100 4.286h10.714v10.714a2.142 2.142 0 104.286 0v-10.714h10.714a2.142 2.142 0 100-4.286z"/></g></svg>