<svg xmlns="http://www.w3.org/2000/svg" width="16" height="16"><path fill="#1070AD" d="M10.366 3.655a1.65 1.65 0 01-1.642 1.654 1.649 1.649 0 01-1.642-1.654A1.65 1.65 0 018.724 2a1.65 1.65 0 011.642 1.655zm-1.64 8.5a.92.92 0 00-.918.92.918.918 0 00.913.925.917.917 0 00.918-.92.919.919 0 00-.914-.925zM14 8.366a.6.6 0 00-.598-.602.6.6 0 00-.599.602.6.6 0 00.6.603.6.6 0 00.597-.603zm-8.91 0a1.05 1.05 0 00-1.045-1.053C3.467 7.313 3 7.785 3 8.366S3.467 9.42 4.045 9.42a1.05 1.05 0 001.046-1.053zm7.275-3.668a.467.467 0 00-.665 0 .478.478 0 000 .672.466.466 0 00.665 0 .479.479 0 000-.672zm-6.19 6.237c-.42-.42-1.1-.42-1.519 0a1.082 1.082 0 000 1.526c.42.42 1.1.421 1.519 0a1.08 1.08 0 000-1.526zm6.295 1.202a.626.626 0 000-.879.61.61 0 00-.87.002.627.627 0 000 .878c.241.242.63.242.87 0zM6.203 5.825a1.126 1.126 0 000-1.581 1.103 1.103 0 00-1.569 0 1.125 1.125 0 000 1.581 1.101 1.101 0 001.569 0z"/></svg>