<svg width="24" height="24" xmlns="http://www.w3.org/2000/svg"><path d="M14.994 15.19c-.501 0-.97.162-1.303.488l-4.78-2.704c.033-.163.067-.294.067-.457 0-.163-.034-.293-.067-.456l4.713-2.672c.368.326.836.521 1.37.521C16.097 9.91 17 9.03 17 7.955 17 6.88 16.097 6 14.994 6c-1.103 0-2.005.88-2.005 1.955 0 .163.033.294.067.457l-4.713 2.671a2.036 2.036 0 00-1.37-.52c-1.104 0-1.973.88-1.973 1.954 0 1.076.902 1.956 2.006 1.956.534 0 1.002-.196 1.37-.522l4.747 2.705c-.034.13-.067.26-.067.423 0 1.043.869 1.89 1.938 1.89 1.07 0 1.939-.847 1.939-1.89 0-1.042-.869-1.89-1.939-1.89z" fill="#999" fill-rule="evenodd"/></svg>