<svg xmlns="http://www.w3.org/2000/svg" width="16" height="16"><path fill="#1070AD" fill-rule="evenodd" d="M11.162 10.424c-.46 0-.89.15-1.196.448l-4.381-2.48c.03-.149.061-.268.061-.418 0-.15-.03-.269-.061-.418l4.32-2.45c.337.3.766.479 1.257.479 1.01 0 1.838-.807 1.838-1.793C13 2.807 12.173 2 11.162 2c-1.012 0-1.839.807-1.839 1.792 0 .15.03.27.061.419L5.064 6.66a1.867 1.867 0 00-1.256-.478A1.795 1.795 0 002 7.974c0 .986.827 1.793 1.838 1.793.49 0 .92-.18 1.257-.478l4.35 2.479a1.47 1.47 0 00-.06.388c0 .956.796 1.733 1.777 1.733.98 0 1.777-.777 1.777-1.733 0-.956-.797-1.732-1.777-1.732z"/></svg>