<svg xmlns="http://www.w3.org/2000/svg" width="125" height="139"><g fill="#C8CBD0"><path d="M88.52 0C74.943 0 62.572 7.573 56.233 19.763a2.058 2.058 0 00.843 2.762 2 2 0 002.722-.855C65.438 10.825 76.443 4.088 88.52 4.088c17.893 0 32.45 14.764 32.45 32.912s-14.557 32.912-32.45 32.912a32.022 32.022 0 01-17.178-4.985 2 2 0 00-2.777.65 2.061 2.061 0 00.64 2.817A36.008 36.008 0 0088.52 74C108.635 74 125 57.402 125 37S108.635 0 88.52 0z"/><path d="M68.202 94.427l-16.314-7.476a2.32 2.32 0 01-1.35-2.103v-5.4c4.9-3.2 8.48-8.315 9.609-14.412a.108.108 0 01.005-.006 6.003 6.003 0 001.744-.153c2.69-.637 4.642-3.215 4.642-6.13v-1.558c0-2.156-1.083-4.093-2.755-5.21.5-1.953.755-3.951.755-5.963 0-8.834-4.79-16.614-12.003-21.067C52.492 17.25 46.214 11 38.5 11c-7.713 0-13.991 6.25-14.034 13.949-7.214 4.453-12.003 12.233-12.003 21.067 0 2.006.254 4 .75 5.947-1.671 1.111-2.75 3.057-2.75 5.25v1.534c0 2.915 1.952 5.493 4.642 6.13a6.005 6.005 0 001.744.153.108.108 0 01.005.006 21.964 21.964 0 009.61 14.413v5.399a2.32 2.32 0 01-1.35 2.103L8.798 94.427C3.175 97.004-.35 102.882.026 109.052L1.74 137.09a2.035 2.035 0 004.063-.247L4.09 108.805a11.04 11.04 0 012.049-7.07l5.55 6.655a11.977 11.977 0 012.772 7.656v20.92a2.035 2.035 0 004.072 0v-20.92c0-3.742-1.32-7.386-3.717-10.26L9.08 98.908c.448-.293.92-.556 1.415-.782l9.752-4.47a19.46 19.46 0 0018.252 12.73 19.42 19.42 0 0018.25-12.73l9.754 4.47c.494.226.967.489 1.415.782l-5.736 6.878a16.05 16.05 0 00-3.717 10.26v20.92a2.035 2.035 0 004.071 0v-20.92c0-2.792.985-5.51 2.774-7.655l5.549-6.655a11.032 11.032 0 012.05 7.07l-1.712 28.036a2.035 2.035 0 004.063.248l1.711-28.037c.378-6.171-3.147-12.049-8.77-14.626zM38.5 15.068c4.729 0 8.696 3.31 9.711 7.733a26.82 26.82 0 00-9.711-1.807c-3.431 0-6.709.643-9.711 1.807 1.015-4.423 4.982-7.733 9.71-7.733zM20.854 64.275c-.368-2.001-2.224-3.456-4.22-3.308a1.953 1.953 0 01-.59-.05c-.861-.203-1.51-1.136-1.51-2.17v-1.535c0-1.04.7-1.976 1.594-2.133a1.96 1.96 0 011.928.739c.379.494.884.847 1.463 1.022a2.903 2.903 0 002.494-.4 15.512 15.512 0 004.168-4.4 2.034 2.034 0 00-.63-2.807 2.037 2.037 0 00-2.809.63 11.589 11.589 0 01-2.26 2.618 6.031 6.031 0 00-3.308-1.463 19.99 19.99 0 01-.64-5.002c0-11.554 9.854-20.953 21.966-20.953 12.113 0 21.967 9.4 21.967 20.953 0 1.685-.216 3.359-.639 4.995a9.677 9.677 0 00-1.77.291l-1.647-1.353a4 4 0 00-2.781-.911c-1.834.108-6.69.235-12.167-.92-6.769-1.427-11.954-4.247-15.411-8.383a2.036 2.036 0 00-2.867-.256 2.033 2.033 0 00-.257 2.865c4.057 4.853 10.01 8.135 17.695 9.755 5.927 1.25 11.192 1.119 13.214 1.002l2.539 2.085c.657.54 1.58.616 2.316.188.368-.206 1.621-.402 2.176-.291.912.181 1.6 1.086 1.6 2.105v1.558c0 1.034-.65 1.968-1.51 2.171-.2.047-.397.064-.59.05-1.997-.145-3.853 1.306-4.22 3.307-1.565 8.51-8.986 14.688-17.648 14.688-8.66 0-16.082-6.177-17.646-14.687zM38.5 102.318a15.382 15.382 0 01-14.536-10.364l2.846-1.305a6.399 6.399 0 003.725-5.802v-3.309a21.979 21.979 0 007.965 1.493c2.796 0 5.484-.53 7.966-1.493v3.31a6.4 6.4 0 003.724 5.801l2.849 1.305a15.354 15.354 0 01-14.54 10.364zm64.168-73.638c-1.183-5.62-5.789-10.182-11.462-11.353-4.524-.934-9.14.157-12.663 2.994C75.02 23.158 73 27.362 73 31.855c0 1.107.906 2.005 2.024 2.005a2.014 2.014 0 002.023-2.005c0-3.28 1.476-6.351 4.05-8.424 2.573-2.072 5.957-2.867 9.283-2.18 4.121.851 7.467 4.165 8.326 8.247 1.192 5.666-2.078 11.155-7.604 12.767-3.066.895-5.125 3.529-5.125 6.555v.175c0 1.107.906 2.005 2.024 2.005a2.014 2.014 0 002.023-2.005v-.175c0-1.233.893-2.321 2.221-2.709 7.568-2.208 12.049-9.702 10.423-17.43zM88.005 56h-.021A1.988 1.988 0 0086 58c0 1.105.904 2 2.005 2A1.997 1.997 0 0090 58c0-1.105-.893-2-1.995-2z"/></g></svg>