<svg xmlns="http://www.w3.org/2000/svg" width="16" height="16"><g fill="#1070AD"><path d="M4.383.044a.631.631 0 00-.378.573c0 .29.113.428.574.701.185.108.333.208.333.223 0 .02-.065.054-.14.081-.25.081-.778.366-1.145.616a5.891 5.891 0 00-1.409 1.444c-.242.37-.563 1.009-.616 1.225-.011.053-.034.107-.049.115-.015.012-.125-.165-.25-.389-.268-.481-.407-.604-.695-.604a.608.608 0 00-.57.808c.023.058.325.609.673 1.22.438.771.668 1.144.755 1.214.166.13.465.158.639.057C3.223 6.693 4.33 6.008 4.409 5.9c.303-.393.012-.97-.487-.97-.136 0-.253.05-.688.308-.29.17-.532.3-.544.289-.03-.031.11-.42.268-.732a4.255 4.255 0 011.803-1.829c.245-.127.691-.308.752-.308.018 0-.106.25-.28.558-.174.308-.325.612-.34.674-.034.166.053.412.196.54.246.222.575.222.805.007.06-.058.393-.609.74-1.22.54-.96.635-1.144.65-1.314a.547.547 0 00-.189-.5C7.05 1.357 6.502 1.022 5.88.66 4.7-.03 4.632-.056 4.383.044zm4.439.011c-.155.07-.314.266-.34.42-.011.07-.015 2.395-.011 5.175.011 5.032.011 5.051.09 5.155.042.058.125.143.182.185.102.08.128.08 3.347.08s3.245 0 3.347-.08c.057-.042.14-.127.182-.185.079-.104.079-.115.079-5.26 0-5.143 0-5.155-.08-5.259a1.043 1.043 0 00-.18-.185c-.103-.08-.137-.08-3.303-.088-2.603-.008-3.222 0-3.313.042z"/><path d="M.36 8.68c-.156.07-.314.265-.34.42-.012.069-.02 1.563-.012 3.326.011 3.165.011 3.204.09 3.308.042.057.125.142.182.184C.382 16 .393 16 5.44 16c5.048 0 5.06 0 5.161-.08.057-.043.14-.128.182-.185.075-.104.079-.158.09-1.76l.012-1.652H9.672v2.465H1.209v-4.93h6.045V8.626H3.865C1.13 8.63.45 8.637.36 8.68z"/></g></svg>