<svg width="24" height="24" xmlns="http://www.w3.org/2000/svg"><path d="M6.499 11.012c-.417 0-.77.146-1.062.437-.291.29-.437.644-.437 1.06 0 .415.146.769.437 1.06.292.29.646.436 1.062.436.416 0 .77-.146 1.062-.437.291-.29.437-.644.437-1.06 0-.415-.146-.768-.437-1.06a1.447 1.447 0 00-1.062-.436zm0-3.99c-.416 0-.77.146-1.062.437A1.442 1.442 0 005 8.519c0 .415.146.768.437 1.06.292.29.646.436 1.062.436.416 0 .77-.146 1.062-.437.291-.29.437-.644.437-1.06 0-.415-.146-.768-.437-1.06a1.447 1.447 0 00-1.062-.436zm0 7.98c-.416 0-.77.146-1.062.437A1.442 1.442 0 005 16.499c0 .415.146.768.437 1.06.292.29.646.436 1.062.436.416 0 .77-.146 1.062-.437.291-.29.437-.644.437-1.06 0-.415-.146-.769-.437-1.06a1.447 1.447 0 00-1.062-.436zm12.417-7.407a.241.241 0 00-.176-.074H9.247a.24.24 0 00-.176.074.24.24 0 00-.074.175v1.497a.24.24 0 00.074.175.24.24 0 00.176.074h9.493a.24.24 0 00.176-.074.24.24 0 00.074-.175V7.77a.24.24 0 00-.074-.175zm-.176 3.916H9.247a.24.24 0 00-.176.074.24.24 0 00-.074.175v1.497a.24.24 0 00.074.175.24.24 0 00.176.074h9.493a.24.24 0 00.176-.074.24.24 0 00.074-.175V11.76a.24.24 0 00-.074-.175.24.24 0 00-.176-.074zm0 3.99H9.247a.24.24 0 00-.176.074.24.24 0 00-.074.175v1.497a.24.24 0 00.074.175.24.24 0 00.176.074h9.493a.24.24 0 00.176-.074.24.24 0 00.074-.175V15.75a.24.24 0 00-.074-.175.241.241 0 00-.176-.074z" fill="#999" fill-rule="evenodd"/></svg>