<svg xmlns="http://www.w3.org/2000/svg" width="16" height="16"><g fill="#999"><path d="M10.429 10.683v1.763a.984.984 0 01-.983.983H3.554a.983.983 0 01-.983-.983V6.554c0-.542.441-.983.983-.983H5.35L6.922 4H3.554A2.553 2.553 0 001 6.554v5.892A2.553 2.553 0 003.554 15h5.892A2.553 2.553 0 0012 12.446V9.111l-1.571 1.572z"/><path d="M13.057 1h-5.83c-1.072.001-.998.289-.432.852l1.83 1.824-3.137 3.127a1.654 1.654 0 000 2.346l1.37 1.366c.65.646 1.702.647 2.352 0l3.137-3.128 1.796 1.79c.626.624.856.64.856-.428L15 2.937C15 .99 15.014.999 13.057 1z"/></g></svg>