<svg xmlns="http://www.w3.org/2000/svg" width="146" height="105"><path fill="#C8CBD0" d="M143.861 50.358h-14.065l-.487-4.872h5.409c3.7 0 6.71-3.015 6.71-6.72V20.454c0-3.705-3.01-6.72-6.71-6.72h-27.43c-3.7 0-6.71 3.015-6.71 6.72v18.312c0 3.705 3.01 6.72 6.71 6.72h5.408l-.486 4.872H93.425V39.306a6.683 6.683 0 00-3.71-6.01l-9.923-4.969a.147.147 0 01-.082-.132v-3.244a11.293 11.293 0 004.572-9.075v-4.578C84.282 5.068 79.22 0 73 0c-6.188 0-11.227 5.016-11.28 11.2v.024l-.002.074v4.578c0 3.714 1.8 7.015 4.571 9.075v3.244a.147.147 0 01-.08.132l-9.925 4.969a6.683 6.683 0 00-3.71 6.01v11.052h-4.866v-7.014a2.14 2.14 0 00-2.138-2.142h-2.433v-7.014a2.14 2.14 0 00-2.139-2.141H22.711a2.14 2.14 0 00-2.138 2.141v16.17H13.42V17.772a4.335 4.335 0 014.326-4.333c1.156 0 2.242.451 3.06 1.27l1.463 1.465c-2.099 3.465-1.657 8.052 1.33 11.043l1.616 1.618a2.136 2.136 0 003.024 0l9.698-9.711a2.143 2.143 0 000-3.029l-1.616-1.618c-2.987-2.991-7.567-3.433-11.027-1.331L23.83 11.68a8.543 8.543 0 00-6.084-2.524c-4.744 0-8.604 3.865-8.604 8.616v32.586H2.139A2.14 2.14 0 000 52.5a2.14 2.14 0 002.139 2.142h2.433v48.216A2.14 2.14 0 006.71 105a2.14 2.14 0 002.139-2.142v-7.014h112.154a2.14 2.14 0 002.14-2.142 2.14 2.14 0 00-2.14-2.141H8.85V54.64h128.302v36.92h-7.005a2.14 2.14 0 00-2.139 2.141 2.14 2.14 0 002.139 2.142h7.005v7.014A2.14 2.14 0 00139.29 105a2.14 2.14 0 002.138-2.142V54.642h2.433A2.14 2.14 0 00146 52.5a2.14 2.14 0 00-2.139-2.142zM26.624 17.505a4.702 4.702 0 013.337-1.382 4.7 4.7 0 013.337 1.382l.104.104-6.674 6.683-.104-.104a4.736 4.736 0 010-6.683zM24.85 36.33h14.01v4.872H24.85V36.33zm18.58 14.028H24.85v-4.872h18.58v4.872zM73 4.283c3.862 0 7.005 3.147 7.005 7.015v.104c-5.665-.214-11.085-1.204-13.808-1.775.75-3.063 3.515-5.344 6.803-5.344zm-7.004 11.593v-1.913c3.058.62 8.378 1.53 14.009 1.726v.187c0 3.868-3.143 7.014-7.005 7.014s-7.004-3.146-7.004-7.014zm4.865 34.482h-4.866v-4.725a2.14 2.14 0 00-2.138-2.142 2.14 2.14 0 00-2.139 2.142v4.725h-4.866V39.306c0-.929.515-1.764 1.345-2.179l6.761-3.385 5.903 5.911v10.705zm-1.944-18.71a4.405 4.405 0 001.65-3.453v-1.289c.784.173 1.597.268 2.433.268.836 0 1.649-.095 2.433-.268v1.289c0 1.368.615 2.624 1.65 3.453L73 35.738l-4.083-4.09zm20.231 18.71h-4.866v-4.725a2.14 2.14 0 00-2.138-2.142 2.14 2.14 0 00-2.14 2.142v4.725H75.14V39.653l5.903-5.911 6.761 3.385a2.423 2.423 0 011.345 2.18v11.051zm27.36 0l1.845-18.474a.147.147 0 01.147-.132h5.006c.076 0 .139.057.146.132l1.845 18.474h-8.988zm11.4-18.9a4.413 4.413 0 00-4.402-3.99H118.5a4.413 4.413 0 00-4.403 3.99l-.973 9.744h-5.836a2.437 2.437 0 01-2.433-2.436V20.454a2.438 2.438 0 012.433-2.437h27.43a2.437 2.437 0 012.433 2.437v18.312a2.437 2.437 0 01-2.433 2.436h-5.836l-.973-9.744z"/></svg>