<svg xmlns="http://www.w3.org/2000/svg" width="24" height="24"><path d="M5.056 18.213l1.075-2.222a5.11 5.11 0 012.38-7.232A5.117 5.117 0 0113.442 5a5.116 5.116 0 015.108 5.11c0 .9-.235 1.775-.68 2.549l1.073 2.221c.224.465-.265.955-.73.73l-2.222-1.074a5.04 5.04 0 01-.503.254 5.114 5.114 0 01-7.481 3.078l-2.221 1.075a.547.547 0 01-.73-.73zm2.19-2.016l-.521 1.078 1.077-.52a.543.543 0 01.54.036 4.02 4.02 0 006.234-3.349 4.021 4.021 0 00-4.016-4.016 4.015 4.015 0 00-3.351 6.231.546.546 0 01.037.54z" fill="#999" fill-rule="evenodd"/></svg>