<svg xmlns="http://www.w3.org/2000/svg" width="16" height="16"><path fill="#283842" fill-rule="evenodd" d="M12.693 12.72c-.564-.202-1.374-.271-1.89-.385-.298-.065-.73-.231-.875-.403-.145-.175-.056-1.789-.056-1.789s.266-.42.41-.787c.145-.369.303-1.374.303-1.374s.297 0 .403-.52c.113-.57.288-.805.267-1.23-.022-.394-.228-.416-.25-.416 0 0 .214-.594.245-1.854C11.285 2.47 10.143 1 8 1 5.855 1 4.717 2.466 4.75 3.957c.025 1.256.244 1.855.244 1.855-.021 0-.227.022-.25.416-.021.424.158.651.268 1.22.105.52.402.525.402.525s.157 1.01.302 1.378c.144.372.41.787.41.787s.088 1.614-.056 1.79c-.144.176-.577.337-.875.403-.52.114-1.325.187-1.89.388C2.741 12.92 1 13.6 1 15h14c0-1.4-1.742-2.08-2.307-2.28z"/></svg>