<svg xmlns="http://www.w3.org/2000/svg" width="16" height="16"><g fill="#1070AD"><path d="M14.563 9.711c-.242 0-.438-.209-.438-.467 0-1.8-1.374-3.266-3.063-3.266H6.833V8c0 .41-.463.618-.74.337L2.886 5.071a.484.484 0 01-.135-.338c0-.127.049-.25.135-.337L6.094 1.13c.277-.282.74-.072.74.338V3.49h3.645C12.972 3.489 15 5.652 15 8.31v.933c0 .258-.196.467-.438.467z"/><path d="M9.167 14.222V12.2H5.52C3.028 12.2 1 10.037 1 7.378v-.934c0-.257.196-.466.438-.466.241 0 .437.209.437.466 0 1.802 1.374 3.267 3.063 3.267h4.229V7.69c0-.409.461-.621.74-.337l3.208 3.266c.086.088.135.21.135.338 0 .127-.049.25-.135.337L9.906 14.56c-.278.283-.74.073-.74-.337z"/></g></svg>