<svg xmlns="http://www.w3.org/2000/svg" width="20" height="20"><path fill="#FFF" fill-rule="evenodd" d="M7.846 14.666l-.808.802c-.7.694-1.84.694-2.539 0a1.749 1.749 0 01-.521-1.248c0-.472.185-.916.521-1.25l2.974-2.95c.617-.61 1.776-1.51 2.621-.672a.988.988 0 001.398-.005.987.987 0 00-.004-1.4c-1.436-1.424-3.56-1.16-5.408.674l-2.973 2.95A3.716 3.716 0 002 14.22c0 1.002.393 1.943 1.107 2.651a3.764 3.764 0 002.662 1.093c.965 0 1.93-.364 2.664-1.093l.81-.803a.988.988 0 00.004-1.398.992.992 0 00-1.4-.005zm9.012-11.46c-1.542-1.53-3.7-1.613-5.127-.197l-1.007 1a.99.99 0 001.395 1.405l1.006-1c.74-.735 1.708-.43 2.34.197.337.334.522.777.522 1.25 0 .47-.185.914-.521 1.248l-3.172 3.146c-1.452 1.44-2.133.765-2.423.476a.99.99 0 00-1.394 1.404c.667.661 1.426.988 2.223.988.976 0 2.006-.491 2.986-1.463l3.172-3.147a3.717 3.717 0 001.106-2.654 3.71 3.71 0 00-1.106-2.653z"/></svg>