<svg xmlns="http://www.w3.org/2000/svg" width="16" height="16"><path d="M4.589 4.028h-.877v-1.23C3.712 2.358 3.393 2 3 2c-.393 0-.712.357-.712.798v1.23H1.41c-.227 0-.411.207-.411.461v1.87c0 .255.184.462.411.462h.877v6.381c0 .44.319.798.712.798.393 0 .712-.357.712-.798v-6.38h.877c.227 0 .411-.208.411-.462V4.49c0-.255-.184-.462-.411-.462zm10 5.602h-.877V2.798c0-.44-.319-.798-.712-.798-.393 0-.712.357-.712.798V9.63h-.877c-.227 0-.411.207-.411.462v1.87c0 .255.184.462.411.462h.877v.778c0 .44.319.798.712.798.393 0 .712-.357.712-.798v-.778h.877c.227 0 .411-.207.411-.462v-1.87c0-.255-.184-.462-.411-.462zM9.588 5.709h-.876V2.798C8.712 2.358 8.393 2 8 2c-.393 0-.711.357-.711.798v2.911h-.877c-.228 0-.412.206-.412.461v1.87c0 .255.184.462.412.462h.877v4.7c0 .44.318.798.711.798.393 0 .712-.357.712-.798v-4.7h.876c.227 0 .412-.207.412-.461V6.17c0-.256-.185-.462-.412-.462z" fill="#1070AD"/></svg>