<svg width="16" height="16" xmlns="http://www.w3.org/2000/svg"><g fill="none"><path d="M12.518 13.628a.232.232 0 01-.225.313c-.773.025-1.671.13-2.431-.02l-.009-.002a.189.189 0 01-.173-.066c-.6-.684-1.05-1.49-1.496-2.266-.438-.76-.927-1.552-1.111-2.4-.054-.024-.092-.076-.063-.142 1.066-2.436 2.635-4.697 4.182-6.902.087-.125.233-.144.35-.103.335-.058.687-.039 1.025-.029.362.01.754-.024 1.1.069.05.014.084.039.109.07.17.042.3.203.173.377-1.547 2.082-2.79 4.277-4.13 6.462.013.042.029.083.04.127.446.633.773 1.347 1.16 2.007.46.787.958 1.552 1.475 2.31a.194.194 0 01.024.195z" fill="#D2D52D"/><path d="M4.34 6.439c-.272-.365-.547-.735-.767-1.143a.157.157 0 01.015-.183c.013-.064.058-.12.124-.112.309.033.614.076.925.086.23.005.48-.031.712.005.049-.077.147-.11.221-.024.522.593.966 1.318 1.398 1.995a.206.206 0 01-.017.242c-.398 1.071-1.01 2.132-1.602 3.112-.073.151-.148.3-.226.447a.128.128 0 01-.096.074.186.186 0 01-.126.055c-.586.015-1.204.015-1.784-.086-.11-.022-.134-.123-.106-.214a.166.166 0 01.008-.096c.081-.185.166-.37.256-.552.398-1.042.827-2.11 1.364-3.068-.075-.132-.147-.265-.218-.392l-.08-.146z" fill="#09595D"/></g></svg>