<?xml version="1.0" encoding="UTF-8"?>
<svg width="16px" height="16px" viewBox="0 0 16 16" version="1.1" xmlns="http://www.w3.org/2000/svg" xmlns:xlink="http://www.w3.org/1999/xlink">
    <title>icon-share-idea-gray</title>
    <g id="Style-Guide" stroke="none" stroke-width="1" fill="none" fill-rule="evenodd">
        <g id="Styling---Icons" transform="translate(-1023.000000, -813.000000)" fill="#788288" fill-rule="nonzero">
            <g id="Icons" transform="translate(100.000000, 209.000000)">
                <g id="Share" transform="translate(739.000000, 509.000000)">
                    <g id="icon/share/idea/gray" transform="translate(184.000000, 95.000000)">
                        <g id="lightbulb" transform="translate(1.000000, 0.000000)">
                            <path d="M13.5898437,7.41015625 L12.7112122,7.41015625 C12.4846649,7.41015625 12.3010559,7.22654723 12.3010559,7 C12.3010559,6.77345277 12.4846649,6.58984375 12.7112122,6.58984375 L13.5898437,6.58984375 C13.816391,6.58984375 14,6.77345277 14,7 C14,7.22654723 13.816391,7.41015625 13.5898437,7.41015625 Z" id="Path"></path>
                            <path d="M1.28878783,7.41015625 L0.41015625,7.41015625 C0.183609016,7.41015625 0,7.22654723 0,7 C0,6.77345277 0.183609016,6.58984375 0.41015625,6.58984375 L1.28878783,6.58984375 C1.51533509,6.58984375 1.69894408,6.77345277 1.69894408,7 C1.69894408,7.22654723 1.51533509,7.41015625 1.28878783,7.41015625 Z" id="Path"></path>
                            <path d="M2.96156312,3.37171937 C2.85656738,3.37171937 2.75167845,3.33166504 2.67156982,3.25155638 L2.0502472,2.63023376 C1.89002991,2.4701233 1.89002991,2.21046448 2.0502472,2.0502472 C2.21035768,1.89002991 2.4701233,1.89002991 2.63023376,2.0502472 L3.25155638,2.67156982 C3.4117737,2.8316803 3.4117737,3.09144593 3.25155638,3.25155638 C3.17144775,3.33166504 3.06655885,3.37171937 2.96156312,3.37171937 Z" id="Path"></path>
                            <path d="M11.0384369,3.37171937 C10.9334411,3.37171937 10.8284454,3.33166504 10.7484436,3.25155638 C10.5882263,3.09144593 10.5882263,2.8316803 10.7484436,2.67156982 L11.3697662,2.0502472 C11.5298767,1.89002991 11.7895355,1.89002991 11.9497528,2.0502472 C12.1099701,2.21035768 12.1099701,2.4701233 11.9497528,2.63023376 L11.3284302,3.25155638 C11.2483215,3.33166504 11.1434326,3.37171937 11.0384369,3.37171937 L11.0384369,3.37171937 Z" id="Path"></path>
                            <path d="M7,1.69894408 C6.77345277,1.69894408 6.58984375,1.51533509 6.58984375,1.28878783 L6.58984375,0.41015625 C6.58984375,0.183609016 6.77345277,0 7,0 C7.22654723,0 7.41015625,0.183609016 7.41015625,0.41015625 L7.41015625,1.28878783 C7.41015625,1.51533509 7.22654723,1.69894408 7,1.69894408 Z" id="Path"></path>
                            <path d="M4.83258057,12.2427368 L4.83258057,12.7112122 C4.83258057,12.8200531 4.87573242,12.9243011 4.95274352,13.0012054 L5.83137513,13.879837 C5.90827943,13.9567413 6.01263428,14 6.12136842,14 L7.87863158,14 C7.98747253,14 8.09172057,13.9568481 8.16862487,13.879837 L9.04725648,13.0012054 C9.12426758,12.9243011 9.16741943,12.8199463 9.16741943,12.7112122 L9.16741943,12.2427368 L4.83258057,12.2427368 Z" id="Path"></path>
                            <path d="M7,3.07531738 C4.83589173,3.07531738 3.07531738,4.83589173 3.07531738,7 L3.07531738,7.54335023 C3.07531738,8.13562012 3.27900696,8.716568 3.64900208,9.17895508 L4.42904662,10.1540375 C4.68923952,10.4792786 4.83258057,10.8878326 4.83258057,11.3042908 L4.83258057,11.4223175 L6.58984375,11.4223175 L7.41015625,11.4223175 L9.16741943,11.4223175 L9.16741943,11.3042908 C9.16741943,10.8878326 9.31076048,10.4792786 9.57095338,10.1540375 L10.3509979,9.17895508 C10.720993,8.716568 10.9246826,8.13562012 10.9246826,7.54335023 L10.9246826,7 C10.9246826,4.83589173 9.16410827,3.07531738 7,3.07531738 Z" id="Path"></path>
                        </g>
                    </g>
                </g>
            </g>
        </g>
    </g>
</svg>