<svg xmlns="http://www.w3.org/2000/svg" width="24" height="24"><g fill="none" fill-rule="evenodd"><path fill="#C8CBD0" d="M-7-7.5h38v38H-7z"/><circle cx="12" cy="12" r="12" fill="#FFF"/><g fill-rule="nonzero"><path fill="#E91E63" d="M9.884 12.428c-.926 0-1.678.751-1.678 1.677v4.196a1.678 1.678 0 003.355 0v-4.196c0-.926-.752-1.677-1.677-1.677zm-5.871 1.677a1.68 1.68 0 003.357 0v-1.678H5.691a1.68 1.68 0 00-1.678 1.678z"/><path fill="#00BCD4" d="M9.886 4.01h-.002a1.68 1.68 0 000 3.357h1.677V5.685c0-.925-.75-1.675-1.675-1.675zM5.68 11.576h4.204a1.68 1.68 0 000-3.358H5.68a1.68 1.68 0 000 3.358z"/><path fill="#4CAF50" d="M18.277 8.218c-.926 0-1.676.75-1.676 1.675v1.682h1.678a1.68 1.68 0 000-3.357h-.002zm-5.867-2.53v4.209a1.678 1.678 0 003.356 0V5.688a1.678 1.678 0 00-3.355 0z"/><path d="M15.765 18.3c0-.926-.751-1.678-1.677-1.678H12.41v1.68a1.677 1.677 0 003.355-.002zm2.526-5.873h-4.203a1.68 1.68 0 000 3.357h4.203a1.68 1.68 0 000-3.357z" fill="#FF9800"/></g></g></svg>