<svg width="32" height="32" xmlns="http://www.w3.org/2000/svg"><g fill="none"><path fill="#959595" d="M23.862 4H8.138L4 10.62V28h24V10.62z"/><path fill="#BEBEBE" d="M8.138 4L4 10.62h24L23.862 4z"/><path fill="#C1C1C1" d="M17.655 26.345L16 24.69l-1.655 1.655-.828-.828V28h4.966v-2.483z"/><path fill="#E0E0E0" d="M13.517 4h4.966v6.621h-4.966z"/><path fill="#C1C1C1" d="M14.345 12.69L16 14.345l1.655-1.655.828.827v-2.896h-4.966v2.896z"/><g transform="translate(12.5 16)" fill="#C1C1C1"><circle cx="3.488" cy="3.477" r=".855"/><circle cx="3.488" cy="6.042" r=".855"/><circle cx=".923" cy="3.477" r=".855"/><circle cx=".923" cy="6.042" r=".855"/><circle cx="6.054" cy="3.477" r=".855"/><path d="M6.106.087H.871a.774.774 0 00-.568.236.774.774 0 00-.236.568v.062c0 .222.079.41.236.568a.774.774 0 00.568.235h5.235c.444 0 .804-.36.804-.803V.89a.803.803 0 00-.804-.804z"/><circle cx="6.054" cy="6.042" r=".855"/></g></g></svg>