<svg width="20" height="20" xmlns="http://www.w3.org/2000/svg"><path d="M14.974 6.653a.866.866 0 00-.122-.213L11.93 3.244a.802.802 0 00-.233-.171.715.715 0 00-.332-.073H5.792C5.359 3 5 3.369 5 3.833v11.686c0 .467.359.868.792.868h8.474c.433 0 .774-.401.774-.868v-8.51a.881.881 0 00-.066-.356zm-8.301.328c0-.053.063-.073.119-.073H9.26c.056 0 .097.021.097.073v.376c0 .049-.038.108-.097.108H6.792c-.056 0-.119-.06-.119-.108v-.376zm0 4.462c0-.053.063-.073.119-.073h4.26c.056 0 .084.021.084.073v.377c0 .048-.024.107-.084.107h-4.26c-.056 0-.119-.06-.119-.107v-.377zm5.578 2.608c0 .049-.024.108-.083.108H6.792c-.056 0-.119-.06-.119-.108v-.376c0-.053.063-.073.119-.073h5.376c.055 0 .083.021.083.073v.376zm1.116-4.462c0 .049-.025.108-.084.108H6.792c-.056 0-.119-.06-.119-.108v-.377c0-.052.063-.073.119-.073h6.491c.056 0 .084.021.084.073v.377zm-1.636-2.647a.407.407 0 01-.387-.394v-2.3l2.481 2.694h-2.094z" fill="#FFF" fill-rule="evenodd"/></svg>