<svg xmlns="http://www.w3.org/2000/svg" xmlns:xlink="http://www.w3.org/1999/xlink" width="236" height="236"><defs><filter id="b" width="101.4%" height="101.4%" x="-.7%" y="-.7%" filterUnits="objectBoundingBox"><feOffset dy="-3" in="SourceAlpha" result="shadowOffsetInner1"/><feComposite in="shadowOffsetInner1" in2="SourceAlpha" k2="-1" k3="1" operator="arithmetic" result="shadowInnerInner1"/><feColorMatrix in="shadowInnerInner1" values="0 0 0 0 0.815686275 0 0 0 0 0.819607843 0 0 0 0 0.815686275 0 0 0 1 0"/></filter><filter id="d" width="101.4%" height="102.1%" x="-.7%" y="-1%" filterUnits="objectBoundingBox"><feOffset dy="-3" in="SourceAlpha" result="shadowOffsetInner1"/><feComposite in="shadowOffsetInner1" in2="SourceAlpha" k2="-1" k3="1" operator="arithmetic" result="shadowInnerInner1"/><feColorMatrix in="shadowInnerInner1" values="0 0 0 0 0.792156863 0 0 0 0 0.792156863 0 0 0 0 0.792156863 0 0 0 1 0"/></filter><filter id="f" width="101.4%" height="102.2%" x="-.7%" y="-1.1%" filterUnits="objectBoundingBox"><feOffset dy="-3" in="SourceAlpha" result="shadowOffsetInner1"/><feComposite in="shadowOffsetInner1" in2="SourceAlpha" k2="-1" k3="1" operator="arithmetic" result="shadowInnerInner1"/><feColorMatrix in="shadowInnerInner1" values="0 0 0 0 0.792156863 0 0 0 0 0.792156863 0 0 0 0 0.792156863 0 0 0 1 0"/></filter><filter id="i" width="101.4%" height="102.4%" x="-.7%" y="-1.2%" filterUnits="objectBoundingBox"><feOffset dy="-3" in="SourceAlpha" result="shadowOffsetInner1"/><feComposite in="shadowOffsetInner1" in2="SourceAlpha" k2="-1" k3="1" operator="arithmetic" result="shadowInnerInner1"/><feColorMatrix in="shadowInnerInner1" values="0 0 0 0 0.79333673 0 0 0 0 0.79333673 0 0 0 0 0.79333673 0 0 0 1 0"/></filter><path id="a" d="M20.875 0h180.542c7.732 0 14 6.268 14 14v187.217c0 7.732-6.268 14-14 14H20.875c-7.732 0-14-6.268-14-14V14c0-7.732 6.268-14 14-14z"/><path id="c" d="M215.417 96v107c0 9.389-7.611 17-17 17H23.875c-9.389 0-17-7.611-17-17V96.89c0-9.354 7.558-16.951 16.913-16.999l174.542-.89c9.389-.049 17.039 7.524 17.086 16.912V96z"/><path id="e" d="M215.567 76.522l2.136 108.674c.274 13.939-10.781 25.239-24.693 25.239H29.281c-13.911 0-24.967-11.3-24.693-25.239L6.705 77.532l208.862-1.01z"/><path id="h" d="M213.889 0l5.728 99.227c.8 13.874-10.25 25.12-24.683 25.12H25.066c-14.433 0-25.484-11.246-24.683-25.12L6.057.938 213.889 0z"/><linearGradient id="g" x1="95.424%" x2="76.328%" y1="48.019%" y2="51.343%"><stop offset="0%" stop-color="#3485B9"/><stop offset="100%" stop-color="#1573AD"/></linearGradient><linearGradient id="j" x1="56.4%" x2="100%" y1="42.235%" y2="73.783%"><stop offset="0%" stop-opacity=".102"/><stop offset="100%" stop-color="#E8E8E8" stop-opacity="0"/></linearGradient></defs><g fill="none" fill-rule="evenodd"><g transform="translate(0 16)"><use fill="#EBECEB" xlink:href="#a"/><use fill="#000" filter="url(#b)" xlink:href="#a"/><use fill="#EBECEB" xlink:href="#c"/><use fill="#000" filter="url(#d)" xlink:href="#c"/><use fill="#EBECEB" xlink:href="#e"/><use fill="#000" filter="url(#f)" xlink:href="#e"/><path fill="url(#g)" d="M51.313 23.913h117.374c11.886 0 21.521 9.636 21.521 21.522s-9.635 21.522-21.521 21.522H51.313c-11.886 0-21.521-9.636-21.521-21.522s9.635-21.522 21.521-21.522z"/><g transform="translate(0 76.522)"><use fill="#EBECEB" xlink:href="#h"/><use fill="#000" filter="url(#i)" xlink:href="#h"/><path fill="#1070AD" d="M109.374 45.217c11.41 0 20.57-8.154 20.461-18.212-.109-10.059-9.264-18.213-20.449-18.213-11.184 0-20.345 8.154-20.461 18.213-.116 10.058 9.04 18.212 20.449 18.212zm-.018 52.754c11.736 0 21.162-8.154 21.053-18.213-.11-10.058-9.53-18.212-21.04-18.212-11.511 0-20.937 8.154-21.053 18.212-.116 10.059 9.304 18.213 21.04 18.213z"/><path fill="#71C700" d="M49.304 45.217c11.41 0 20.831-8.154 21.043-18.212.212-10.059-8.684-18.213-19.868-18.213s-20.605 8.154-21.043 18.213C29 37.063 37.894 45.217 49.304 45.217zm-1.702 52.754c11.737 0 21.422-8.154 21.634-18.213.212-10.058-8.948-18.212-20.459-18.212-11.51 0-21.196 8.154-21.634 18.212-.437 10.059 8.723 18.213 20.46 18.213zm121.842-52.754c11.41 0 20.31-8.154 19.88-18.212-.43-10.059-9.846-18.213-21.03-18.213-11.185 0-20.085 8.154-19.88 18.213.204 10.058 9.62 18.212 21.03 18.212zm1.666 52.754c11.736 0 20.901-8.154 20.471-18.213-.43-10.058-10.11-18.212-21.621-18.212s-20.677 8.154-20.472 18.212c.205 10.059 9.886 18.213 21.622 18.213z"/><path fill="url(#j)" d="M213.889 0l5.728 99.227c.8 13.874-10.25 25.12-24.683 25.12h-67.448L6.057.939 213.889 0z" opacity=".531" style="mix-blend-mode:darken"/></g></g><g transform="translate(159)"><circle cx="41" cy="36" r="36" fill="#71C700"/><path d="M66.817 38.93L59.31 17.984a2.987 2.987 0 00-1.53-1.706 2.847 2.847 0 00-2.251-.089L18.923 30.168a2.963 2.963 0 00-1.652 1.58 3.103 3.103 0 00-.087 2.323l7.507 20.944c.273.76.817 1.367 1.531 1.706a2.86 2.86 0 002.251.089l36.605-13.978c1.522-.581 2.302-2.332 1.739-3.903zm-13.3-18.732L42.162 36.952l-19.185-5.093 30.54-11.661zM26.92 52.48l-6.512-18.167 15.081 4.003-8.57 14.164zm3.189.465l8.37-13.835 3.937 1.045c.122.032.246.049.366.049.474 0 .927-.237 1.207-.649l2.33-3.44 15.079 4.882-31.29 11.948zm17.98-19.44l8.924-13.171 6.515 18.17-15.439-5zM17.913 54.962c-.265-.763-1.063-1.152-1.781-.87l-5.226 2.053c-.718.283-1.085 1.13-.82 1.893.208.594.737.962 1.301.962.16 0 .323-.03.481-.092l5.226-2.053c.718-.282 1.085-1.13.82-1.893zm-8-13.049a1.383 1.383 0 00-1.781-.826L4.906 42.29a1.403 1.403 0 00-.82 1.797 1.389 1.389 0 001.782.826l3.226-1.204a1.402 1.402 0 00.82-1.796zM4.916 52.99c-.257-.785-1.028-1.186-1.722-.895l-2.318.968c-.695.29-1.05 1.162-.792 1.947.2.612.712.99 1.257.99.155 0 .312-.03.465-.095l2.318-.968c.695-.29 1.05-1.162.792-1.947z" fill="#FFF" fill-rule="nonzero"/></g></g></svg>