<svg xmlns="http://www.w3.org/2000/svg" width="16" height="16"><g fill="#999"><path d="M10.429 10.683v1.763a.984.984 0 01-.983.983H3.554a.983.983 0 01-.983-.983V6.554c0-.542.441-.983.983-.983H5.35V4H3.554A2.553 2.553 0 001 6.554v5.892A2.553 2.553 0 003.554 15h5.892A2.553 2.553 0 0012 12.446v-1.763h-1.571z"/><path d="M13.429 7.683v1.763a.984.984 0 01-.983.983H6.554a.983.983 0 01-.983-.983V3.554c0-.542.441-.983.983-.983H8.35L9.922 1H6.554A2.553 2.553 0 004 3.554v5.892A2.553 2.553 0 006.554 12h5.892A2.553 2.553 0 0015 9.446V6.111l-1.571 1.572z"/><path d="M5.571 5.317V3.554c0-.542.441-.983.983-.983h5.892c.542 0 .983.441.983.983v5.892a.984.984 0 01-.983.983H10.65L9.078 12h3.368A2.553 2.553 0 0015 9.446V3.554A2.553 2.553 0 0012.446 1H6.554A2.553 2.553 0 004 3.554v3.335l1.571-1.572z"/></g></svg>