<svg xmlns="http://www.w3.org/2000/svg" width="16" height="16"><path d="M6.148 8.374c-.81 0-1.467.658-1.467 1.468v3.672a1.468 1.468 0 002.935 0V9.842c0-.81-.658-1.468-1.468-1.468zM1.011 9.842a1.47 1.47 0 002.938 0V8.373H2.48a1.47 1.47 0 00-1.469 1.47zM6.15 1.009h-.002a1.47 1.47 0 000 2.937h1.468V2.474c0-.81-.657-1.465-1.466-1.465zm-3.68 6.62h3.678a1.47 1.47 0 000-2.938H2.47a1.47 1.47 0 000 2.938zM13.492 4.69c-.81 0-1.466.656-1.466 1.466V7.63h1.468a1.47 1.47 0 000-2.939h-.002zM8.36 2.477V6.16a1.468 1.468 0 002.935 0V2.477a1.468 1.468 0 00-2.935 0zm2.934 11.035c0-.81-.657-1.467-1.467-1.467H8.359v1.469a1.468 1.468 0 002.935-.002zm2.211-5.139H9.827a1.47 1.47 0 000 2.938h3.678a1.47 1.47 0 000-2.938z" fill="#1070AD"/></svg>