<svg width="24" height="24" xmlns="http://www.w3.org/2000/svg"><path d="M10.553 20.998a.638.638 0 01-.453-.187l-6.913-6.913a.64.64 0 010-.904L4.54 11.64a.64.64 0 01.586-.174l3.384.718 1.338-1.337-5.56-4.128a.64.64 0 01-.07-.966l.96-.96a.64.64 0 01.616-.165l8.113 2.16 3.104-3.104A2.32 2.32 0 0118.662 3c.624 0 1.21.243 1.652.685.441.441.684 1.028.684 1.652a2.32 2.32 0 01-.685 1.651l-3.104 3.104 2.16 8.112a.64.64 0 01-.166.617l-.96.96a.64.64 0 01-.965-.071l-4.127-5.56-1.339 1.34.719 3.383a.64.64 0 01-.174.586l-1.352 1.352a.638.638 0 01-.452.187zm-6.008-7.552l6.008 6.007.654-.654-.719-3.384a.64.64 0 01.173-.585l2.109-2.108a.642.642 0 01.966.07l4.127 5.56.175-.175-2.16-8.112a.64.64 0 01.165-.617l3.365-3.365a1.052 1.052 0 000-1.494c-.199-.2-.464-.31-.746-.31s-.547.11-.747.31L14.55 7.955a.64.64 0 01-.617.165L5.82 5.96l-.174.175 5.56 4.127a.64.64 0 01.07.967l-2.108 2.107a.64.64 0 01-.585.173l-3.384-.718-.654.655z" stroke="#999" stroke-width=".2" fill="#999"/></svg>