<svg width="16" height="16" xmlns="http://www.w3.org/2000/svg"><path d="M7.959 2a1.834 1.834 0 100 3.668 1.834 1.834 0 000-3.668zM4.75 8.417a1.376 1.376 0 10-2.751.001 1.376 1.376 0 002.751-.001zm6.418-2.979a.229.229 0 100-.458.229.229 0 000 .458zM3.719 4.166c-.57.575-.57 1.51 0 2.086.57.575 1.496.575 2.066 0 .57-.576.57-1.511 0-2.086a1.451 1.451 0 00-2.066 0zm8.824 3.793a.458.458 0 10-.002.916.458.458 0 00.002-.916zm-1.347 3.008a.689.689 0 10.001 1.377.689.689 0 00-.001-1.377zm-3.237 1.117a.918.918 0 10.001 1.835.918.918 0 00-.001-1.835zM4.75 10.48a1.146 1.146 0 100 2.292 1.146 1.146 0 000-2.292z" fill="#FFF" fill-rule="evenodd"/></svg>