<svg xmlns="http://www.w3.org/2000/svg" width="20" height="20"><path fill="#FFF" fill-rule="evenodd" d="M18.689 19.011H1.322A.323.323 0 011 18.689V2.608c0-.177.145-.322.322-.322h2.251v1.637c0 .904.965 1.58 1.93 1.58s1.929-.676 1.929-1.58V2.286h5.146v1.637c0 .904.997 1.58 1.962 1.58s1.897-.676 1.897-1.58V2.286h2.252c.177 0 .321.145.321.322V18.69a.321.321 0 01-.321.321zM17.081 6.789H2.93v10.292h14.151V6.789zm-2.573-1.93a1.283 1.283 0 01-1.285-1.286V2.286a1.284 1.284 0 112.571 0v1.287c0 .712-.574 1.286-1.286 1.286zm-9.005 0a1.285 1.285 0 01-1.287-1.286V2.286C4.216 1.575 4.791 1 5.503 1c.711 0 1.286.575 1.286 1.286v1.287c0 .712-.575 1.286-1.286 1.286z"/></svg>