<svg width="24" height="24" xmlns="http://www.w3.org/2000/svg"><path d="M17.878 14.12H16.43a.104.104 0 01-.104-.103V9.983c0-.057.046-.104.104-.104h1.448c.315 0 .617-.13.829-.36.21-.225.313-.518.29-.824a1.106 1.106 0 00-1.1-1.022H16.43a.104.104 0 01-.104-.104V6.122c0-.315-.131-.617-.36-.829a1.082 1.082 0 00-.825-.29 1.107 1.107 0 00-1.021 1.1v1.466a.104.104 0 01-.104.104H9.982a.104.104 0 01-.104-.104V6.122c0-.315-.13-.617-.359-.829a1.083 1.083 0 00-.825-.29 1.107 1.107 0 00-1.022 1.1v1.466a.104.104 0 01-.104.104H6.122c-.315 0-.617.131-.829.36-.21.225-.313.518-.29.825a1.107 1.107 0 001.1 1.02h1.465c.058 0 .104.048.104.105v4.034a.104.104 0 01-.104.104H6.122c-.315 0-.617.13-.829.359a1.08 1.08 0 00-.29.825 1.107 1.107 0 001.1 1.021h1.465c.058 0 .104.047.104.105v1.447c0 .315.131.617.36.829.225.21.518.312.825.29a1.107 1.107 0 001.02-1.1V16.43c0-.058.048-.105.105-.105h4.034c.057 0 .104.047.104.105v1.447c0 .315.131.617.36.829a1.083 1.083 0 00.824.29 1.107 1.107 0 001.022-1.1V16.43c0-.058.046-.105.104-.105h1.467c.575 0 1.058-.448 1.1-1.02.023-.307-.08-.6-.29-.826a1.135 1.135 0 00-.83-.36zm-3.758-.103a.104.104 0 01-.104.104H9.982a.104.104 0 01-.104-.104V9.983c0-.057.047-.104.104-.104h4.034c.057 0 .104.047.104.104v4.034z" fill="#999"/></svg>