<svg xmlns="http://www.w3.org/2000/svg" width="18" height="18"><path fill="#0268AA" d="M9.047 0a9.048 9.048 0 10.001 18.095A9.048 9.048 0 009.047 0zm7.201 6.159l-2.484.764a5.125 5.125 0 00-1.062-1.535 5.137 5.137 0 00-1.535-1.062l.765-2.484c.961.383 1.84.965 2.596 1.716a7.774 7.774 0 011.72 2.601zm-7.201 6.765a3.877 3.877 0 110-7.755 3.877 3.877 0 010 7.755zM3.562 3.562a7.707 7.707 0 012.597-1.716l.764 2.484a5.125 5.125 0 00-1.535 1.062 5.125 5.125 0 00-1.062 1.535l-2.484-.764a7.816 7.816 0 011.72-2.601zm-1.716 8.374l2.484-.765a5.125 5.125 0 001.062 1.535c.452.453.969.808 1.535 1.062l-.764 2.484a7.79 7.79 0 01-4.317-4.316zm12.686 2.596a7.717 7.717 0 01-2.597 1.716l-.765-2.484a5.125 5.125 0 001.535-1.062c.453-.452.808-.97 1.062-1.535l2.484.765a7.814 7.814 0 01-1.719 2.6z"/></svg>