<svg width="24" height="24" xmlns="http://www.w3.org/2000/svg"><path d="M15.68 4.023c-1.34 0-2.663.517-3.682 1.413-1.02-.896-2.343-1.413-3.682-1.413C5.335 4.023 3 6.416 3 9.473c0 3.693 2.509 5.95 6.306 9.369a365.831 365.831 0 011.011.912l1.146 1.015a.805.805 0 001.07 0l1.146-1.015a.832.832 0 00.008-.007c2.269-2.057 3.97-3.632 5.202-5.169 1.437-1.794 2.107-3.417 2.107-5.106 0-3.056-2.335-5.45-5.315-5.45zm-3.074 14.465l-.608.538-.608-.538c-.345-.313-.68-.615-1.005-.907-3.585-3.227-5.749-5.175-5.749-8.109 0-2.15 1.582-3.772 3.68-3.772 1.14 0 2.313.561 3.058 1.464a.81.81 0 00.624.297.81.81 0 00.625-.297c.745-.903 1.916-1.464 3.058-1.464 2.097 0 3.679 1.622 3.679 3.772 0 2.757-2.44 5.104-6.754 9.016z" fill="#9C9C9C"/></svg>