<svg xmlns="http://www.w3.org/2000/svg" width="16" height="16"><path fill="#999" fill-rule="evenodd" d="M13.655 8.001c0-.871.54-1.56 1.345-2.035a7.485 7.485 0 00-.575-1.393c-.908.237-1.64-.116-2.26-.736-.617-.616-.807-1.353-.57-2.26A7.286 7.286 0 0010.202 1C9.728 1.81 8.875 2.345 8 2.345c-.87 0-1.728-.535-2.202-1.345a7.258 7.258 0 00-1.392.576c.236.908.046 1.64-.57 2.26-.616.617-1.352.974-2.257.737-.24.438-.433.905-.579 1.393.81.474 1.349 1.164 1.349 2.035 0 .87-.54 1.728-1.349 2.202.146.488.339.956.576 1.393.908-.238 1.64-.048 2.256.568.62.616.806 1.353.569 2.261.44.237.904.43 1.392.575.475-.81 1.331-1.345 2.203-1.345.872 0 1.728.536 2.203 1.345a7.347 7.347 0 001.392-.575c-.237-.908-.048-1.64.568-2.26.616-.617 1.352-.974 2.26-.738.238-.44.43-.906.576-1.391-.804-.475-1.34-1.164-1.34-2.035zM8 11.585a3.585 3.585 0 110-7.169 3.585 3.585 0 010 7.17z"/></svg>