<svg width="18" height="18" xmlns="http://www.w3.org/2000/svg" xmlns:xlink="http://www.w3.org/1999/xlink"><defs><rect id="a" width="18" height="18" rx="4"/><mask id="b" x="0" y="0" width="18" height="18" fill="#fff"><use xlink:href="#a"/></mask></defs><g fill="none" fill-rule="evenodd"><use stroke="#CDD0D4" mask="url(#b)" stroke-width="2" fill="#FFF" xlink:href="#a"/><path d="M13.918 5.97l-1.316-.9a.255.255 0 00-.149-.049.25.25 0 00-.15.052l-4.79 5.33L5.578 8.79c-.053-.045-.122-.122-.228-.122-.105 0-.153.064-.209.112l-1.043.951a.957.957 0 01-.048.044.188.188 0 00-.048.118c0 .046.02.083.048.119l.068.054 3.395 2.827c.055.048.122.108.22.108.097 0 .176-.09.221-.129l5.974-6.647a.189.189 0 00.048-.12.198.198 0 00-.058-.134z" fill-rule="nonzero" fill="#283842"/></g></svg>