<svg xmlns="http://www.w3.org/2000/svg" width="54" height="54"><g fill="none" fill-rule="evenodd"><circle cx="27" cy="27" r="27" fill="#FFF"/><g fill="#556080" fill-rule="nonzero"><path d="M28.563 19.633c0-3.221 2.658-5.833 5.937-5.833 3.28 0 5.938 2.612 5.938 5.833 0 3.222-2.659 5.834-5.938 5.834-3.28 0-5.938-2.612-5.938-5.834zm8.302 7.867h-4.73C28.202 27.5 25 30.549 25 34.296v5.51l.015.086.4.118c3.753 1.117 7.016 1.49 9.701 1.49 5.244 0 8.284-1.424 8.472-1.515l.373-.18H44v-5.51c0-3.746-3.201-6.795-7.135-6.795z"/><path stroke="#FFF" stroke-width="2" d="M13.083 18.115c0-4.044 3.324-7.315 7.417-7.315s7.417 3.271 7.417 7.315c0 4.043-3.324 7.315-7.417 7.315s-7.417-3.272-7.417-7.315zM31.19 41.556l-.198.1c-.562.28-1.491.639-2.776.98-2.046.542-4.398.864-7.034.864-3.436 0-7.118-.55-11.018-1.755l-1.032-.319-.118-.708L9 40.555v-6.327c0-4.856 3.988-8.802 8.887-8.802h5.227c4.898 0 8.886 3.946 8.886 8.802v7.336l-.81-.008z"/></g><g transform="translate(38 38)"><circle cx="8" cy="8" r="8" fill="#71C700"/><rect width="7.273" height="1.455" x="4.364" y="7.273" fill="#FFF" rx=".727"/><path fill="#FFF" d="M8.727 5.09v5.82a.727.727 0 01-1.454 0V5.09a.727.727 0 111.454 0z"/></g></g></svg>