<svg xmlns="http://www.w3.org/2000/svg" width="248" height="248"><g fill="none" fill-rule="evenodd"><circle cx="124" cy="124" r="124" fill="#556080"/><g fill="#FFF" transform="translate(42 44)"><ellipse cx="82.52" cy="46.456" rx="46.406" ry="46.301"/><path d="M82.5 188.447c-33.327 0-64.242-15.43-82.5-41.157 8.301-11.697 19.473-21.54 32.568-28.651 15.068-8.181 32.333-12.506 49.931-12.506s34.863 4.325 49.931 12.506c13.096 7.111 24.269 16.956 32.57 28.651-18.235 25.693-49.135 41.157-82.5 41.157z"/></g><g transform="translate(171)"><circle cx="41" cy="36" r="36" fill="#71C700"/><path d="M66.817 38.93L59.31 17.984a2.981 2.981 0 00-1.53-1.706 2.84 2.84 0 00-2.251-.089L18.923 30.168a2.963 2.963 0 00-1.652 1.58 3.107 3.107 0 00-.087 2.323l7.507 20.944a2.982 2.982 0 001.531 1.706 2.857 2.857 0 002.25.089l36.606-13.978c1.522-.581 2.302-2.332 1.739-3.903zm-13.3-18.732L42.162 36.952l-19.185-5.093 30.54-11.661zM26.92 52.48l-6.512-18.167 15.081 4.003-8.57 14.164zm3.189.465l8.37-13.835 3.937 1.045c.122.032.246.049.366.049.474 0 .927-.237 1.207-.649l2.33-3.44 15.079 4.882-31.29 11.948zm17.98-19.44l8.924-13.171 6.515 18.17-15.439-5zM17.913 54.962c-.265-.763-1.063-1.152-1.781-.87l-5.226 2.053c-.718.283-1.085 1.13-.82 1.893.208.594.737.962 1.301.962.16 0 .323-.03.481-.092l5.226-2.053c.718-.282 1.085-1.13.82-1.893zm-8-13.049a1.384 1.384 0 00-1.781-.826L4.906 42.29a1.401 1.401 0 00-.82 1.797 1.388 1.388 0 001.782.826l3.226-1.204a1.401 1.401 0 00.82-1.796zM4.916 52.99c-.257-.785-1.028-1.186-1.722-.895l-2.318.968c-.695.29-1.05 1.162-.792 1.947.2.612.712.99 1.257.99.155 0 .312-.03.465-.095l2.318-.968c.695-.29 1.05-1.162.792-1.947z" fill="#FFF" fill-rule="nonzero"/></g></g></svg>