<svg xmlns="http://www.w3.org/2000/svg" width="16" height="16"><path fill="#1070AD" d="M8.5 2a6.5 6.5 0 100 13 6.5 6.5 0 000-13zm.586 9.48c-.014.517-.397.836-.894.821-.475-.014-.85-.354-.835-.873.014-.517.409-.845.885-.83.499.014.862.366.844.882zM10.5 7.786c-.122.171-.394.392-.737.659l-.38.261c-.186.142-.302.31-.363.502a2.87 2.87 0 00-.06.543c-.003.034-.024.113-.131.113H7.693c-.119 0-.133-.07-.13-.105.017-.481.087-.879.287-1.198.27-.43 1.03-.882 1.03-.882a1.2 1.2 0 00.276-.282c.127-.174.232-.368.232-.577 0-.241-.058-.47-.212-.662-.18-.223-.374-.33-.749-.33-.368 0-.583.185-.737.429-.153.244-.127.53-.127.792H6.15c0-.987.258-1.616.803-1.988.369-.252.839-.362 1.387-.362.72 0 1.292.133 1.797.516.467.354.713.853.713 1.527 0 .414-.145.763-.35 1.044z"/></svg>