<svg xmlns="http://www.w3.org/2000/svg" width="16" height="16"><g fill="#1070AD" fill-rule="evenodd"><path d="M1.461 3.706c.379.198 5.637 3.041 5.834 3.144.196.102.395.15.705.15.31 0 .51-.048.705-.15.197-.103 5.455-2.946 5.834-3.144.14-.071.378-.2.43-.348.09-.259-.007-.358-.389-.358H1.42c-.382 0-.478.102-.389.358.052.15.29.277.43.348z"/><path d="M14.72 4.067c-.276.163-2.752 2.19-4.391 3.41l2.766 3.58c.067.077.098.17.06.217-.04.042-.127.02-.198-.054L9.639 8a37.37 37.37 0 01-.916.665c-.259.151-.44.17-.69.17-.249 0-.43-.019-.69-.17A31.19 31.19 0 016.429 8L3.11 11.22c-.067.078-.158.101-.199.055-.04-.043-.01-.14.058-.217l2.763-3.58c-1.64-1.22-4.143-3.247-4.419-3.41-.296-.174-.313.031-.313.19v7.934c0 .36.461.809.79.809h12.486c.33 0 .724-.453.724-.809V4.257c0-.163.02-.364-.28-.19z"/></g></svg>