<svg xmlns="http://www.w3.org/2000/svg" width="20" height="20"><path fill="#FFF" d="M15.345 6.367a.974.974 0 00-.14-.255l-3.322-3.82a.922.922 0 00-.266-.204.775.775 0 00-.376-.088H4.9c-.493 0-.9.442-.9.996v13.966c0 .559.408 1.038.9 1.038h9.64c.491 0 .88-.48.88-1.038V6.792c0-.15-.02-.296-.075-.425zm-9.442.391c0-.062.072-.087.135-.087h2.808c.063 0 .11.025.11.087v.45c0 .059-.043.13-.11.13H6.038c-.063 0-.135-.071-.135-.13v-.45zm0 5.334c0-.063.072-.088.135-.088h4.846c.063 0 .095.025.095.088v.45c0 .058-.028.129-.095.129H6.038c-.063 0-.135-.071-.135-.13v-.45zm6.345 3.116c0 .059-.028.13-.095.13H6.038c-.063 0-.135-.071-.135-.13v-.45c0-.062.072-.087.135-.087h6.115c.063 0 .095.025.095.087v.45zm1.269-5.333c0 .058-.028.13-.095.13H6.038c-.063 0-.135-.072-.135-.13v-.45c0-.063.072-.088.135-.088h7.384c.063 0 .095.026.095.088v.45zm-1.86-3.162c-.222 0-.44-.217-.44-.471v-2.75l2.823 3.22h-2.383z"/></svg>