<svg xmlns="http://www.w3.org/2000/svg" width="12" height="14"><path fill="#283842" d="M.634 13.969h10.584a.696.696 0 00.699-.689V6.667a.691.691 0 00-.699-.686h-.674v-.964c0-1.295-.505-2.734-1.329-3.601A4.534 4.534 0 005.929-.01h-.006a4.545 4.545 0 00-3.286 1.423c-.823.867-1.329 2.306-1.329 3.6v.968H.634a.693.693 0 00-.699.686v6.612c0 .381.312.69.699.69zm2.328-8.952c0-.852.309-1.907.877-2.506v-.009a2.892 2.892 0 012.084-.921h.006c.777 0 1.536.34 2.085.921v.006l-.003.003c.571.599.876 1.654.876 2.506v.964H2.962v-.964z"/></svg>