<svg width="24" height="24" xmlns="http://www.w3.org/2000/svg"><path d="M14.784 6.878C13.925 6.225 12.956 6 11.728 6c-.931 0-1.728.19-2.36.616C8.439 7.25 8 8.316 8 10h2.4c0-.45-.044-.934.219-1.35.262-.416.628-.734 1.256-.734.638 0 .966.184 1.275.565.262.325.362.713.362 1.125 0 .357-.18.685-.396.982a2.076 2.076 0 01-.472.48s-1.297.773-1.753 1.504c-.341.544-.463 1.225-.491 2.04-.003.06.019.182.225.182h1.931c.181 0 .219-.138.222-.194.013-.297.05-.753.103-.925a1.73 1.73 0 01.616-.853l.647-.447c.584-.456 1.05-.828 1.256-1.122.353-.481.6-1.075.6-1.778 0-1.147-.422-1.994-1.216-2.597zm-3.221 9.16c-.81-.026-1.479.537-1.507 1.415-.025.881.61 1.46 1.422 1.485.844.025 1.497-.52 1.522-1.397.025-.879-.594-1.479-1.438-1.504z" fill="#1070AD"/></svg>