<svg width="24" height="24" xmlns="http://www.w3.org/2000/svg"><g transform="translate(5 5)" fill="#666" fill-rule="evenodd"><path d="M3.5 2.625h.036a.656.656 0 00.657-.656V.656A.656.656 0 003.536 0H3.5a.656.656 0 00-.656.656V1.97c0 .362.294.656.656.656zm6.781 0h.037a.656.656 0 00.656-.656V.656A.656.656 0 0010.318 0h-.037a.656.656 0 00-.656.656V1.97c0 .362.294.656.656.656z"/><path d="M12.25 1.75h-.62v.219c0 .723-.589 1.312-1.312 1.312h-.037A1.314 1.314 0 018.97 1.97v-.22H4.85v.219c0 .723-.589 1.312-1.313 1.312H3.5A1.314 1.314 0 012.187 1.97v-.22H1.75A1.75 1.75 0 000 3.5v8.75C0 13.216.784 14 1.75 14h10.5A1.75 1.75 0 0014 12.25V3.5a1.75 1.75 0 00-1.75-1.75zm.875 10.5a.876.876 0 01-.875.875H1.75a.876.876 0 01-.875-.875v-7h12.25v7z"/><circle cx="3.5" cy="7.438" r="1.076"/><circle cx="7" cy="7.438" r="1.076"/><circle cx="10.5" cy="7.438" r="1.076"/><circle cx="3.5" cy="10.938" r="1.076"/><circle cx="7" cy="10.938" r="1.076"/><circle cx="10.5" cy="10.938" r="1.076"/></g></svg>