<svg width="20" height="20" xmlns="http://www.w3.org/2000/svg"><path d="M18.766 10.576c-.993 1.004-2.226 2.248-3.676 3.229-1.704 1.15-3.365 1.708-5.079 1.708-3.876 0-6.11-2.284-8.697-4.932L1 10.257l.047-.047c1.812-1.868 3.13-3.004 4.416-3.811C6.989 5.446 8.434 5 10.011 5c3.905 0 6.843 2.816 8.97 5.266l.043.052-.258.258zm-8.755-4.074a3.76 3.76 0 00-3.754 3.755 3.76 3.76 0 003.754 3.754 3.76 3.76 0 003.755-3.754 3.76 3.76 0 00-3.755-3.755zm-.004 6.021a2.254 2.254 0 01-2.248-2.257 2.254 2.254 0 012.248-2.262 1.64 1.64 0 001.37 2.52c.324 0 .629-.094.883-.258a2.257 2.257 0 01-2.253 2.257z" fill="#FFF" fill-rule="evenodd"/></svg>