<svg xmlns="http://www.w3.org/2000/svg" width="54" height="54"><g fill="none" fill-rule="evenodd"><circle cx="27" cy="27" r="27" fill="#609948"/><path fill="#FFF" d="M22.756 36.178l-1.59 1.58a3.56 3.56 0 01-4.997 0 3.442 3.442 0 01-1.027-2.458c0-.93.365-1.802 1.027-2.46l5.852-5.806c1.215-1.2 3.496-2.97 5.159-1.321a1.945 1.945 0 002.752-.011 1.943 1.943 0 00-.01-2.754c-2.825-2.804-7.003-2.284-10.642 1.325l-5.852 5.805a7.314 7.314 0 00-2.178 5.224c0 1.974.774 3.825 2.178 5.218a7.407 7.407 0 005.24 2.151 7.412 7.412 0 005.243-2.15l1.593-1.58a1.945 1.945 0 00.009-2.752 1.952 1.952 0 00-2.757-.011zm17.737-22.554c-3.035-3.013-7.28-3.175-10.091-.387l-1.982 1.966a1.95 1.95 0 002.745 2.765l1.98-1.966c1.455-1.447 3.361-.846 4.605.387a3.436 3.436 0 011.029 2.46c0 .926-.365 1.8-1.026 2.456l-6.244 6.192c-2.858 2.835-4.196 1.505-4.768.936A1.947 1.947 0 0024 31.196c1.311 1.303 2.805 1.946 4.373 1.946 1.922 0 3.95-.967 5.877-2.88l6.244-6.194a7.316 7.316 0 002.176-5.222 7.302 7.302 0 00-2.176-5.222z"/><g transform="translate(38 38)"><circle cx="8" cy="8" r="8" fill="#71C700"/><rect width="7.273" height="1.455" x="4.364" y="7.273" fill="#FFF" rx=".727"/><path fill="#FFF" d="M8.727 5.09v5.82a.727.727 0 01-1.454 0V5.09a.727.727 0 111.454 0z"/></g></g></svg>