<svg xmlns="http://www.w3.org/2000/svg" width="16" height="16"><path fill="#283842" d="M12.9 4.81a.85.85 0 00-.121-.22l-2.9-3.335a.805.805 0 00-.232-.179A.676.676 0 009.318 1H3.785C3.356 1 3 1.385 3 1.87v12.188c0 .487.356.906.785.906h8.412c.43 0 .768-.419.768-.906V5.182a.939.939 0 00-.065-.371zm-8.24.343c0-.055.063-.077.119-.077h2.45c.055 0 .096.022.096.077v.392c0 .051-.038.113-.097.113h-2.45c-.055 0-.117-.062-.117-.113v-.392zm0 4.654c0-.054.063-.076.119-.076h4.228c.055 0 .083.022.083.076v.393c0 .05-.024.113-.083.113H4.779c-.056 0-.118-.062-.118-.113v-.393zm5.537 2.72c0 .051-.024.113-.083.113H4.78c-.056 0-.118-.062-.118-.113v-.392c0-.055.062-.077.118-.077h5.335c.056 0 .083.022.083.077v.392zm1.107-4.654c0 .05-.024.112-.083.112H4.78c-.056 0-.118-.061-.118-.112V7.48c0-.055.062-.076.118-.076h6.442c.056 0 .083.021.083.076v.393zm-1.622-2.76c-.194 0-.384-.19-.384-.411v-2.4l2.463 2.81h-2.08z"/></svg>