<svg xmlns="http://www.w3.org/2000/svg" preserveAspectRatio="xMidYMid" width="34" height="23"><defs><style>.cls-4{fill:#fff}.cls-10{fill:#ed5565}</style></defs><g id="uksvg"><path d="M3 0h28a3 3 0 013 3v17a3 3 0 01-3 3H3a3 3 0 01-3-3V3a3 3 0 013-3z" id="path-1" fill-rule="evenodd" fill="#4758a9"/><path id="rect-1" class="cls-4" d="M0 9h34v6H0z"/><path id="rect-2" class="cls-4" d="M14 0h6v23h-6z"/><path d="M1.789 21.44L32.937.848l.551.834L2.341 22.274l-.552-.834z" id="path-2" class="cls-4" fill-rule="evenodd"/><path d="M-.211 21.44L30.937.848l.551.834L.341 22.274l-.552-.834z" id="path-3" class="cls-4" fill-rule="evenodd"/><path d="M31.492 21.44L.344.848l-.551.834 31.148 20.592.551-.834z" id="path-4" class="cls-4" fill-rule="evenodd"/><path d="M33.492 21.44L2.344.848l-.551.834 31.148 20.592.551-.834z" id="path-5" class="cls-4" fill-rule="evenodd"/><path id="rect-3" class="cls-10" d="M15 0h4v23h-4z"/><path id="rect-4" class="cls-10" d="M0 10h34v4H0z"/><path d="M.789 21.44L31.937.848l.551.834L1.341 22.274l-.552-.834z" id="path-6" class="cls-10" fill-rule="evenodd"/><path d="M32.492 21.44L1.344.848l-.551.834 31.148 20.592.551-.834z" id="path-7" class="cls-10" fill-rule="evenodd"/></g></svg>