<svg width="20" height="20" xmlns="http://www.w3.org/2000/svg"><path d="M17.25 9.989c0-1.119.693-2.004 1.727-2.613a9.61 9.61 0 00-.738-1.788c-1.166.304-2.107-.15-2.903-.946-.792-.791-1.036-1.737-.731-2.902A9.356 9.356 0 0012.816 1c-.608 1.039-1.704 1.727-2.827 1.727C8.87 2.727 7.77 2.039 7.161 1a9.32 9.32 0 00-1.788.74c.304 1.165.06 2.105-.731 2.902-.791.791-1.737 1.25-2.898.946A9.11 9.11 0 001 7.376c1.039.609 1.732 1.494 1.732 2.613 0 1.118-.693 2.219-1.732 2.827.187.627.435 1.227.74 1.789 1.165-.306 2.105-.062 2.897.729.795.791 1.034 1.737.73 2.903a9.448 9.448 0 001.788.738c.609-1.039 1.709-1.727 2.828-1.727 1.12 0 2.219.688 2.829 1.727a9.435 9.435 0 001.787-.738c-.304-1.166-.061-2.107.73-2.903.791-.791 1.736-1.25 2.902-.946a9.528 9.528 0 00.74-1.787c-1.033-.609-1.721-1.494-1.721-2.612zm-7.261 4.602a4.603 4.603 0 110-9.204 4.603 4.603 0 010 9.204z" fill="#FFF" fill-rule="evenodd"/></svg>