<svg xmlns="http://www.w3.org/2000/svg" width="17" height="15"><path fill="#FFF" d="M15.643 8.499H1.355C.606 8.499 0 7.866 0 7.082c0-.783.606-1.416 1.355-1.416h14.288c.748 0 1.355.633 1.355 1.416 0 .784-.607 1.417-1.355 1.417zm0-5.666H1.355C.606 2.833 0 2.2 0 1.416 0 .633.606 0 1.355 0h14.288c.748 0 1.355.633 1.355 1.416 0 .784-.607 1.417-1.355 1.417zM1.355 11.332h14.288c.748 0 1.355.633 1.355 1.416 0 .784-.607 1.417-1.355 1.417H1.355C.606 14.165 0 13.532 0 12.748c0-.783.606-1.416 1.355-1.416z"/></svg>