<svg xmlns="http://www.w3.org/2000/svg" width="24" height="24"><path fill="#999" fill-rule="evenodd" d="M11.5 6a6.5 6.5 0 100 13 6.5 6.5 0 000-13zm.449 7.295a.273.273 0 01-.006.05.257.257 0 01-.005.04l-.012.039a.361.361 0 01-.017.046l-.002.008a.446.446 0 01-.034.06l-.003.003a.448.448 0 01-.047.057l-.014.014a.43.43 0 01-.048.04l-.015.01a.45.45 0 01-.068.037l-.015.005a.452.452 0 01-.163.032l-.017-.002a.452.452 0 01-.077-.008l-.023-.007a.456.456 0 01-.067-.023l-.008-.003-2.492-1.175a.45.45 0 01.383-.814l1.851.873v-3.88a.45.45 0 01.9 0v4.59l-.001.008z"/></svg>