<svg xmlns="http://www.w3.org/2000/svg" width="16" height="16"><path fill="#666" d="M13 11.092l3-3.532h-2.022a6.047 6.047 0 00-.734-2.44A6.014 6.014 0 009.088 2.1c-.022-.003-.047-.01-.07-.013-.015-.003-.027-.006-.043-.006A5.834 5.834 0 008 2h-.012c-2.841.006-5.22 2.008-5.835 4.691v.004c-.01.034-.015.069-.022.104l-.01.044c-.002.022-.008.044-.012.066l-.015.082-.006.035-.02.114v.006c-.03.199-.05.401-.059.603v.025l-.006.13c0 .05-.003.104-.003.158 0 .053 0 .104.003.157 0 .045.003.086.006.13v.028c.01.206.032.408.06.603v.007l.019.113.006.035.015.082c.004.022.01.044.013.066a.435.435 0 00.01.045c.006.034.015.069.021.1v.004C2.77 12.115 5.156 14.117 8 14.123a5.842 5.842 0 003.653-1.285l.234-.186-1.35-1.459-.193.146A3.842 3.842 0 018 12.103c-2.206 0-4-1.8-4-4.041C4 5.82 5.794 4.02 8 4.02c2.075 0 3.838 1.47 4.047 3.535H9.75L13 11.092z"/></svg>