<svg xmlns="http://www.w3.org/2000/svg" width="16" height="16"><g fill="#1070AD" fill-rule="evenodd"><path d="M14.67 14.648a1.114 1.114 0 01-1.593 0L9.91 11.44a5.552 5.552 0 01-3.217 1.023c-3.11 0-5.632-2.555-5.632-5.707 0-3.152 2.522-5.707 5.632-5.707s5.632 2.555 5.632 5.707a5.734 5.734 0 01-.86 3.03l3.204 3.248c.44.445.44 1.168 0 1.614zM6.694 2.898c-2.102 0-3.807 1.727-3.807 3.858 0 2.13 1.705 3.858 3.807 3.858 2.103 0 3.807-1.728 3.807-3.858S8.797 2.897 6.694 2.897z"/><path d="M8.534 7.668H7.415v1.134a.726.726 0 01-.721.73.726.726 0 01-.721-.73V7.668H4.854a.726.726 0 01-.721-.73c0-.405.323-.732.721-.732h1.119V5.073c0-.404.323-.731.721-.731.399 0 .721.327.721.73v1.134h1.119c.398 0 .721.327.721.731a.726.726 0 01-.721.731z"/></g></svg>