<svg width="24" height="24" xmlns="http://www.w3.org/2000/svg"><path d="M16.368 16.617a7.956 7.956 0 001.704-2.345c.601-1.24.917-2.659.917-4.102a9.452 9.452 0 00-.92-4.101c-.59-1.218-1.438-2.239-2.452-2.953a.64.64 0 00-.736 0c-1.014.714-1.862 1.735-2.452 2.953a9.452 9.452 0 00-.911 4.463 9.567 9.567 0 00-4.388-1.29c-1.357-.05-2.66.217-3.77.774a.633.633 0 00-.344.647c.159 1.226.668 2.45 1.472 3.54a9.52 9.52 0 003.21 2.729 9.566 9.566 0 004.071 1.113c.11.005.22.007.329.007 1.12 0 2.204-.22 3.154-.642a3.314 3.314 0 011.735 2.9v1.019c0 .35.285.634.637.634a.635.635 0 00.636-.634v-1.02a4.579 4.579 0 00-1.892-3.692zm-8.073-.805c-2.044-1.08-3.516-2.909-3.937-4.855 1.855-.745 4.202-.559 6.246.52.395.208.767.445 1.116.704a9.112 9.112 0 00.87 2.403l-.907-.478a.638.638 0 00-.861.263.633.633 0 00.264.857L13.69 16.6c-1.69.402-3.653.131-5.395-.788zm7.602-.54c0-1.302-.008-3.019-.009-3.304a.632.632 0 00-.637-.628h-.003a.631.631 0 00-.634.634c.005 1.005.009 2.33.009 3.322-1.155-1.298-1.839-3.156-1.839-5.126 0-2.303.934-4.454 2.465-5.735 1.53 1.28 2.464 3.432 2.464 5.735 0 1.957-.675 3.804-1.816 5.101z" stroke="#999" stroke-width=".2" fill="#999"/></svg>