<svg xmlns="http://www.w3.org/2000/svg" width="231" height="290"><g fill="none" fill-rule="evenodd"><g fill-rule="nonzero"><path fill="#DC8744" d="M197.333 130H16.668C7.463 130 0 137.502 0 146.756v126.488C0 282.498 7.463 290 16.668 290h180.665c9.204 0 16.667-7.502 16.667-16.756V146.756c0-9.254-7.462-16.756-16.667-16.756z"/><path fill="#3A556A" d="M157.812 78.889V120H186V78.889C186 35.39 150.56 0 107 0v28.148c28.02 0 50.812 22.761 50.812 50.74z"/><path fill="#64798A" d="M57.188 120V78.889c0-27.98 22.794-50.74 50.812-50.74V0C64.44 0 29 35.39 29 78.889V120h28.188z"/><path fill="#F6C358" d="M197.332 120H107v160h90.333c9.204 0 16.667-7.502 16.667-16.756V136.757c-.001-9.255-7.463-16.757-16.668-16.757z"/><path fill="#FCD462" d="M56.392 120H16.668C7.463 120 0 127.502 0 136.756v126.488C0 272.498 7.463 280 16.668 280H107V120H56.392z"/><path fill="#DC8744" d="M126 174.999c0-10.492-8.506-18.999-19-18.999-10.493 0-19 8.506-19 18.999 0 6.745 3.538 12.633 8.837 16.004L91.171 218h31.658l-5.666-26.997c5.299-3.372 8.837-9.259 8.837-16.004z"/></g><g transform="translate(154 21)"><circle cx="41" cy="36" r="36" fill="#1070AD"/><path d="M66.817 38.93L59.31 17.984a2.981 2.981 0 00-1.53-1.706 2.84 2.84 0 00-2.251-.089L18.923 30.168a2.963 2.963 0 00-1.652 1.58 3.107 3.107 0 00-.087 2.323l7.507 20.944a2.982 2.982 0 001.531 1.706 2.857 2.857 0 002.25.089l36.606-13.978c1.522-.581 2.302-2.332 1.739-3.903zm-13.3-18.732L42.162 36.952l-19.185-5.093 30.54-11.661zM26.92 52.48l-6.512-18.167 15.081 4.003-8.57 14.164zm3.189.465l8.37-13.835 3.937 1.045c.122.032.246.049.366.049.474 0 .927-.237 1.207-.649l2.33-3.44 15.079 4.882-31.29 11.948zm17.98-19.44l8.924-13.171 6.515 18.17-15.439-5zM17.913 54.962c-.265-.763-1.063-1.152-1.781-.87l-5.226 2.053c-.718.283-1.085 1.13-.82 1.893.208.594.737.962 1.301.962.16 0 .323-.03.481-.092l5.226-2.053c.718-.282 1.085-1.13.82-1.893zm-8-13.049a1.384 1.384 0 00-1.781-.826L4.906 42.29a1.401 1.401 0 00-.82 1.797 1.388 1.388 0 001.782.826l3.226-1.204a1.401 1.401 0 00.82-1.796zM4.916 52.99c-.257-.785-1.028-1.186-1.722-.895l-2.318.968c-.695.29-1.05 1.162-.792 1.947.2.612.712.99 1.257.99.155 0 .312-.03.465-.095l2.318-.968c.695-.29 1.05-1.162.792-1.947z" fill="#FFF" fill-rule="nonzero"/></g></g></svg>