<svg width="159" height="16" xmlns="http://www.w3.org/2000/svg"><g fill="#FFF" fill-rule="evenodd"><path d="M158.06 11.013l.914.407-2.034 4.567-.914-.407z"/><path opacity=".96" d="M158.094 1.445l.913.407-6.1 13.703-.914-.407z"/><path opacity=".92" d="M154.297.488l.914.407-6.508 14.617-.914-.407z"/><path opacity=".88" d="M150.297.488l.914.407-6.508 14.617-.914-.407z"/><path opacity=".84" d="M146.297.488l.914.407-6.508 14.617-.914-.407z"/><path opacity=".8" d="M142.297.488l.914.407-6.508 14.617-.914-.407z"/><path opacity=".76" d="M138.297.488l.914.407-6.508 14.617-.914-.407z"/><path opacity=".72" d="M134.297.488l.914.407-6.508 14.617-.914-.407z"/><path opacity=".68" d="M130.297.488l.914.407-6.508 14.617-.914-.407z"/><path opacity=".64" d="M126.297.488l.914.407-6.508 14.617-.914-.407z"/><path opacity=".6" d="M122.297.488l.914.407-6.508 14.617-.914-.407z"/><path opacity=".56" d="M118.297.488l.914.407-6.508 14.617-.914-.407z"/><path opacity=".52" d="M114.297.488l.914.407-6.508 14.617-.914-.407z"/><path opacity=".48" d="M110.297.488l.914.407-6.508 14.617-.914-.407z"/><path opacity=".44" d="M106.297.488l.914.407-6.508 14.617-.914-.407z"/><path opacity=".4" d="M102.297.488l.914.407-6.508 14.617-.914-.407z"/><path opacity=".36" d="M98.297.488l.914.407-6.508 14.617-.914-.407z"/><path opacity=".32" d="M94.297.488l.914.407-6.508 14.617-.914-.407z"/><path opacity=".28" d="M90.297.488l.914.407-6.508 14.617-.914-.407z"/><path opacity=".24" d="M86.297.488l.914.407-6.508 14.617-.914-.407z"/><path opacity=".2" d="M82.297.488l.914.407-6.508 14.617-.914-.407z"/><path opacity=".16" d="M78.297.488l.914.407-6.508 14.617-.914-.407z"/><path opacity=".12" d="M74.297.488l.914.407-6.508 14.617-.914-.407z"/><path opacity=".08" d="M70.297.488l.914.407-6.508 14.617-.914-.407z"/><path opacity=".04" d="M66.297.488l.914.407-6.508 14.617-.914-.407z"/></g></svg>