<svg xmlns="http://www.w3.org/2000/svg" width="231" height="290"><g fill="none"><path fill="#DC8744" d="M197.333 130H16.668C7.463 130 0 137.502 0 146.756v126.488C0 282.498 7.463 290 16.668 290h180.665c9.204 0 16.667-7.502 16.667-16.756V146.756c0-9.254-7.462-16.756-16.667-16.756z"/><path fill="#3A556A" d="M157.812 78.889V120H186V78.889C186 35.39 150.56 0 107 0v28.148c28.02 0 50.812 22.761 50.812 50.74z"/><path fill="#64798A" d="M57.188 120V78.889c0-27.98 22.794-50.74 50.812-50.74V0C64.44 0 29 35.39 29 78.889V120h28.188z"/><path fill="#F6C358" d="M197.332 120H107v160h90.333c9.204 0 16.667-7.502 16.667-16.756V136.757c-.001-9.255-7.463-16.757-16.668-16.757z"/><path fill="#FCD462" d="M56.392 120H16.668C7.463 120 0 127.502 0 136.756v126.488C0 272.498 7.463 280 16.668 280H107V120H56.392z"/><path fill="#DC8744" d="M126 174.999c0-10.492-8.506-18.999-19-18.999-10.493 0-19 8.506-19 18.999 0 6.745 3.538 12.633 8.837 16.004L91.171 218h31.658l-5.666-26.997c5.299-3.372 8.837-9.259 8.837-16.004z"/><path fill="#1070AD" d="M159 56.976C159 37.106 175.107 21 194.975 21c19.87 0 35.976 16.105 35.976 35.976 0 19.868-16.106 35.975-35.976 35.975-19.868 0-35.975-16.108-35.975-35.975z"/><path d="M218.81 61.94l-6.486-10.12c-.443-.692-1.402-.68-1.841.006l-6.486 10.12c-.282.44-.19.865.072 1.16.166.256.444.439.842.439h4.427c.038 2.743-.336 5.616-3.547 5.832-2.116.142-4.29 0-6.408 0h-11.25c-2.708 0-5.656.576-7.551-1.765-1.726-2.132-4.71.913-2.997 3.03 2.551 3.152 6.005 2.996 9.629 2.996h13.146c3.148 0 6.428.394 9.322-1.058 3.509-1.76 3.873-5.503 3.863-9.035h4.34c.785 0 1.372-.91.926-1.605zm-6.804-19.412c-2.551-3.153-6.004-2.997-9.628-2.997h-13.146c-3.148 0-6.428-.395-9.323 1.058-3.508 1.76-3.872 5.503-3.863 9.034h-4.292c-.785 0-1.372.91-.926 1.605l6.487 10.12c.442.691 1.401.68 1.84-.007l6.487-10.12c.282-.44.19-.864-.072-1.16-.166-.255-.444-.438-.843-.438h-4.474c-.038-2.743.335-5.616 3.547-5.832 2.116-.143 4.29 0 6.408 0h11.25c2.708 0 5.656-.577 7.551 1.764 1.726 2.133 4.71-.912 2.997-3.027z" fill="#FFF"/></g></svg>