<svg width="16" height="16" xmlns="http://www.w3.org/2000/svg"><g fill="#FFF"><path d="M8 4C5.44 4 3.447 5.525 1 8c2.106 2.116 3.875 4 7 4 3.122 0 5.419-2.388 7-3.956C13.381 6.206 11.088 4 8 4zm0 6.853c-1.544 0-2.8-1.281-2.8-2.853 0-1.575 1.256-2.853 2.8-2.853 1.544 0 2.8 1.281 2.8 2.853 0 1.575-1.256 2.853-2.8 2.853z"/><path d="M8 7c0-.247.09-.472.237-.647A1.491 1.491 0 008 6.334c-.9 0-1.634.747-1.634 1.666 0 .919.734 1.666 1.634 1.666.9 0 1.634-.747 1.634-1.666 0-.072-.006-.144-.012-.216A1 1 0 018 7z"/></g></svg>