<svg xmlns="http://www.w3.org/2000/svg" width="16" height="16"><defs><linearGradient id="a" x1="50%" x2="50%" y1="0%" y2="100%"><stop offset="0%" stop-color="#35B8F1"/><stop offset="100%" stop-color="#28A8EA"/></linearGradient><linearGradient id="b" x1="17.372%" x2="82.628%" y1="-6.51%" y2="106.51%"><stop offset="0%" stop-color="#1784D9"/><stop offset="50%" stop-color="#107AD5"/><stop offset="100%" stop-color="#0A63C9"/></linearGradient></defs><g fill="none"><path fill="#0A2767" d="M15.259 8.452c0-.12-.06-.23-.162-.293h-.002l-.007-.003-5.287-3.13a.704.704 0 00-.793 0l-5.287 3.13-.007.003a.346.346 0 00.008.59l5.288 3.13a.714.714 0 00.792 0l5.288-3.13a.34.34 0 00.169-.297z"/><path fill="#0364B8" d="M4.337 6.362h3.47v3.18h-3.47v-3.18zM14.55 3.13V1.674A.66.66 0 0013.906 1H4.902a.66.66 0 00-.644.674V3.13l5.323 1.42 4.968-1.42z"/><path fill="#0078D4" d="M4.258 3.129h3.549v3.194H4.258z"/><path fill="#28A8EA" d="M11.356 3.129H7.807v3.194l3.549 3.194h3.193V6.323z"/><path fill="#0078D4" d="M7.807 6.323h3.549v3.194H7.807z"/><path fill="#0364B8" d="M7.807 9.517h3.549v3.193H7.807z"/><path fill="#14447D" d="M4.337 9.543h3.47v2.891h-3.47z"/><path fill="#0078D4" d="M11.356 9.517h3.193v3.193h-3.193z"/><path fill="url(#a)" d="M15.097 7.73l-.007.003-5.288 2.974c-.023.014-.046.028-.07.04a.717.717 0 01-.287.07l-.29-.168a.97.97 0 01-.07-.04L3.726 7.55h-.002l-.175-.098v6.02c.002.402.33.725.732.722h10.257l.018-.002a.906.906 0 00.248-.052.729.729 0 00.1-.052c.024-.013.065-.043.065-.043a.712.712 0 00.29-.573v-6.02a.32.32 0 01-.162.278z" transform="translate(0 1)"/><path fill="#0A2767" d="M14.975 8.428v.37l-5.529 3.806-5.724-4.051c0-.002-.001-.004-.003-.004l-.525-.316v-.266l.216-.004.458.263.01.004.04.024 5.394 3.077.205.12.057-.02c.01-.008 5.34-3.006 5.34-3.006l.061.003z" opacity=".5"/><path fill="#1490DF" d="M15.097 8.73l-.007.004-5.288 2.974-.07.04c-.206.1-.446.1-.651 0l-.071-.04-5.288-2.974-.006-.004a.32.32 0 01-.167-.278v6.02c.002.402.33.725.731.722h10.247c.402.003.73-.32.732-.722v-6.02a.32.32 0 01-.162.278z"/><path fill="#000" d="M9.88 11.664l-.08.044a.7.7 0 01-.35.114l2.012 2.379 3.51.845a.732.732 0 00.222-.277l-5.315-3.105z" opacity=".1"/><path fill="#000" d="M10.238 11.462l-.438.246a.7.7 0 01-.35.114l.943 2.598 4.58.625a.716.716 0 00.286-.573v-.078l-5.021-2.932z" opacity=".05"/><path fill="#28A8EA" d="M4.29 15.194h10.236a.733.733 0 00.438-.142L9.155 11.65c-.024-.013-.048-.026-.07-.041L3.725 8.55h-.002l-.175-.099v6c0 .41.331.742.741.742z"/><path fill="#000" d="M8.517 4.49v7.569a.654.654 0 01-.65.653H3.55V4.193h.71v-.355h3.608a.652.652 0 01.65.65z" opacity=".1"/><path fill="#000" d="M8.162 4.844v7.57c0 .085-.017.17-.053.248a.646.646 0 01-.597.403H3.55V4.194h3.963a.596.596 0 01.295.074c.217.11.355.333.355.576z" opacity=".2"/><path fill="#000" d="M8.162 4.844v6.86a.656.656 0 01-.65.652H3.55V4.194h3.963a.596.596 0 01.295.074c.217.11.355.333.355.576z" opacity=".2"/><path fill="#000" d="M7.807 4.844v6.86c0 .359-.29.65-.65.652H3.55V4.194h3.609a.65.65 0 01.649.65z" opacity=".2"/><path fill="url(#b)" d="M.65 3.194h6.506c.36 0 .65.291.65.65v6.506c0 .36-.29.65-.65.65H.65a.65.65 0 01-.65-.65V3.844a.65.65 0 01.65-.65z" transform="translate(0 1)"/><path fill="#FFF" d="M2.033 6.922c.16-.342.42-.627.743-.82a2.24 2.24 0 011.18-.297 2.1 2.1 0 011.093.28c.312.187.563.46.723.785.174.36.261.754.254 1.153a2.68 2.68 0 01-.261 1.207 1.92 1.92 0 01-.745.811 2.179 2.179 0 01-1.134.289c-.391.01-.777-.09-1.117-.284a1.913 1.913 0 01-.732-.786 2.474 2.474 0 01-.256-1.14 2.736 2.736 0 01.252-1.198zm.792 1.927c.086.216.23.403.418.54.191.133.42.202.653.197.248.01.493-.062.697-.203.185-.137.326-.325.406-.54.089-.242.133-.497.13-.754.002-.26-.04-.517-.123-.763a1.2 1.2 0 00-.393-.563 1.084 1.084 0 00-.69-.213 1.13 1.13 0 00-.669.199c-.19.137-.338.326-.426.544a2.166 2.166 0 00-.003 1.557v-.001z"/><path fill="#50D9FF" d="M11.356 3.129h3.193v3.194h-3.193z"/></g></svg>