<svg xmlns="http://www.w3.org/2000/svg" width="20" height="20"><g fill="#FFF" fill-rule="evenodd"><path d="M2.527 5.706c.433.198 6.443 3.041 6.667 3.144.224.102.452.15.806.15.354 0 .582-.048.806-.15.224-.103 6.234-2.946 6.667-3.144.161-.071.433-.2.492-.348C18.067 5.1 17.957 5 17.52 5H2.48c-.437 0-.547.102-.445.358.06.15.33.277.492.348z"/><path d="M17.68 6.067c-.315.163-3.146 2.19-5.019 3.41l3.162 3.58c.077.077.111.17.069.217-.046.042-.146.02-.227-.054L11.873 10c-.573.371-.977.626-1.046.665-.296.151-.504.17-.789.17-.284 0-.492-.019-.788-.17A35.914 35.914 0 018.204 10L4.41 13.22c-.076.078-.18.101-.226.055-.047-.043-.012-.14.065-.217l3.158-3.58c-1.873-1.22-4.735-3.247-5.05-3.41-.339-.174-.358.031-.358.19v7.934c0 .36.527.809.904.809h14.269c.377 0 .827-.453.827-.809V6.257c0-.163.023-.364-.32-.19z"/></g></svg>