<svg width="16" height="16" xmlns="http://www.w3.org/2000/svg"><g fill="#686868"><path d="M8 5.009l3.886 3.918a.246.246 0 00.353-.004l.683-.701c.098-.1.1-.265.004-.363L8.181 3.073A.227.227 0 008 3.003a.24.24 0 00-.18.07L3.07 7.859a.263.263 0 00.005.363l.683.7a.245.245 0 00.353.005L8 5.01z"/><path d="M8 9.009l3.886 3.918a.246.246 0 00.353-.004l.683-.701c.098-.1.1-.265.004-.363L8.181 7.073A.227.227 0 008 7.003a.24.24 0 00-.18.07l-4.75 4.786a.263.263 0 00.005.363l.683.7a.245.245 0 00.353.005L8 9.01z"/></g></svg>