<svg width="120" height="24" xmlns="http://www.w3.org/2000/svg"><g fill="#FFF" fill-rule="evenodd"><path d="M100.065 13.174c0 1.685-.819 3.213-2.906 3.213-2.219 0-2.324-2.318-2.324-3.713v-6.4h-3.17v7.98c0 2.58 1.215 4.976 4.623 4.976 2.113 0 3.302-1.08 3.883-2.343h.053v2.027h3.012V6.274h-3.17v6.9zm13.393-7.216c-1.77 0-3.434.685-4.359 2.213h-.053V6.274h-3.011v17.502h3.17v-6.468h.079c.66.817 1.928 1.923 4.306 1.923 3.62 0 6.129-2.897 6.129-6.636 0-3.74-2.351-6.637-6.261-6.637zm-.634 10.429c-2.325 0-3.725-1.817-3.725-3.792 0-1.975 1.4-3.792 3.725-3.792 2.324 0 3.725 1.817 3.725 3.792 0 1.975-1.4 3.792-3.725 3.792zM36.537 2.614h-3.17v3.66h-2.615V8.96h2.615v5.794c0 2.976.793 4.476 4.148 4.476.74 0 1.85-.105 2.51-.42v-2.66c-.397.29-1.163.395-1.717.395-1.4 0-1.77-.79-1.77-2.055V8.96h3.487V6.274h-3.487v-3.66zm11.438 3.344c-3.83 0-6.895 2.66-6.895 6.637 0 3.976 3.065 6.636 6.895 6.636 2.008 0 3.884-.711 5.363-2.529l-2.272-1.711c-.792.974-1.823 1.711-3.408 1.711-1.77 0-3.196-1.132-3.407-3.001h9.668v-.87c0-4.397-2.404-6.873-5.944-6.873zm-3.724 5.372c.237-1.817 1.4-3.002 3.275-3.002 1.982 0 3.197 1.159 3.223 3.002h-6.498zm17.195-5.372c-2.007 0-3.989.606-5.389 2.028l1.665 1.659a4.995 4.995 0 013.38-1.317c1.692 0 2.907.817 2.907 2.37v.342h-.792c-3.17 0-7.978.29-7.978 4.398 0 2.502 2.272 3.792 4.623 3.792 1.69 0 3.17-.632 4.068-2.054h.079v1.738h2.854v-7.268c0-1.79 0-5.688-5.417-5.688zm2.378 8.006c0 1.764-1.03 2.897-3.196 2.897-1.03 0-2.22-.5-2.22-1.66 0-1.817 3.013-1.948 4.756-1.948h.66v.71zM84.43 5.958c-1.903 0-3.25.738-4.174 2.344-.661-1.58-2.008-2.344-3.963-2.344-2.114 0-3.329 1.106-3.883 2.292h-.054V6.274h-3.011v12.64h3.17v-6.899c0-1.685.82-3.213 2.906-3.213 1.532 0 2.166 1.027 2.166 2.58v7.532h3.17v-6.846c0-1.633.74-3.265 2.722-3.265 1.875 0 2.35 1.37 2.35 2.949v7.162h3.17v-7.531c0-3.028-1.188-5.425-4.57-5.425z"/><ellipse cx="3.21" cy="3.161" rx="2.848" ry="2.839" transform="translate(8.408 8.381)"/><ellipse cx="3.21" cy="2.915" rx="2.848" ry="2.839" transform="translate(8.408 17.143)"/><ellipse cx="3.074" cy="3.161" rx="2.848" ry="2.839" transform="translate(0 8.381)"/><ellipse cx="3.074" cy="2.915" rx="2.848" ry="2.839" transform="translate(0 17.143)"/><ellipse cx="2.964" cy="3.161" rx="2.848" ry="2.839" transform="translate(17.197 8.381)"/><path d="M20.336.29H2.9c-.739 0-1.37.26-1.892.78a2.565 2.565 0 00-.783 1.887v.206c0 .736.261 1.365.783 1.885.523.52 1.153.781 1.892.781h17.436a2.67 2.67 0 002.675-2.666v-.206A2.67 2.67 0 0020.336.29z"/><ellipse cx="2.964" cy="2.915" rx="2.848" ry="2.839" transform="translate(17.197 17.143)"/></g></svg>