<svg width="16" height="16" xmlns="http://www.w3.org/2000/svg"><g fill="#686868"><path d="M8 10.991L4.114 7.073a.246.246 0 00-.353.004l-.683.701c-.098.1-.1.265-.004.363l4.745 4.786c.05.052.116.075.181.07a.24.24 0 00.18-.07l4.749-4.786a.263.263 0 00-.005-.363l-.683-.7a.246.246 0 00-.353-.005L8 10.99z"/><path d="M8 6.991L4.114 3.073a.246.246 0 00-.353.004l-.683.701c-.098.1-.1.265-.004.363l4.745 4.786c.05.052.116.075.181.07a.24.24 0 00.18-.07l4.749-4.786a.263.263 0 00-.005-.363l-.683-.7a.246.246 0 00-.353-.005L8 6.99z"/></g></svg>