<svg width="16" height="16" xmlns="http://www.w3.org/2000/svg"><g stroke="#7F848C" fill="#7F848C"><path d="M8 3a5 5 0 100 10A5 5 0 008 3zm3.283 8.283A4.63 4.63 0 018 12.643a4.629 4.629 0 01-3.283-1.36 4.653 4.653 0 01-.996-1.475A4.638 4.638 0 013.357 8a4.629 4.629 0 011.36-3.283 4.653 4.653 0 011.475-.996A4.638 4.638 0 018 3.357a4.629 4.629 0 013.283 1.36c.427.426.762.924.996 1.475A4.63 4.63 0 0112.643 8c0 .627-.123 1.234-.364 1.808a4.653 4.653 0 01-.996 1.475z"/><path d="M8.31 7.821a.36.36 0 00-.299-.178l-.848-1.415a.178.178 0 00-.246-.06.178.178 0 00-.06.245l.84 1.404a.36.36 0 00-.005.364.35.35 0 00.132.13v2.725c0 .098.08.178.178.178a.18.18 0 00.179-.178V8.31a.36.36 0 00.13-.489z"/></g></svg>