<svg xmlns="http://www.w3.org/2000/svg" width="16" height="16"><g fill="#1070AD"><path d="M6.017 8.148v-.547a4.875 4.875 0 01-.868-.748 10.848 10.848 0 01-1.606 1.27l-.071.043-.429-.679.07-.044c.009-.006.767-.482 1.532-1.225a7.199 7.199 0 01-.983-2.082l-.02-.078.783-.199.019.079c.002.009.225.827.767 1.67.537-.646.85-1.269.929-1.855H2.85v-.871h1.814v-.485h.845v.484h1.813v.872h-.365c-.085.815-.503 1.66-1.246 2.514.1.11.202.212.306.31v-.411a.53.53 0 01.532-.527h2.367V1.493a.132.132 0 00-.133-.132h-7.65A.132.132 0 001 1.493V9.07c0 .073.06.131.133.131h4.884V8.148zm4.37.232h-.015c-.073.288-.145.654-.226.934l-.29 1.029h1.081l-.303-1.03c-.088-.287-.175-.646-.247-.933z"/><path d="M14.258 6.062h-7.65a.132.132 0 00-.132.132v7.577c0 .073.06.131.133.131h7.649a.131.131 0 00.133-.13V6.193a.132.132 0 00-.133-.132zm-2.782 6.343l-.378-1.244h-1.4l-.35 1.244H8.202l1.495-4.844h1.451l1.517 4.844h-1.19zM4.443 9.533H3.38v1.75l.88.864h1.978v-1.053H4.443z"/></g></svg>