<svg width="116" height="98pt" viewBox="0 0 87 98" xmlns="http://www.w3.org/2000/svg"><g fill="#283842"><path d="M37.02 5.93c2.12-2.06 3.26-6 6.93-5.56 3.54.12 4.21 4.18 6.65 5.96 6.36 4.99 12.63 10.08 18.94 15.13 1.91 1.46 3.72 3.69 6.42 3.26 4-.14 9.39-.75 11.04 3.98v66.06c-1.2.8-2.23 1.83-3.15 2.94l.21.3H3.55C2.4 96.67 1.18 95.4 0 94.1V29.65c.65-2.05 1.82-4.21 4.1-4.72 3.14-.48 6.33-.17 9.49-.23 7.8-6.27 15.63-12.5 23.43-18.77m6.25-1.85c-3.15.37-.2 5.24 1.5 2.75 1.73-.83-.2-3-1.5-2.75m-23.99 20.6c16.17.04 32.34.03 48.51.01-6.54-5.31-13.13-10.55-19.71-15.8-2.36 2.73-6.62 2.66-9 0-6.6 5.27-13.15 10.58-19.8 15.79M3.84 29.77c-.22 4.12-.01 8.25-.07 12.38 26.56.01 53.12 0 79.68 0-.17-4.38.41-8.83-.28-13.16-.3-.15-.89-.44-1.19-.58-25.01-.2-50.04-.01-75.05-.1-1.05.07-3.12-.15-3.09 1.46m-.08 15.88c.02 15.51-.03 31.01.03 46.51-.33 1.81 1.94 2.19 3.24 2.02 25.02-.1 50.05.1 75.06-.1.32-.25.96-.76 1.28-1.02.22-15.8.02-31.61.1-47.41-26.57-.01-53.14-.02-79.71 0z"/><path d="M42.32 53.14c1.33-2.2 4.74 1.19 2.34 2.52-1.16 1.86-4.35-1.45-2.34-2.52zm9.61 1.84c.04-1.92 2.57-3.77 3.73-1.45.97 2.49-2.43 3.44-3.73 1.45zm11.01-2.07c1.9-1.43 4.46.92 2.68 2.73-1.75 1.67-3.99-.96-2.68-2.73zm10.4.34c1.3-2.36 4.89.88 2.63 2.34-1.31 1.94-3.98-.82-2.63-2.34zM11.31 63.33c1.2-1.83 4.35 1.36 2.4 2.46-1.34 2.4-4.88-1.2-2.4-2.46zm10.77-.3c1.83-.77 3.59 1.78 1.89 2.93-1.74 2.24-4.66-2.16-1.89-2.93zm10.14.19c1.11-1.65 4.13 1.37 2.41 2.43-1.39 2.75-4.97-1.18-2.41-2.43zm10.19.09c1.76-1.58 4 1.05 2.6 2.8-1.9 1.41-4.57-1.09-2.6-2.8zm10.73-.16c1.72-1.63 4.03 2.18 1.77 3.03-1.79 1.72-4.07-2.26-1.77-3.03zm10.04.13c1.63-1.29 4.3 1.16 2.48 2.54-1.41 2.16-4.49-.93-2.48-2.54zm10.28.1c1.73-1.75 4.32.91 2.68 2.74-1.84 1.46-4.28-1.03-2.68-2.74zm-51.14 9.85c2.42-.52 3.29 3.5.62 3.68-2.22.15-2.59-3.05-.62-3.68zm10.03.22c2.1-1.4 3.94 2.74 1.49 3.28-2.09 1-3.5-2.31-1.49-3.28zm20.99-.05c2.41-1.32 3.64 3.76.68 3.4-2.03.53-2.48-2.97-.68-3.4zm20.99-.18c2.39-.64 3.26 3.72.63 3.59-2.28.54-2.6-3.08-.63-3.59zm-63.38.62c1.32-1.79 4.5.47 2.97 2.14-.94 2.22-4.9-.12-2.97-2.14zm31.23.14c1.07-2.05 4.45.33 2.94 2.03-1.04 2.18-4.89-.2-2.94-2.03zm20.77-.09c1.26-1.93 4.46.5 2.92 2.12-.93 2.18-4.78-.16-2.92-2.12zM11.07 84.26c1.33-1.94 4.55.92 2.66 2.39-1.36 2.01-4.64-.87-2.66-2.39zm10.35.17c1.44-2.31 4.77.9 2.54 2.46-1.33 1.65-4.3-1.3-2.54-2.46zm10.53-.31c1.95-1.9 4.75 2.05 1.97 2.92-1.61 1.36-3.72-1.79-1.97-2.92zm10.35.15c1.44-2 4.63 1.15 2.47 2.49-1.38 1.74-4.34-1.01-2.47-2.49z"/></g></svg>