<svg width="16" height="16" xmlns="http://www.w3.org/2000/svg" xmlns:xlink="http://www.w3.org/1999/xlink"><defs><path d="M7.003 0C3.135 0 0 1.12 0 2.5c0 .265.117.52.33.76H.328C1.327 4.475 5 8.78 5 10v2.719C5 13.428 5.903 14 7 14c1.098 0 2-.572 2-1.281V10c0-1.219 3.625-5.455 4.72-6.81.187-.22.28-.45.28-.69C14 1.12 10.87 0 7.003 0zm.003 4c-2.877 0-5.504-.688-5.504-1.5 0-.813 2.596-1.5 5.504-1.5 2.908 0 5.503.7 5.503 1.5S9.883 4 7.006 4z" id="a"/></defs><g fill="none" fill-rule="evenodd"><g transform="translate(1 1)"><mask id="b" fill="#fff"><use xlink:href="#a"/></mask><use fill="#259CD4" xlink:href="#a"/><path d="M6.505 14.495a1.502 1.502 0 01.001-2.123l5.876-5.875a1.498 1.498 0 012.123-.002 1.502 1.502 0 01-.002 2.123l-5.875 5.876a1.498 1.498 0 01-2.123.001z" fill="#FFF" mask="url(#b)"/><rect fill="#FFF" mask="url(#b)" transform="rotate(45 10.505 10.495)" x="4.848" y="8.995" width="11.314" height="3" rx="1.5"/></g><path d="M14.807 13.88l-2.38-2.38 2.38-2.38a.653.653 0 000-.927.653.653 0 00-.927 0l-2.38 2.38-2.38-2.38a.653.653 0 00-.927 0 .653.653 0 000 .927l2.38 2.38-2.38 2.38a.653.653 0 000 .927c.256.257.67.257.927 0l2.38-2.38 2.38 2.38a.657.657 0 00.928-.927z" fill="#CC041D"/></g></svg>