<svg xmlns="http://www.w3.org/2000/svg" width="16" height="16"><path d="M10.898 3.167v-.982c0-.647-.495-1.185-1.176-1.185H6.275c-.678 0-1.173.538-1.173 1.185v.982H2V4.25h.314s.184.02.28.115c.095.095.132.305.132.305l.648 8.182C3.425 13.848 3.425 14 4.6 14h6.8c1.176 0 1.176-.149 1.227-1.144l.648-8.18s.037-.213.133-.308c.095-.094.28-.115.28-.115H14V3.17h-3.102v-.003zm-5.08-.982c0-.325.266-.508.604-.508h3.126c.337 0 .634.186.634.508v.982H5.818v-.982zm-.29 9.648l-.35-6.5h.691l.358 6.5h-.699zm2.85 0h-.75v-6.5h.75v6.5zm2.1 0h-.695l.358-6.5h.692l-.355 6.5z" fill="#676d71" fill-rule="evenodd"/></svg>