<svg xmlns="http://www.w3.org/2000/svg" width="248" height="248"><g fill="none" fill-rule="evenodd"><circle cx="124" cy="124" r="124" fill="#556080"/><g fill="#FFF" transform="translate(42 44)"><ellipse cx="82.52" cy="46.456" rx="46.406" ry="46.301"/><path d="M82.5 188.447c-33.327 0-64.242-15.43-82.5-41.157 8.301-11.697 19.473-21.54 32.568-28.651 15.068-8.181 32.333-12.506 49.931-12.506s34.863 4.325 49.931 12.506c13.096 7.111 24.269 16.956 32.57 28.651-18.235 25.693-49.135 41.157-82.5 41.157z"/></g><g transform="translate(176)"><circle cx="36" cy="36" r="36" fill="#D0011B"/><path fill="#FFF" d="M50.173 46.2L39.975 35.998 50.173 25.8a2.8 2.8 0 000-3.973 2.8 2.8 0 00-3.973 0L35.998 32.025 25.8 21.827a2.8 2.8 0 00-3.973 0 2.8 2.8 0 000 3.973l10.198 10.198L21.827 46.2a2.8 2.8 0 000 3.973 2.8 2.8 0 003.973 0l10.198-10.198 10.2 10.198a2.8 2.8 0 003.972 0 2.814 2.814 0 00.003-3.973z"/></g></g></svg>