<svg xmlns="http://www.w3.org/2000/svg" width="54" height="54"><g fill="none" fill-rule="evenodd"><rect width="54" height="54" fill="#C8CBD0" rx="6"/><path d="M35.777 27.771h3.75v8.979h-3.75zm-7.101 0h3.75v8.979h-3.75zm-7.102 0h3.75v8.979h-3.75zm-7.1 0h3.75v8.979h-3.75zm26.303-2.812v-.938H13.224v.938c0 .518.42.937.937.937H39.84c.518 0 .938-.42.938-.937zm1.285 13.666H11.938a.937.937 0 00-.937.938v2.5c0 .517.42.937.937.937h30.124c.518 0 .938-.42.938-.938v-2.5a.937.937 0 00-.938-.937zM11.938 22.146h30.124a.938.938 0 00.492-1.735l-15.063-9.272a.937.937 0 00-.982 0l-15.063 9.272a.937.937 0 00.491 1.735zm14.425-5.632h1.274a.937.937 0 110 1.875h-1.274a.937.937 0 110-1.875z" fill="#FFF" fill-rule="nonzero"/></g></svg>