<svg width="16" height="16" xmlns="http://www.w3.org/2000/svg"><g fill="none" fill-rule="evenodd"><path d="M1.459 0h10.748v16H1.459A1.459 1.459 0 010 14.541V1.459C0 .653.653 0 1.459 0z" fill="#4285F4"/><path fill="#FFF" d="M3.793 3.793h8.413v8.413H3.793z"/><path fill="#FBBC04" d="M12.207 3.745H16v8.462h-3.793z"/><path fill="#EA4335" d="M12.207 12.207H16L12.207 16z"/><path d="M0 12.207h3.793V16H1.46A1.459 1.459 0 010 14.541v-2.334z" fill="#188308"/><path d="M16 3.793h-3.793V0h2.334C15.347 0 16 .653 16 1.459v2.334z" fill="#1967D2"/><path fill="#34A853" d="M3.793 12.207h8.413V16H3.793z"/><path d="M6.492 10.719c.248 0 .477-.038.686-.114.21-.075.39-.18.544-.313a1.443 1.443 0 00.492-1.09 1.296 1.296 0 00-.244-.767 1.257 1.257 0 00-.267-.266 1.642 1.642 0 00-.32-.186v-.044a1.48 1.48 0 00.24-.16 1.132 1.132 0 00.361-.54c.037-.117.055-.246.055-.387a1.252 1.252 0 00-.445-.97 1.541 1.541 0 00-.503-.284 1.932 1.932 0 00-.642-.103c-.229 0-.43.033-.602.099a1.63 1.63 0 00-.449.252 1.522 1.522 0 00-.314.339 1.528 1.528 0 00-.182.36l.744.315c.025-.073.057-.145.099-.216a.842.842 0 01.157-.193.699.699 0 01.23-.139.895.895 0 01.317-.05c.218 0 .4.057.543.17a.569.569 0 01.215.471.7.7 0 01-.065.31.604.604 0 01-.183.223.886.886 0 01-.266.135 1.09 1.09 0 01-.325.047h-.386v.752h.43c.136 0 .264.02.383.058.12.039.223.092.31.16a.762.762 0 01.208.248.68.68 0 01.077.321.685.685 0 01-.073.318.808.808 0 01-.197.248.908.908 0 01-.288.164c-.11.039-.223.058-.34.058a.89.89 0 01-.598-.211c-.165-.141-.282-.343-.35-.606l-.759.314a1.717 1.717 0 001.182 1.204c.175.048.35.073.525.073zm4.275-.117v-4.99h-.576L8.737 6.644l.454.632.766-.55v3.876h.81z" fill="#4285F4" fill-rule="nonzero"/></g></svg>