<svg width="16" height="16" xmlns="http://www.w3.org/2000/svg"><path d="M13.734 1H2.266C1.567 1 1 1.567 1 2.266v11.468C1 14.433 1.567 15 2.266 15h11.468c.699 0 1.266-.567 1.266-1.266V2.266C15 1.567 14.433 1 13.734 1zM5.332 13.089a.369.369 0 01-.368.368h-1.57a.369.369 0 01-.368-.368V6.512c0-.203.165-.368.369-.368h1.569c.203 0 .368.165.368.368v6.577zM4.18 5.524a1.49 1.49 0 110-2.981 1.49 1.49 0 010 2.98zm9.352 7.594a.339.339 0 01-.34.34h-1.683a.339.339 0 01-.338-.34v-3.084c0-.46.135-2.017-1.203-2.017-1.038 0-1.248 1.065-1.29 1.543v3.558a.339.339 0 01-.34.34H6.71a.339.339 0 01-.34-.34V6.482a.34.34 0 01.34-.338h1.628c.187 0 .339.151.339.338v.574c.385-.577.956-1.023 2.174-1.023 2.695 0 2.68 2.519 2.68 3.902v3.183z" fill="#0077B7"/></svg>