<svg xmlns="http://www.w3.org/2000/svg" width="16" height="16"><g fill="#283842" fill-rule="evenodd"><path d="M2.657 6.146c-1.233 2.054-.45 5.171.914 7.061C4.25 14.152 4.94 15 5.884 15l.054-.001c.443-.017.764-.148 1.073-.275.348-.142.708-.29 1.272-.29.537 0 .879.143 1.21.28.327.136.663.277 1.16.268 1.063-.02 1.715-.934 2.291-1.742.6-.843.902-1.661 1.004-1.974l.004-.012a.113.113 0 00-.063-.141l-.01-.004c-.186-.073-1.828-.773-1.846-2.679-.016-1.548 1.232-2.368 1.482-2.517l.012-.007a.115.115 0 00.052-.073.111.111 0 00-.018-.088c-.861-1.21-2.181-1.392-2.713-1.414a2.491 2.491 0 00-.236-.011c-.624 0-1.222.226-1.703.408-.331.125-.618.234-.815.234-.222 0-.51-.11-.844-.237-.446-.17-.952-.363-1.487-.363h-.038a3.67 3.67 0 00-3.068 1.784z"/><path d="M10.85 1c-.754.03-1.658.475-2.199 1.083-.459.51-.907 1.362-.79 2.22a.118.118 0 00.11.1c.05.003.103.005.155.005.736 0 1.531-.391 2.074-1.021.572-.666.86-1.52.773-2.285A.119.119 0 0010.85 1z"/></g></svg>