<svg width="72" height="56" xmlns="http://www.w3.org/2000/svg"><g fill="none"><path d="M13.297 55.676v-3.885a2.38 2.38 0 00-.626-1.78 2.121 2.121 0 00-1.68-.68c-.826-.057-1.615.365-2.06 1.1-.407-.713-1.15-1.136-1.938-1.1a1.908 1.908 0 00-1.717.92v-.765H4v6.19h1.288v-3.405c-.056-.43.073-.861.35-1.18a1.338 1.338 0 011.085-.465c.846 0 1.275.583 1.275 1.632v3.444h1.288v-3.431a1.51 1.51 0 01.353-1.177 1.344 1.344 0 011.082-.468c.87 0 1.288.583 1.288 1.632v3.444l1.288-.026zm19.053-6.19h-2.097V47.61h-1.288v1.877H27.8v1.23h1.19v2.85c0 1.437.527 2.292 2.035 2.292a2.876 2.876 0 001.595-.48l-.368-1.152c-.342.215-.73.336-1.129.35-.613 0-.846-.415-.846-1.036v-2.823h2.085l-.012-1.23zm10.879-.155c-.634-.02-1.227.328-1.546.906v-.75H40.42v6.19h1.276v-3.471c0-1.023.417-1.593 1.226-1.593.273-.004.544.049.797.155l.393-1.295a2.6 2.6 0 00-.908-.168l.025.026zm-16.447.647a4.205 4.205 0 00-2.392-.647c-1.484 0-2.453.751-2.453 1.981 0 1.01.711 1.632 2.024 1.826l.613.09c.7.104 1.03.299 1.03.648 0 .48-.466.751-1.337.751a3.01 3.01 0 01-1.95-.647l-.613 1.049a4.075 4.075 0 002.539.803c1.692 0 2.674-.842 2.674-2.02 0-1.179-.773-1.658-2.049-1.852l-.613-.09c-.552-.079-.993-.195-.993-.61 0-.414.417-.725 1.116-.725a3.63 3.63 0 011.84.531l.564-1.088zm34.163-.647a1.709 1.709 0 00-1.545.906v-.75h-1.264v6.19h1.276v-3.471c0-1.023.417-1.593 1.226-1.593.273-.004.544.049.798.155l.392-1.295a2.6 2.6 0 00-.908-.168l.025.026zM44.51 52.568c-.03.88.291 1.732.887 2.349a2.875 2.875 0 002.24.889 2.963 2.963 0 002.11-.738l-.613-1.088a2.49 2.49 0 01-1.533.557c-.978-.084-1.73-.946-1.73-1.982 0-1.035.752-1.897 1.73-1.98a2.49 2.49 0 011.533.556l.613-1.088a2.963 2.963 0 00-2.11-.738 2.875 2.875 0 00-2.24.89 3.222 3.222 0 00-.887 2.347v.026zm11.946 0v-3.082h-1.275v.751a2.182 2.182 0 00-1.84-.906c-1.694 0-3.066 1.45-3.066 3.237 0 1.788 1.372 3.238 3.066 3.238.715.028 1.4-.31 1.84-.907v.751h1.275v-3.082zm-4.746 0c.056-1.016.872-1.798 1.835-1.76.964.039 1.721.883 1.706 1.9-.016 1.018-.799 1.836-1.763 1.842a1.716 1.716 0 01-1.3-.58 1.92 1.92 0 01-.478-1.402zm-15.393-3.237c-1.693.025-3.047 1.495-3.023 3.283.024 1.788 1.416 3.217 3.11 3.192a3.441 3.441 0 002.434-.842l-.613-.997a2.701 2.701 0 01-1.705.647c-.877.08-1.654-.592-1.754-1.515h4.354v-.518c0-1.942-1.14-3.237-2.784-3.237l-.019-.013zm0 1.204c.386-.008.759.145 1.037.427.279.281.44.668.447 1.075h-3.066c.046-.864.738-1.531 1.558-1.502h.024zm31.956 2.046V47h-1.226v3.237a2.182 2.182 0 00-1.84-.906c-1.693 0-3.066 1.45-3.066 3.237 0 1.788 1.373 3.238 3.066 3.238.716.028 1.4-.31 1.84-.907v.751h1.226v-3.069zm2.128 2.195a.585.585 0 01.552.37.633.633 0 010 .478.61.61 0 01-.552.376.612.612 0 01-.552-.855.61.61 0 01.319-.324.584.584 0 01.251-.045h-.018zm0 1.095a.416.416 0 00.178-.04.46.46 0 00.14-.103.499.499 0 000-.647.422.422 0 00-.497-.104.447.447 0 00-.146.104.499.499 0 000 .647.453.453 0 00.343.143h-.018zm.037-.771a.236.236 0 01.16.052.166.166 0 01.054.136.16.16 0 01-.042.116.21.21 0 01-.13.059l.179.213h-.141l-.166-.213h-.055v.213h-.117v-.57l.258-.006zm-.135.11v.155h.135c.024.008.05.008.073 0a.068.068 0 000-.058.068.068 0 000-.058.122.122 0 00-.073 0l-.135-.039zm-6.746-2.629c.057-1.016.873-1.798 1.836-1.76.963.039 1.721.883 1.706 1.9-.016 1.018-.8 1.836-1.763 1.842a1.716 1.716 0 01-1.3-.58 1.92 1.92 0 01-.479-1.402zm-43.067 0v-3.095h-1.276v.751a2.182 2.182 0 00-1.84-.906c-1.693 0-3.066 1.45-3.066 3.237 0 1.788 1.373 3.238 3.067 3.238.715.028 1.4-.31 1.84-.907v.751h1.275v-3.069zm-4.747 0c.057-1.016.873-1.798 1.836-1.76.963.039 1.721.883 1.706 1.9-.016 1.018-.8 1.836-1.763 1.842a1.715 1.715 0 01-1.308-.575 1.92 1.92 0 01-.483-1.407h.012z" fill="#FFF"/><path fill="#FF5F00" d="M26.246 4.839h19.385v34.897H26.246z"/><path d="M27.477 22.29a22.169 22.169 0 018.461-17.45C26.855-2.31 13.811-1.27 5.974 7.233c-7.838 8.502-7.838 21.61 0 30.11 7.837 8.503 20.881 9.544 29.964 2.394a22.169 22.169 0 01-8.461-17.446z" fill="#EB001B"/><path d="M71.785 22.29a22.195 22.195 0 01-12.473 19.96 22.123 22.123 0 01-23.374-2.514 22.206 22.206 0 008.465-17.449c0-6.809-3.12-13.24-8.465-17.448a22.123 22.123 0 0123.374-2.515 22.195 22.195 0 0112.473 19.96v.006zm-2.117 13.877v-.823h.289v-.17h-.732v.17h.313v.823h.13zm1.421 0v-.993h-.221l-.259.71-.258-.71h-.197v.993h.16v-.745l.24.646h.166l.24-.646v.752l.13-.007z" fill="#F79E1B"/></g></svg>