<svg width="12" height="12" xmlns="http://www.w3.org/2000/svg"><g fill="#FFF" fill-rule="evenodd"><ellipse cx="1.605" cy="1.58" rx="1.424" ry="1.419" transform="translate(4.204 4.19)"/><ellipse cx="1.605" cy="1.458" rx="1.424" ry="1.419" transform="translate(4.204 8.571)"/><ellipse cx="1.537" cy="1.58" rx="1.424" ry="1.419" transform="translate(0 4.19)"/><ellipse cx="1.537" cy="1.458" rx="1.424" ry="1.419" transform="translate(0 8.571)"/><ellipse cx="1.482" cy="1.58" rx="1.424" ry="1.419" transform="translate(8.599 4.19)"/><path d="M10.168.145H1.45c-.37 0-.685.13-.946.39-.261.26-.392.575-.392.943v.103c0 .369.131.683.392.943.261.26.577.39.946.39h8.718c.739 0 1.337-.596 1.337-1.333v-.103c0-.736-.598-1.333-1.337-1.333z"/><ellipse cx="1.482" cy="1.458" rx="1.424" ry="1.419" transform="translate(8.599 8.571)"/></g></svg>