<svg xmlns="http://www.w3.org/2000/svg" width="131" height="146"><g fill="#C8CBD0"><path d="M71.145 98.677l-10.997-4.78-1.46-1.453c7.616-2.356 13.242-5.138 13.508-5.27a2.138 2.138 0 001.073-1.232 2.122 2.122 0 00-.116-1.628c-.04-.078-3.934-8.042-3.934-25.972v-8.285C69.219 34.035 56.128 21 40.037 21S10.855 34.035 10.855 50.057v8.285c0 17.776-3.899 25.9-3.934 25.972a2.127 2.127 0 00.957 2.86c.263.131 5.863 2.9 13.45 5.253l-1.477 1.47-10.996 4.78c-5.545 2.41-9.098 8.074-8.842 14.093l1.327 31.189A2.138 2.138 0 003.478 146c.03 0 .06 0 .092-.002a2.136 2.136 0 002.048-2.22L4.29 112.59a10.397 10.397 0 011.517-5.829l6 7.169a12.523 12.523 0 012.916 8.02v21.92c0 1.176.959 2.131 2.14 2.131a2.136 2.136 0 002.141-2.132V121.95c0-3.92-1.388-7.738-3.908-10.75l-6.349-7.585a10.189 10.189 0 011.821-1.03l9.653-4.196 6.81 11.006a4.237 4.237 0 003.614 2.01 4.247 4.247 0 002.753-1.012l4.462-3.79v37.265c0 1.177.958 2.132 2.14 2.132 1.182 0 2.14-.955 2.14-2.132v-37.266l4.462 3.79a4.243 4.243 0 003.414.961 4.24 4.24 0 002.954-1.958l6.81-11.007 9.652 4.196c.649.282 1.255.632 1.82 1.03l-6.348 7.586a16.782 16.782 0 00-3.908 10.75v21.918c0 1.177.958 2.132 2.14 2.132 1.182 0 2.14-.955 2.14-2.132V121.95c0-2.925 1.037-5.774 2.917-8.021l6-7.169a10.398 10.398 0 011.517 5.83l-1.328 31.188a2.136 2.136 0 002.048 2.22c.031.002.062.002.093.002 1.14 0 2.088-.896 2.137-2.041l1.327-31.19c.256-6.018-3.297-11.681-8.842-14.092zm-56.01-48.62c.001-13.672 11.172-24.794 24.902-24.794s24.9 11.123 24.9 24.794v8.285c0 13.949 2.286 22.287 3.56 25.85-2.519 1.129-7.462 3.192-13.252 4.823l-1.111-1.107a2.152 2.152 0 00-1.477-.622V83.62a22.858 22.858 0 008.35-9.836 20.794 20.794 0 001.756-7.826c.229-8.888-7.371-11.122-15.418-13.487-6.657-1.958-14.203-4.176-20.376-10.155a2.148 2.148 0 00-3.027.042 2.124 2.124 0 00.042 3.013c6.932 6.714 15.37 9.195 22.15 11.188 8.438 2.48 12.488 3.911 12.35 9.29a16.52 16.52 0 01-1.394 6.213c-2.983 6.728-9.677 11.075-17.053 11.075-8.996 0-16.705-6.393-18.33-15.2-.384-2.085-2.32-3.6-4.414-3.446a2.03 2.03 0 01-.606-.051c-.884-.209-1.551-1.166-1.551-2.227v-1.59c0-1.065.72-2.026 1.637-2.187a2.019 2.019 0 011.982.756c.398.516.928.886 1.534 1.068a3.05 3.05 0 002.615-.418 16.118 16.118 0 004.34-4.565 2.126 2.126 0 00-.662-2.942 2.146 2.146 0 00-2.954.66 12.028 12.028 0 01-2.33 2.695 6.336 6.336 0 00-5.265-1.452c-.31.054-.607.136-.897.234v-4.415zm-3.558 34.134c.937-2.62 2.418-7.823 3.138-15.933.316.137.645.249.986.33.597.14 1.203.195 1.804.16 1.165 6.25 4.824 11.504 9.838 14.827v3.71a2.142 2.142 0 00-1.477.624l-1.095 1.09c-5.753-1.626-10.68-3.682-13.194-4.808zm19.075 22.931L23.78 96.015l3.6-3.585 9.468 9.427-6.196 5.265zM40 98.967l-8.376-8.34v-4.823a22.931 22.931 0 008.413 1.595c2.907 0 5.727-.551 8.339-1.57v4.798L40 98.967zm9.348 8.155l-6.196-5.265 9.468-9.427 3.6 3.585-6.872 11.107z"/><path d="M31.777 121h-6.554c-1.228 0-2.223.895-2.223 2s.995 2 2.223 2h6.554c1.228 0 2.223-.895 2.223-2s-.995-2-2.223-2zm96.403-96.678a2.15 2.15 0 00-2.788-1.167 2.109 2.109 0 00-1.18 2.756 33.542 33.542 0 012.507 12.783c0 18.788-15.461 34.074-34.466 34.074-5.324 0-10.427-1.167-15.168-3.469a2.153 2.153 0 00-2.865.967 2.105 2.105 0 00.978 2.833C80.53 75.687 86.269 77 92.253 77 113.618 77 131 59.816 131 38.694c0-4.969-.949-9.804-2.82-14.372zm-21.522-21.57A39.838 39.838 0 0092.028 0c-13.877 0-26.806 7.235-33.74 18.882-.593.995-.24 2.267.79 2.84.337.189.706.278 1.07.278.744 0 1.467-.374 1.865-1.042C68.183 10.597 79.683 4.16 92.028 4.16c4.502 0 8.88.823 13.013 2.446 1.1.433 2.354-.08 2.8-1.144.447-1.065-.083-2.278-1.183-2.71zm22.177 7.518a2.163 2.163 0 00-1.998-1.335h-4.772V4.163a2.162 2.162 0 00-3.692-1.53l-11.558 11.559a2.16 2.16 0 00-.634 1.53v6.038L90.633 37.308A2.164 2.164 0 0092.163 41c.553 0 1.107-.211 1.529-.633l15.548-15.548h6.039c.573 0 1.124-.228 1.53-.634l11.557-11.558c.619-.619.804-1.55.47-2.357zm-14.452 10.223h-3.876v-3.876l7.233-7.233v1.714c0 1.194.968 2.162 2.162 2.162h1.714l-7.233 7.233z"/><path d="M112.194 32.791a2.147 2.147 0 00-4.124 1.194c.423 1.46.637 2.979.637 4.515 0 8.937-7.27 16.207-16.207 16.207-8.936 0-16.207-7.27-16.207-16.207 0-8.936 7.27-16.207 16.207-16.207 1.543 0 3.069.216 4.535.642a2.146 2.146 0 101.198-4.121A20.462 20.462 0 0092.5 18C81.196 18 72 27.196 72 38.5S81.196 59 92.5 59 113 49.804 113 38.5c0-1.94-.271-3.861-.806-5.709z"/></g></svg>