<svg xmlns="http://www.w3.org/2000/svg" width="16" height="16"><path fill="#1070AD" d="M12.917 4.825a.85.85 0 00-.121-.221l-2.9-3.335a.805.805 0 00-.232-.178.676.676 0 00-.328-.076H3.803c-.43 0-.786.385-.786.869v12.189c0 .487.357.905.786.905h8.412c.429 0 .768-.418.768-.905V5.196a.939.939 0 00-.066-.37zm-8.239.342c0-.054.062-.076.118-.076h2.45c.055 0 .097.022.097.076v.393c0 .05-.039.113-.097.113h-2.45c-.056 0-.118-.062-.118-.113v-.393zm0 4.655c0-.055.062-.077.118-.077h4.228c.056 0 .083.022.083.077v.393c0 .05-.024.112-.083.112H4.796c-.056 0-.118-.062-.118-.112v-.393zm5.537 2.72c0 .05-.025.113-.084.113H4.796c-.056 0-.118-.062-.118-.113v-.393c0-.054.062-.076.118-.076h5.335c.056 0 .084.022.084.076v.393zm1.107-4.655c0 .051-.024.113-.083.113H4.796c-.056 0-.118-.062-.118-.113v-.392c0-.055.062-.077.118-.077h6.443c.055 0 .083.022.083.077v.392zm-1.623-2.76c-.194 0-.384-.189-.384-.41v-2.4l2.464 2.81h-2.08z"/></svg>