<svg width="24" height="24" xmlns="http://www.w3.org/2000/svg"><path d="M14.898 7.167v-.982c0-.647-.495-1.185-1.176-1.185h-3.447c-.678 0-1.173.538-1.173 1.185v.982H6V8.25h.314s.184.02.28.115c.095.095.132.305.132.305l.648 8.182C7.425 17.848 7.425 18 8.6 18h6.8c1.176 0 1.176-.149 1.227-1.144l.648-8.18s.037-.213.133-.308c.095-.094.28-.115.28-.115H18V7.17h-3.102v-.003zm-5.08-.982c0-.325.266-.508.604-.508h3.126c.337 0 .634.186.634.508v.982H9.818v-.982zm-.29 9.648l-.35-6.5h.691l.358 6.5h-.699zm2.85 0h-.75v-6.5h.75v6.5zm2.1 0h-.695l.358-6.5h.692l-.355 6.5z" fill="#999" fill-rule="evenodd"/></svg>