<svg xmlns="http://www.w3.org/2000/svg" width="54" height="54"><g fill="none" fill-rule="evenodd"><circle cx="27" cy="27" r="27" fill="#556080"/><g fill="#FFF" transform="translate(9 8.746)"><circle cx="18.004" cy="10.829" r="10.125"/><path d="M18 41.879c-7.271 0-14.016-3.374-18-9 1.811-2.558 4.249-4.71 7.106-6.265 3.287-1.79 7.054-2.735 10.894-2.735s7.606.946 10.894 2.735c2.857 1.555 5.295 3.708 7.106 6.265-3.979 5.619-10.72 9-18 9z"/></g><g transform="translate(38 38)"><circle cx="8" cy="8" r="8" fill="#71C700"/><rect width="7.273" height="1.455" x="4.364" y="7.273" fill="#FFF" rx=".727"/><path fill="#FFF" d="M8.727 5.09v5.82a.727.727 0 01-1.454 0V5.09a.727.727 0 111.454 0z"/></g></g></svg>