<svg width="90" height="29" xmlns="http://www.w3.org/2000/svg"><g fill="none"><path fill="#FFF" d="M39.383 29H32l4.618-28H44zM66 1.195C64.553.627 62.259 0 59.422 0c-7.243 0-12.343 3.822-12.374 9.287-.06 4.033 3.652 6.272 6.428 7.616 2.837 1.374 3.802 2.27 3.802 3.495-.03 1.881-2.293 2.748-4.405 2.748-2.928 0-4.497-.447-6.881-1.493l-.966-.449L44 27.506c1.72.776 4.89 1.464 8.18 1.494 7.695 0 12.705-3.763 12.764-9.587.03-3.196-1.93-5.645-6.156-7.645-2.565-1.285-4.136-2.151-4.136-3.465.03-1.195 1.329-2.419 4.224-2.419 2.384-.06 4.136.507 5.463 1.075l.664.298L66 1.195zm9.21 17.885c.597-1.608 2.893-7.833 2.893-7.833-.03.06.596-1.639.954-2.681l.506 2.413s1.372 6.702 1.67 8.102H75.21zM84.154 1H78.55c-1.729 0-3.042.506-3.787 2.323L64 29h7.603l1.52-4.2h9.304c.208.983.864 4.2.864 4.2H90L84.154 1zm-57.95 0l-7.221 19.114-.79-3.877C16.86 11.764 12.674 6.904 8 4.488L14.614 29h7.797L34 1h-7.796z"/><path d="M12.051 1H.122L0 1.557C9.305 3.847 15.468 9.367 18 16L15.407 3.32C14.98 1.556 13.667 1.057 12.05 1z" fill="#FAA61A"/></g></svg>