<svg xmlns="http://www.w3.org/2000/svg" width="24" height="24"><g fill="none" fill-rule="evenodd"><circle cx="12" cy="12" r="12" fill="#FFF"/><path d="M13.22 8.427A2.537 2.537 0 0115.769 5.9a2.537 2.537 0 012.548 2.527 2.537 2.537 0 01-2.548 2.527 2.537 2.537 0 01-2.547-2.527zm3.605 3.508h-2.113c-.249 0-.603.056-1.063.168.844.961 1.266 1.887 1.266 2.776v3.075c.516.03.893.046 1.129.046 2.344 0 3.702-.617 3.786-.656l.167-.078h.018v-2.387c0-1.623-1.431-2.944-3.19-2.944zM5.887 7.78c0-1.59 1.328-2.88 2.966-2.88 1.638 0 2.966 1.29 2.966 2.88 0 1.59-1.328 2.88-2.966 2.88-1.638 0-2.966-1.29-2.966-2.88zm4.174 3.89H7.645C5.635 11.67 4 13.266 4 15.228v2.885l.008.045.204.062c1.917.585 3.584.78 4.956.78 2.679 0 4.231-.746 4.327-.793l.19-.095h.02v-2.884c0-1.962-1.634-3.558-3.644-3.558z" fill="#556080" fill-rule="nonzero"/></g></svg>