<svg width="20" height="20" xmlns="http://www.w3.org/2000/svg"><g fill="none"><path d="M7.024 15.68L4.04 17.308a2.681 2.681 0 00-.479.34A9.954 9.954 0 0010 20a9.96 9.96 0 006.402-2.318 2.647 2.647 0 00-.527-.353l-3.195-1.597a1.218 1.218 0 01-.673-1.09v-1.254c.09-.102.192-.233.302-.388a7.352 7.352 0 00.993-2.002c.41-.126.712-.505.712-.955V8.705a.999.999 0 00-.334-.741V6.029s.397-3.01-3.68-3.01c-4.076 0-3.679 3.01-3.679 3.01v1.935a.998.998 0 00-.334.741v1.338c0 .353.185.663.462.842a6.645 6.645 0 001.21 2.503v1.223c0 .445-.244.855-.635 1.069z" fill="#E7ECED"/><path d="M10.17.002C4.65-.093.097 4.307.003 9.829a9.97 9.97 0 003.563 7.816 2.63 2.63 0 01.475-.337l2.983-1.628c.392-.213.635-.623.635-1.07v-1.222s-.875-1.048-1.21-2.503a1.004 1.004 0 01-.462-.842V8.705c0-.294.131-.557.334-.742V6.03S5.923 3.02 10 3.02c4.076 0 3.679 3.01 3.679 3.01v1.934a.998.998 0 01.334.742v1.338c0 .45-.302.828-.711.955A7.352 7.352 0 0112.308 13a4.81 4.81 0 01-.302.389v1.254c0 .461.26.883.674 1.09l3.195 1.597c.191.096.365.217.524.351a9.974 9.974 0 003.599-7.51C20.093 4.65 15.693.097 10.17.003z" fill="#556080"/></g></svg>