<svg width="20" height="20" xmlns="http://www.w3.org/2000/svg"><path d="M1 7.144v5.153h4.191l3.821 3.535V3.613l-3.821 3.53H1v.001zm9.449-.822c.7.95 1.119 2.122 1.119 3.398a5.693 5.693 0 01-1.119 3.394l.821.62a6.755 6.755 0 001.32-4.014 6.755 6.755 0 00-1.32-4.014l-.821.616zm3.502-2.468l-.82.616a8.814 8.814 0 011.73 5.25c0 1.969-.648 3.78-1.73 5.246l.82.62a9.864 9.864 0 000-11.732zm2.557-1.864l-.824.62a11.94 11.94 0 012.33 7.11c0 2.661-.865 5.121-2.33 7.11l.824.62a13.005 13.005 0 002.529-7.73c0-2.898-.942-5.572-2.529-7.73z" fill="#FFF" fill-rule="evenodd"/></svg>