<svg width="24" height="24" xmlns="http://www.w3.org/2000/svg"><g fill="none" fill-rule="evenodd"><path d="M12 1C5.935 1 1 5.935 1 12s4.935 11 11 11 11-4.935 11-11S18.065 1 12 1z" fill="#BE893F"/><path d="M12 21c-4.963 0-9-4.037-9-9s4.037-9 9-9 9 4.037 9 9-4.037 9-9 9z" fill="#F1CB30"/><path d="M15.394 14.394H8.606a1 1 0 00-.707 1.707A5.762 5.762 0 0012 17.8c1.55 0 3.006-.603 4.101-1.699a1 1 0 00-.707-1.707zM8.676 10.81c.248-.249.39-.593.39-.943 0-.351-.142-.695-.39-.943a1.344 1.344 0 00-.943-.39 1.34 1.34 0 00-.942.39 1.34 1.34 0 00-.391.943c0 .35.142.694.39.942.249.248.593.391.943.391.351 0 .695-.143.943-.39zm7.591-2.277c-.351 0-.695.143-.943.39-.248.249-.39.592-.39.944 0 .35.142.694.39.942.248.248.592.391.943.391.35 0 .694-.143.942-.39a1.34 1.34 0 00.391-.943c0-.351-.142-.695-.39-.943a1.342 1.342 0 00-.943-.39z" fill="#BE893F" fill-rule="nonzero"/></g></svg>