<svg xmlns="http://www.w3.org/2000/svg" xmlns:xlink="http://www.w3.org/1999/xlink" width="236" height="236"><defs><filter id="b" width="101.4%" height="101.4%" x="-.7%" y="-.7%" filterUnits="objectBoundingBox"><feOffset dy="-3" in="SourceAlpha" result="shadowOffsetInner1"/><feComposite in="shadowOffsetInner1" in2="SourceAlpha" k2="-1" k3="1" operator="arithmetic" result="shadowInnerInner1"/><feColorMatrix in="shadowInnerInner1" values="0 0 0 0 0.815686275 0 0 0 0 0.819607843 0 0 0 0 0.815686275 0 0 0 1 0"/></filter><filter id="d" width="101.4%" height="102.1%" x="-.7%" y="-1%" filterUnits="objectBoundingBox"><feOffset dy="-3" in="SourceAlpha" result="shadowOffsetInner1"/><feComposite in="shadowOffsetInner1" in2="SourceAlpha" k2="-1" k3="1" operator="arithmetic" result="shadowInnerInner1"/><feColorMatrix in="shadowInnerInner1" values="0 0 0 0 0.792156863 0 0 0 0 0.792156863 0 0 0 0 0.792156863 0 0 0 1 0"/></filter><filter id="f" width="101.4%" height="102.2%" x="-.7%" y="-1.1%" filterUnits="objectBoundingBox"><feOffset dy="-3" in="SourceAlpha" result="shadowOffsetInner1"/><feComposite in="shadowOffsetInner1" in2="SourceAlpha" k2="-1" k3="1" operator="arithmetic" result="shadowInnerInner1"/><feColorMatrix in="shadowInnerInner1" values="0 0 0 0 0.792156863 0 0 0 0 0.792156863 0 0 0 0 0.792156863 0 0 0 1 0"/></filter><filter id="i" width="101.4%" height="102.4%" x="-.7%" y="-1.2%" filterUnits="objectBoundingBox"><feOffset dy="-3" in="SourceAlpha" result="shadowOffsetInner1"/><feComposite in="shadowOffsetInner1" in2="SourceAlpha" k2="-1" k3="1" operator="arithmetic" result="shadowInnerInner1"/><feColorMatrix in="shadowInnerInner1" values="0 0 0 0 0.79333673 0 0 0 0 0.79333673 0 0 0 0 0.79333673 0 0 0 1 0"/></filter><path id="a" d="M20.875 0h180.542c7.732 0 14 6.268 14 14v187.217c0 7.732-6.268 14-14 14H20.875c-7.732 0-14-6.268-14-14V14c0-7.732 6.268-14 14-14z"/><path id="c" d="M215.417 96v107c0 9.389-7.611 17-17 17H23.875c-9.389 0-17-7.611-17-17V96.89c0-9.354 7.558-16.951 16.913-16.999l174.542-.89c9.389-.049 17.039 7.524 17.086 16.912V96z"/><path id="e" d="M215.567 76.522l2.136 108.674c.274 13.939-10.781 25.239-24.693 25.239H29.281c-13.911 0-24.967-11.3-24.693-25.239L6.705 77.532l208.862-1.01z"/><path id="h" d="M213.889 0l5.728 99.227c.8 13.874-10.25 25.12-24.683 25.12H25.066c-14.433 0-25.484-11.246-24.683-25.12L6.057.938 213.889 0z"/><linearGradient id="g" x1="95.424%" x2="76.328%" y1="48.019%" y2="51.343%"><stop offset="0%" stop-color="#3485B9"/><stop offset="100%" stop-color="#1573AD"/></linearGradient><linearGradient id="j" x1="56.4%" x2="100%" y1="42.235%" y2="73.783%"><stop offset="0%" stop-opacity=".102"/><stop offset="100%" stop-color="#E8E8E8" stop-opacity="0"/></linearGradient></defs><g fill="none" fill-rule="evenodd"><g transform="translate(0 16)"><use fill="#EBECEB" xlink:href="#a"/><use fill="#000" filter="url(#b)" xlink:href="#a"/><use fill="#EBECEB" xlink:href="#c"/><use fill="#000" filter="url(#d)" xlink:href="#c"/><use fill="#EBECEB" xlink:href="#e"/><use fill="#000" filter="url(#f)" xlink:href="#e"/><path fill="url(#g)" d="M51.313 23.913h117.374c11.886 0 21.521 9.636 21.521 21.522s-9.635 21.522-21.521 21.522H51.313c-11.886 0-21.521-9.636-21.521-21.522s9.635-21.522 21.521-21.522z"/><g transform="translate(0 76.522)"><use fill="#EBECEB" xlink:href="#h"/><use fill="#000" filter="url(#i)" xlink:href="#h"/><path fill="#1070AD" d="M109.374 45.217c11.41 0 20.57-8.154 20.461-18.212-.109-10.059-9.264-18.213-20.449-18.213-11.184 0-20.345 8.154-20.461 18.213-.116 10.058 9.04 18.212 20.449 18.212zm-.018 52.754c11.736 0 21.162-8.154 21.053-18.213-.11-10.058-9.53-18.212-21.04-18.212-11.511 0-20.937 8.154-21.053 18.212-.116 10.059 9.304 18.213 21.04 18.213z"/><path fill="#71C700" d="M49.304 45.217c11.41 0 20.831-8.154 21.043-18.212.212-10.059-8.684-18.213-19.868-18.213s-20.605 8.154-21.043 18.213C29 37.063 37.894 45.217 49.304 45.217zm-1.702 52.754c11.737 0 21.422-8.154 21.634-18.213.212-10.058-8.948-18.212-20.459-18.212-11.51 0-21.196 8.154-21.634 18.212-.437 10.059 8.723 18.213 20.46 18.213zm121.842-52.754c11.41 0 20.31-8.154 19.88-18.212-.43-10.059-9.846-18.213-21.03-18.213-11.185 0-20.085 8.154-19.88 18.213.204 10.058 9.62 18.212 21.03 18.212zm1.666 52.754c11.736 0 20.901-8.154 20.471-18.213-.43-10.058-10.11-18.212-21.621-18.212s-20.677 8.154-20.472 18.212c.205 10.059 9.886 18.213 21.622 18.213z"/><path fill="url(#j)" d="M213.889 0l5.728 99.227c.8 13.874-10.25 25.12-24.683 25.12h-67.448L6.057.939 213.889 0z" opacity=".531" style="mix-blend-mode:darken"/></g></g><g transform="translate(164)"><circle cx="36" cy="36" r="36" fill="#71C700"/><path fill="#FFF" fill-rule="nonzero" d="M49.873 24.483l-.804-.695a3.22 3.22 0 00-4.514.29L31.117 39.09l-4.056-3.52a3.22 3.22 0 00-4.515.285l-.71.791a3.282 3.282 0 00.233 4.609l7.435 6.86a3.218 3.218 0 004.671-.25l16.041-18.78a3.278 3.278 0 00-.343-4.602z"/></g></g></svg>