<svg width="24" height="24" xmlns="http://www.w3.org/2000/svg"><g fill="#999"><path d="M12 3c-4.963 0-9 4.037-9 9s4.037 9 9 9 9-4.037 9-9-4.037-9-9-9zm0 16.364c-4.06 0-7.364-3.304-7.364-7.364 0-4.06 3.304-7.364 7.364-7.364 4.06 0 7.364 3.304 7.364 7.364 0 4.06-3.304 7.364-7.364 7.364z"/><path d="M14.777 13.959H9.223a.818.818 0 00-.579 1.397A4.715 4.715 0 0012 16.746c1.268 0 2.46-.494 3.356-1.39a.818.818 0 00-.579-1.397zM9.28 11.026a1.1 1.1 0 00.32-.771 1.1 1.1 0 00-.32-.772 1.1 1.1 0 00-.77-.32 1.097 1.097 0 00-1.092 1.092c0 .286.116.568.32.77a1.1 1.1 0 00.771.32 1.1 1.1 0 00.771-.32zm6.21-1.862a1.1 1.1 0 00-.77.32c-.203.202-.32.483-.32.77 0 .287.117.569.32.772a1.1 1.1 0 00.77.32 1.1 1.1 0 00.772-.32c.204-.203.32-.485.32-.771 0-.287-.116-.569-.32-.772a1.098 1.098 0 00-.771-.32z"/></g></svg>