<svg xmlns="http://www.w3.org/2000/svg" width="22" height="22"><path fill="#FFF" d="M18.745 18.742c-4.298 4.293-11.26 4.293-15.553 0-4.293-4.299-4.298-11.261 0-15.554 4.298-4.292 11.261-4.292 15.553 0 4.293 4.293 4.299 11.261 0 15.554zm-.65-14.903C14.167-.089 7.77-.089 3.842 3.839c-3.928 3.928-3.928 10.325 0 14.253 3.928 3.928 10.325 3.928 14.253 0 3.934-3.928 3.934-10.325 0-14.253zM15.42 16.041l-4.462-4.452-4.441 4.431-.624-.623 4.441-4.432-4.441-4.43.624-.624 4.441 4.43L15.42 5.89l.624.624-4.462 4.451 4.462 4.452-.624.624z"/></svg>