<svg width="24" height="24" xmlns="http://www.w3.org/2000/svg"><g fill="#999"><path d="M13.435 14.826c.967-.42 1.73-.993 2.288-1.718.56-.724.84-1.513.84-2.367 0-.853-.28-1.642-.84-2.367-.559-.724-1.321-1.297-2.288-1.717-.966-.42-2.018-.631-3.154-.631-1.136 0-2.187.21-3.154.63-.966.421-1.73.994-2.288 1.718C4.279 9.1 4 9.888 4 10.741a3.7 3.7 0 00.634 2.063c.422.645 1.002 1.189 1.74 1.63a5.07 5.07 0 01-.184.406c-.062.123-.136.24-.223.355l-.2.266a3.628 3.628 0 01-.232.272 6.353 6.353 0 00-.206.23c0-.006-.012.008-.035.042-.024.034-.037.049-.04.046-.003-.003-.015.012-.036.046l-.031.05-.023.046a.197.197 0 00-.018.056.372.372 0 00-.004.06c0 .02.003.04.009.06a.309.309 0 00.103.193.274.274 0 00.182.073h.027c.298-.043.553-.092.767-.147a7.399 7.399 0 002.48-1.18 8.688 8.688 0 001.571.148c1.136 0 2.188-.21 3.154-.63zm-4.992-.769l-.392.285a9.965 9.965 0 01-.554.36l.313-.774-.866-.516c-.57-.344-1.014-.749-1.329-1.215-.315-.467-.473-.952-.473-1.456 0-.626.234-1.212.7-1.759.467-.546 1.096-.98 1.887-1.298a6.755 6.755 0 012.552-.48c.91 0 1.76.16 2.552.48.79.319 1.42.752 1.887 1.298.467.547.7 1.133.7 1.76 0 .626-.233 1.212-.7 1.758-.467.547-1.096.98-1.887 1.299a6.753 6.753 0 01-2.552.479c-.446 0-.9-.043-1.365-.129l-.473-.092z"/><path d="M19.355 15.166a3.69 3.69 0 00.633-2.067c0-.756-.223-1.462-.669-2.119-.446-.656-1.053-1.203-1.82-1.639a4.881 4.881 0 01-.393 3.74c-.398.736-.97 1.387-1.713 1.952a7.801 7.801 0 01-2.355 1.188 9.163 9.163 0 01-3.542.378c1.195.81 2.6 1.215 4.21 1.215.513 0 1.036-.05 1.571-.147.738.54 1.565.933 2.48 1.179.215.055.47.104.768.147a.263.263 0 00.196-.064.343.343 0 00.116-.203c-.003-.037 0-.057.01-.06.008-.003.006-.023-.005-.06l-.018-.055-.022-.046a.444.444 0 00-.067-.096 1.154 1.154 0 01-.076-.088 6.351 6.351 0 00-.205-.23 3.613 3.613 0 01-.232-.272 27.902 27.902 0 00-.2-.267 2.339 2.339 0 01-.224-.354 5.15 5.15 0 01-.183-.405c.738-.443 1.318-.985 1.74-1.627z"/></g></svg>