<svg width="24" height="24" xmlns="http://www.w3.org/2000/svg"><path d="M18.85 4.383C17.84 3.453 16.779 3 15.6 3c-1.389 0-2.657.636-3.883 1.252-1.104.554-2.146 1.077-3.144 1.077-.754 0-1.43-.3-2.13-.946a.825.825 0 00-1.38.546.822.822 0 00-.063.316v14.93a.825.825 0 101.65 0v-4.853a4.268 4.268 0 001.923.456c1.39 0 2.657-.636 3.884-1.252 1.103-.554 2.146-1.077 3.144-1.077.754 0 1.43.3 2.13.946a.823.823 0 001.384-.606v-8.8c0-.23-.096-.45-.265-.606zm-1.385 7.839a4.267 4.267 0 00-1.864-.422c-1.39 0-2.658.636-3.884 1.252-1.104.553-2.146 1.076-3.144 1.076-.658 0-1.257-.229-1.864-.716V6.557a4.26 4.26 0 001.864.422c1.39 0 2.658-.636 3.884-1.252 1.103-.554 2.146-1.077 3.144-1.077.658 0 1.258.229 1.864.716v6.856z" fill="#9C9C9C"/></svg>