<svg width="24" height="24" xmlns="http://www.w3.org/2000/svg"><path d="M18.944 11.217c-.022-.196-.252-.344-.45-.344-.64 0-1.21-.376-1.448-.958a1.558 1.558 0 01.391-1.73.388.388 0 00.043-.527 6.92 6.92 0 00-1.108-1.12.39.39 0 00-.532.044c-.417.461-1.166.633-1.744.392a1.554 1.554 0 01-.945-1.519.388.388 0 00-.343-.408 6.982 6.982 0 00-1.574-.005.39.39 0 00-.346.4 1.556 1.556 0 01-.958 1.493c-.571.233-1.315.063-1.73-.394a.39.39 0 00-.529-.045c-.419.33-.8.706-1.131 1.119a.39.39 0 00.042.531 1.55 1.55 0 01.39 1.745c-.24.575-.838.946-1.521.946a.38.38 0 00-.404.343 7.006 7.006 0 00-.003 1.59c.022.198.258.345.459.345a1.534 1.534 0 011.439.958 1.558 1.558 0 01-.391 1.73.389.389 0 00-.043.526c.325.414.698.791 1.106 1.12.16.129.394.11.533-.042.418-.463 1.167-.634 1.743-.393.604.253.984.863.946 1.518a.388.388 0 00.344.409 6.952 6.952 0 001.573.004.39.39 0 00.346-.4 1.554 1.554 0 01.957-1.492c.576-.235 1.316-.063 1.732.394a.39.39 0 00.528.044 6.963 6.963 0 001.132-1.118.388.388 0 00-.042-.532 1.55 1.55 0 01-.392-1.744 1.566 1.566 0 011.43-.949l.087.003a.39.39 0 00.41-.343 7 7 0 00.003-1.59zm-6.94 3.125a2.335 2.335 0 01-2.332-2.333 2.335 2.335 0 012.333-2.333 2.335 2.335 0 012.333 2.333 2.335 2.335 0 01-2.333 2.333z" fill="#999"/></svg>