<svg width="128" height="89pt" viewBox="0 0 96 89" xmlns="http://www.w3.org/2000/svg"><g fill="#283842"><path d="M23.46 0h2.25c3.02.87 4.21 3.69 4.23 6.6 7.5-.01 15-.01 22.49.01.14-2.79 1.23-5.45 3.93-6.61h2.22c3.06.83 4.16 3.73 4.41 6.6 5.3.2 10.65-.44 15.92.3 3.26.63 3.65 4.41 3.53 7.12-.15 8.99.13 17.98-.12 26.96.29 1.78-1.96 1.6-3.02 2.09-.69-5.54-.32-11.12-.38-16.68-25.19-.01-50.38-.02-75.57 0 .25 15.3-.41 30.64.34 45.92 14.11 0 28.23.01 42.34-.01 1.1.24 3.87-.28 3.39 1.67.5 1.97-2.24 1.57-3.37 1.75-13.69-.06-27.38.1-41.06-.07-2.33.15-3.85-1.73-4.99-3.49V10.57c.88-1.61 1.9-3.65 4.01-3.78 5.14-.51 10.32-.05 15.48-.18.14-2.8 1.26-5.43 3.97-6.61m-.13 4.16c.17 2.97-1.77 7.7 1.62 9.32 2.68-2.33 1.09-6.54 1.15-9.67-.53-.07-1.6-.22-2.14-.29l-.63.64m33.03-.02c.02 2.95-1.82 7.78 1.59 9.33 2.53-2.44 1.08-6.52 1.09-9.65-.5-.12-1.5-.35-2-.47l-.68.79M3.63 10.66c-.66 4.08-.02 8.24-.34 12.35 25.19.26 50.39.04 75.59.11.02-4.31.1-8.62-.09-12.93-5.3-.19-10.61-.08-15.91-.11.01 2.91-1.45 6.4-4.83 6.48-3.7.47-5.72-3.28-5.54-6.49-7.55.02-15.1.02-22.66.01.24 3.01-1.46 6.46-4.85 6.49-3.61.3-5.61-3.33-5.43-6.5-5.27.4-10.89-.77-15.94.59z"/><path d="M39.47 35.54c-.37-1.91 1.49-3.4 3.16-2.09 1.03 1.49-.47 2.32-1.45 3.21-.43-.28-1.28-.84-1.71-1.12zm10.1-1.96c.97-.79 1.98-.82 3.02-.08.8 1.5-.68 2.46-1.62 3.36-.74-.99-2.19-1.9-1.4-3.28zm9.89-.09c1.45-1.38 4.37.29 2.87 2.09-1.12 1.99-4.12-.2-2.87-2.09zm9.89 0c1.54-1.35 4.04.04 3.07 2.04-1.39 1.95-4.18.02-3.07-2.04zm-59.06 9.93c1.45-2.22 4.36.85 2.45 2.22-1.08 1.83-4.18-1-2.45-2.22zm9.99-.12c.78-1.61 3.72.22 2.75 1.62-.38 2.58-5.26.16-2.75-1.62zm9.94-.05c1.47-2.21 4.57 2.07 1.75 2.69-1.5 1.21-3.41-1.75-1.75-2.69zm9.35.41c1.12-2.29 4.35-.16 3.13 1.84-1.45 1.59-3.79.11-3.13-1.84zm9.9-.01c1.28-2.26 4.11-.25 3.18 1.83-1.39 1.61-3.98.15-3.18-1.83zm19.02 3.14c5.51-1.43 11.62-.74 16.52 2.23 6.59 3.81 10.82 11.35 10.58 18.96-.15 7.78-4.93 15.26-11.94 18.65-4.48 2.26-9.75 2.61-14.62 1.6-8.52-1.92-15.29-9.6-16.21-18.28-1.41-10.21 5.7-20.65 15.67-23.16m.7 3.35c-9.21 2.32-15.12 12.71-12.52 21.82 2.18 9.55 13.17 15.92 22.52 12.8 9.22-2.53 15.35-13.22 12.22-22.39-2.46-9.22-13.09-15.16-22.22-12.23zm-57.67 2.51c2.16-.22 2.47 3.07.37 3.49-2.3.06-2.82-3.46-.37-3.49zm9.73 0c2-.48 2.78 2.9.72 3.18-2.3.91-3.33-3.07-.72-3.18zm9.05-.24c1.11.27 2.38.47 2.94 1.65-.09 1.24-1.96 2.99-2.95 1.5-1.3-.7-.23-2.18.01-3.15zm10.24.28c2.01-.76 3.49 2.28 1.38 3.11-1.98 1.31-3.51-2.37-1.38-3.11z"/><path d="M73.01 56.32l2.36-.52c.52 3.28.38 6.61.33 9.92 3.15-.01 6.31-.14 9.45.17 1.1 1.64.76 2.68-1.03 3.13-3.89.16-7.88.49-11.69-.47.47-4.02-.73-8.45.58-12.23zm-63.29 7.7c.39-1.31 1.68-1.42 2.81-1.58.24.4.72 1.18.96 1.57-.19.45-.59 1.34-.78 1.79-1.34-.04-2.8-.1-2.99-1.78zm10.87-1.38c1.82-.89 3.83 1.78 1.81 2.92-1.92 1.16-4.02-1.78-1.81-2.92zm9.82 0c.57-.02 1.69-.04 2.26-.05.02.95.78 3.09-.79 3.09-1.24.47-1.92-.76-2.6-1.52.28-.38.85-1.14 1.13-1.52zm10.02-.01c2.14-.91 3.67 2.43 1.33 3.15-2.07.67-3.12-2.23-1.33-3.15z"/></g></svg>