<svg width="104" height="35" xmlns="http://www.w3.org/2000/svg"><g fill="#FFF"><path d="M74.99 3L73 8h4zM8.992 3L7 8h4zm43.461 1.244c-.31-.216-.786-.244-1.238-.244H48v3h3.173c.502 0 .925-.01 1.29-.277.336-.22.537-.695.537-1.285 0-.58-.21-.997-.547-1.194zm12.002 19.997c-.317-.231-.784-.241-1.244-.241H60v3h3.169c.508 0 .94-.02 1.292-.271.338-.254.539-.71.539-1.285-.006-.575-.207-.988-.545-1.203zM51.404 24H48v3h3.371C52.375 27 53 26.465 53 25.448 52.998 24.413 52.349 24 51.404 24z"/><path d="M102.607 25.884a.713.713 0 00-.06-.055c.528-.332.88-.907.88-1.563v-2.4c0-1.032-.863-1.864-1.93-1.864h-5.591c-1.743 0-3.057.496-4.015 1.244a1.9 1.9 0 00-1.797-1.244h-5.592c-1.538 0-2.75.368-3.673.973a1.907 1.907 0 00-1.66-.973h-9.313c-.75 0-1.384.422-1.704 1.025-.132-.09-.23-.195-.37-.275-1.35-.697-2.787-.75-4.266-.75h-6.447a1.92 1.92 0 00-1.704 1.034c-.981-.616-2.354-1.034-4.306-1.034h-8.917c-.537 0-1.049.21-1.416.592l-2.113 2.2-2.028-2.174A1.92 1.92 0 0035.15 20H23.928C22.862 20 22 20.834 22 21.863v11.274c0 1.031.864 1.863 1.928 1.863h11.055c.538 0 1.05-.216 1.415-.599l2.13-2.224 2.021 2.195c.366.399.892.624 1.443.624h5.424c1.069 0 1.93-.834 1.93-1.86v-1.923h1.552c1.886 0 3.25-.374 4.243-.943v2.867c0 1.027.864 1.859 1.93 1.859h2.804c1.069 0 1.93-.834 1.93-1.86v-2.26h1.051c.257 0 .438.009.568.017.009.202.009.444.005.603v1.64c0 1.028.868 1.86 1.93 1.86h2.8c.313 0 .596-.082.853-.21.261.124.542.21.85.21h9.316c.302 0 .583-.082.837-.202.255.12.53.202.838.202h5.435c1.73 0 3.14-.41 4.195-1.132.29.663.973 1.132 1.772 1.132h5.435c3.954 0 6.31-2.027 6.31-5.42 0-1.57-.44-2.74-1.393-3.692zM50.9 29.35h-3.481v3.783h-5.425l-3.438-3.731-3.573 3.73H23.928V21.858H35.15l3.438 3.697 3.55-3.697h8.918c2.212 0 4.704.599 4.704 3.72 0 3.128-2.42 3.779-4.861 3.773zm15.433-1.452c.618.219 1.125.616 1.36.947.399.55.45 1.063.464 2.057v2.235h-2.8v-1.412c0-.676.067-1.682-.455-2.207-.4-.402-1.02-.496-2.043-.496h-2.981v4.115h-2.805V21.863h6.447c1.41 0 2.437.057 3.357.53.88.512 1.434 1.218 1.434 2.501a3.173 3.173 0 01-1.978 3.004zm12.84-3.705h-6.536v2.052h6.375v2.302h-6.375v2.24l6.536.012v2.338h-9.312V21.863h9.312v2.33zm7.118 8.931h-5.436v-2.422h5.412c.526 0 .903-.063 1.138-.28a.986.986 0 00.326-.736.938.938 0 00-.34-.744c-.217-.172-.504-.25-.994-.25-2.607-.082-5.877.078-5.877-3.487 0-1.64 1.062-3.357 3.99-3.357h5.593v2.4h-5.12c-.511 0-.84.02-1.119.205-.306.185-.422.456-.422.813 0 .426.26.71.61.84.298.099.611.128 1.088.128l1.499.042c1.512.04 2.554.292 3.183.908.548.544.838 1.233.838 2.39 0 2.43-1.565 3.563-4.37 3.55zm11.403 0H92.26v-2.422h5.414c.526 0 .903-.063 1.135-.28a.986.986 0 00.327-.736.938.938 0 00-.34-.744c-.215-.172-.502-.25-.994-.25-2.609-.082-5.877.078-5.877-3.487 0-1.64 1.062-3.357 3.99-3.357h5.592v2.4H96.39c-.514 0-.844.02-1.12.205-.308.185-.42.456-.42.813 0 .426.26.71.606.84.3.099.612.128 1.088.128l1.5.042c1.514.04 2.558.292 3.187.908.544.544.838 1.233.838 2.39 0 2.43-1.569 3.563-4.374 3.55zM94.072 0h-2.857c-1.068 0-1.93.834-1.93 1.861v1.164L87.96.9a1.953 1.953 0 00-1.649-.899h-4.253c-1.067 0-1.928.834-1.928 1.861v1.582L79.105 1.13A1.929 1.929 0 0077.336.002h-4.182c-.424 0-.829.135-1.15.37a1.96 1.96 0 00-1.156-.37h-2.696c-2.293 0-3.99.536-5.24 1.582A1.882 1.882 0 0061.045.002h-2.85c-.762 0-1.4.435-1.717 1.048-.12-.084-.211-.185-.346-.26-1.31-.731-2.687-.788-4.347-.788h-6.419c-.361 0-.677.122-.968.288-.285-.166-.605-.288-.966-.288H34.11c-.394 0-.736.14-1.04.334-.307-.193-.649-.334-1.04-.334h-4.652a1.93 1.93 0 00-1.771 1.136l-1.658 3.773-1.826-3.827A1.941 1.941 0 0020.372.002h-4.556c-1.067 0-1.928.834-1.928 1.861v1.62L12.84 1.126A1.933 1.933 0 0011.068 0H6.925c-.772 0-1.468.445-1.773 1.128L.156 12.402a1.808 1.808 0 00.161 1.758c.357.52.962.836 1.61.836h3.034c.774 0 1.477-.454 1.775-1.147l.59-1.37h3.233l.58 1.361c.297.698 1.002 1.154 1.785 1.154h5.677c1.066 0 1.927-.834 1.927-1.861v-.044l.366.8c.309.672 1 1.107 1.762 1.107l2.452.004c.766 0 1.454-.435 1.763-1.11l.37-.797v.046c0 1.027.861 1.859 1.927 1.859h2.862c.391 0 .733-.143 1.04-.334.304.191.646.334 1.04.334h9.32c.362 0 .682-.122.967-.288.29.166.607.288.968.288h2.794c1.066 0 1.927-.834 1.927-1.861v-2.24h1.067c.241 0 .413.007.541.015.013.191.01.418.01.57l-.005.247.01 1.423c.01 1.02.873 1.846 1.93 1.846h2.816c.316 0 .6-.095.864-.225.267.132.555.225.872.225h2.85c.936 0 1.676-.651 1.857-1.5 1.581 1.284 3.81 1.5 5.05 1.5h3.27a1.92 1.92 0 001.777-1.166l.568-1.35h3.216l.59 1.369a1.93 1.93 0 001.78 1.145h5.678c1.066 0 1.928-.834 1.928-1.861v-1.78l1.712 2.742c.35.556.975.899 1.654.899h3.951c1.066 0 1.928-.834 1.928-1.861V1.86C96 .834 95.134 0 94.072 0zM32.027 13.133h-2.86l-.012-8.829-4.047 8.829h-2.452l-4.053-8.837v8.837h-5.681l-1.073-2.515H6.04l-1.083 2.515H1.923L6.921 1.859h4.143l4.75 10.675V1.859h4.556l3.653 7.648 3.353-7.648h4.651v11.274zM43.43 4.207h-6.532V6.24h6.377v2.31h-6.377v2.252h6.532v2.332h-9.322V1.859h9.322v2.348zm11.177 3.695c.611.227 1.133.622 1.381.95.396.56.464 1.06.464 2.067v2.212h-2.816l-.013-1.423c0-.676.068-1.65-.44-2.195-.406-.395-1.029-.48-2.034-.48h-2.991v4.1H45.36V1.86h6.418c1.428 0 2.478.036 3.38.54.883.504 1.411 1.24 1.411 2.497a3.177 3.177 0 01-1.964 3.004zm6.438 5.23h-2.85V1.86h2.85v11.274zm33.028 0H90.12l-5.294-8.46v8.46h-5.679l-1.088-2.514h-5.8l-1.049 2.515h-3.268c-1.356 0-3.068-.29-4.038-1.246-.988-.958-1.497-2.256-1.497-4.304 0-1.672.307-3.201 1.495-4.411.898-.9 2.31-1.313 4.238-1.313h2.696v2.416H68.19c-1.016 0-1.592.145-2.145.668-.477.474-.8 1.371-.8 2.554 0 1.206.247 2.075.77 2.644.432.448 1.216.582 1.945.582h1.25l3.943-8.864h4.182l4.722 10.662V1.86h4.253l4.904 7.852V1.859h2.857v11.274zM69.164 6.139l-1.212 2.728a2.33 2.33 0 01-.548-.054c-.094-.168-.222-.54-.222-1.313 0-.781.195-1.187.222-1.223.08-.075.148-.14.802-.14l.958.002z"/><path d="M41 27.424L45 32v-9zM33.961 24H27v2.174h6.097v2.444H27V31h6.827L37 27.483z"/></g></svg>