<svg width="24" height="24" xmlns="http://www.w3.org/2000/svg"><g fill="none" fill-rule="evenodd"><path d="M20.108 3.892a3.039 3.039 0 00-4.378.08L5.844 15.149l-.101-.1a.771.771 0 00-1.091 0l-1.426 1.425a.771.771 0 000 1.091l3.21 3.21a.77.77 0 001.09 0l1.427-1.426a.771.771 0 000-1.09l-.101-.102 11.194-9.903a3.04 3.04 0 00.062-4.361zM6.981 19.138l-2.119-2.12.335-.335 2.12 2.12-.336.335zm.778-2.074l-.823-.823 3.43-3.876 1.27 1.27-3.877 3.429zm11.236-9.94l-6.202 5.487-1.404-1.404 5.487-6.202a1.498 1.498 0 112.12 2.119z" fill-rule="nonzero" fill="#999"/><circle stroke="#979797" stroke-width="1.5" cx="6" cy="5" r="2"/></g></svg>