<svg xmlns="http://www.w3.org/2000/svg" width="138" height="152"><g fill="#C8CBD0" fill-rule="evenodd"><path fill-rule="nonzero" d="M98.999 35.459c-9.666-8.648-22.15-12.613-35.151-11.168-10.182 1.133-19.792 5.869-27.06 13.336-7.261 7.462-11.743 17.194-12.619 27.405-.759 8.844 1.046 17.588 5.22 25.29a45.1 45.1 0 0017.392 17.733c3.592 2.04 5.736 5.58 5.736 9.468v17.999c0 3.846 3.13 6.974 6.976 6.974h.153v2.53c0 3.845 3.13 6.974 6.977 6.974h4.752c3.847 0 6.977-3.13 6.977-6.975v-2.529h.153c3.847 0 6.976-3.129 6.976-6.974v-17.62c0-4.087 2.25-7.825 6.017-10.002a45.254 45.254 0 0016.29-16.12A44.796 44.796 0 00114 68.994 45.054 45.054 0 0098.999 35.46zM73.905 145.025a2.532 2.532 0 01-2.53 2.529h-4.752a2.532 2.532 0 01-2.53-2.53v-2.528h9.812v2.529zm7.13-16.479h-.153a2.223 2.223 0 100 4.446h.153v2.53a2.532 2.532 0 01-2.53 2.528H59.493a2.532 2.532 0 01-2.53-2.529v-2.529h14.413a2.223 2.223 0 100-4.446H56.964v-5.057h24.07v5.057zm8.238-24.496c-5.158 2.98-8.238 8.159-8.238 13.85v1.143H56.964v-1.52c0-5.426-3.06-10.535-7.985-13.333a40.865 40.865 0 01-5.743-3.949 7.29 7.29 0 011.417-.836l6.16-2.737a32.906 32.906 0 0018.186 5.437c6.51 0 12.779-1.882 18.183-5.44l6.163 2.74c.51.226.985.505 1.422.834a40.724 40.724 0 01-5.494 3.811zM58.751 62.233a2.224 2.224 0 00-3.142-.126c-1.112 1.026-2.223 1.69-3.301 1.97a.359.359 0 01-.06.012.45.45 0 01-.037-.201V59.49c0-7.945 6.465-14.409 14.412-14.409h4.753c7.947 0 14.412 6.464 14.412 14.409v.485c0 .072-.043.134-.1.145-13.315 2.63-19.993-2.325-22.246-4.578a2.224 2.224 0 00-3.144 3.144c6.905 6.903 16.98 7.028 23.114 6.29v4.018c0 7.944-6.466 14.408-14.412 14.408-7.947 0-14.412-6.464-14.412-14.408v-1c1.387-.55 2.741-1.425 4.038-2.621a2.223 2.223 0 00.125-3.141zm2.966 25.057v-.905A18.757 18.757 0 0069 87.85c2.58 0 5.04-.521 7.282-1.463v.904a6.98 6.98 0 004.143 6.374l1.765.784A28.528 28.528 0 0169 97.66a28.498 28.498 0 01-13.192-3.21l1.766-.785a6.981 6.981 0 004.143-6.374zm42.243 2.227a40.636 40.636 0 01-5.892 7.684 11.788 11.788 0 00-2.916-1.86l-12.92-5.74a2.53 2.53 0 01-1.503-2.311v-3.547c4.34-3.458 7.13-8.782 7.13-14.748V64a4.606 4.606 0 002.376-4.026v-.484c0-10.397-8.46-18.855-18.859-18.855h-4.753c-10.398 0-18.859 8.458-18.859 18.855v4.397c0 1.502.647 2.864 1.775 3.735.19.147.392.277.602.39v.982c0 5.966 2.79 11.29 7.13 14.747v3.548a2.53 2.53 0 01-1.503 2.31l-12.92 5.742c-1.06.47-2.047 1.1-2.923 1.86a40.583 40.583 0 01-6.627-8.999c-3.758-6.935-5.383-14.816-4.698-22.791.788-9.19 4.828-17.957 11.376-24.684 6.551-6.731 15.204-11 24.363-12.018a42.647 42.647 0 014.717-.263c10.003 0 19.442 3.584 26.977 10.325a40.604 40.604 0 0113.52 30.222 40.35 40.35 0 01-5.593 20.523z"/><path d="M69 0c-1.105 0-2 1.011-2 2.258v14.484c0 1.247.895 2.258 2 2.258s2-1.011 2-2.258V2.258C71 1.011 70.105 0 69 0zm66.742 67h-14.484c-1.247 0-2.258.895-2.258 2s1.011 2 2.258 2h14.484c1.247 0 2.258-.895 2.258-2s-1.011-2-2.258-2zm-119 0H2.258C1.011 67 0 67.895 0 69s1.011 2 2.258 2h14.484C17.989 71 19 70.105 19 69s-1.011-2-2.258-2zm101.586-47.328a2.295 2.295 0 00-3.246 0l-10.41 10.41a2.295 2.295 0 103.246 3.246l10.41-10.41a2.295 2.295 0 000-3.246zm-85 84a2.295 2.295 0 00-3.246 0l-10.41 10.41a2.295 2.295 0 103.246 3.246l10.41-10.41a2.295 2.295 0 000-3.246zm85 10.409l-10.41-10.409a2.295 2.295 0 10-3.246 3.246l10.41 10.41a2.289 2.289 0 001.623.672 2.295 2.295 0 001.623-3.919zm-85-84l-10.41-10.409a2.295 2.295 0 10-3.246 3.246l10.41 10.41a2.289 2.289 0 001.623.672 2.295 2.295 0 001.623-3.919z"/></g></svg>