<svg width="16" height="14" xmlns="http://www.w3.org/2000/svg"><g fill="none" fill-rule="evenodd"><path d="M1.455 7.08C.653 7.08 0 7.732 0 8.532a1.45 1.45 0 001.455 1.446 1.45 1.45 0 001.454-1.446c0-.8-.65-1.452-1.454-1.452zM0 3.33v2.08c1.25 0 2.448.368 3.33 1.25.883.883 1.25 2.08 1.25 3.332h2.082C6.66 6.352 3.642 3.33 0 3.33zm7 2.912C5.69 3.74 3.083 2.08 0 2.08V0a9.994 9.994 0 018.654 5h-.659C7.455 5 7 5.446 7 5.995v.247z" fill="#1070AD"/><ellipse cx="1.07" cy="1.054" rx=".949" ry=".946" transform="translate(10.803 8.794)" fill="#1070AD"/><ellipse cx="1.07" cy=".972" rx=".949" ry=".946" transform="translate(10.803 11.714)" fill="#1070AD"/><ellipse cx="1.025" cy="1.054" rx=".949" ry=".946" transform="translate(8 8.794)" fill="#71C700"/><ellipse cx="1.025" cy=".972" rx=".949" ry=".946" transform="translate(8 11.714)" fill="#71C700"/><ellipse cx=".988" cy="1.054" rx=".949" ry=".946" transform="translate(13.732 8.794)" fill="#71C700"/><path d="M14.779 6.097H8.967a.861.861 0 00-.63.26.855.855 0 00-.262.629v.068c0 .246.087.455.261.629a.86.86 0 00.63.26h5.813a.89.89 0 00.891-.889v-.068a.89.89 0 00-.891-.89z" fill="#1070AD"/><ellipse cx=".988" cy=".972" rx=".949" ry=".946" transform="translate(13.732 11.714)" fill="#71C700"/></g></svg>