<svg xmlns="http://www.w3.org/2000/svg" xmlns:xlink="http://www.w3.org/1999/xlink" width="28" height="28"><defs><circle id="a" cx="14" cy="14" r="14"/></defs><g fill="none" fill-rule="evenodd"><use fill="#F7F7F7" xlink:href="#a"/><circle cx="14" cy="14" r="13.5" stroke="#C8CBD0"/><path d="M14.959 7c.85 0 1.274.586 1.274 1.256 0 .837-.738 1.611-1.699 1.611-.804 0-1.273-.481-1.251-1.276 0-.67.558-1.591 1.676-1.591zm-2.615 12.833c-.67 0-1.162-.418-.693-2.26l.77-3.267c.134-.523.156-.733 0-.733-.201 0-1.071.362-1.586.718l-.335-.566c1.631-1.402 3.508-2.224 4.312-2.224.67 0 .782.816.447 2.072l-.881 3.434c-.157.607-.09.817.067.817.2 0 .86-.252 1.508-.776l.38.524c-1.586 1.633-3.318 2.261-3.989 2.261z" fill="#D0011B" fill-rule="nonzero"/></g></svg>