<svg width="24" height="24" xmlns="http://www.w3.org/2000/svg"><path d="M17.742 7H7.258C6.566 7 6 7.53 6 8.179c0 .648.566 1.178 1.258 1.178h10.484c.692 0 1.258-.53 1.258-1.178C19 7.53 18.434 7 17.742 7zm0 4.321H7.258c-.692 0-1.258.53-1.258 1.179 0 .648.566 1.179 1.258 1.179h10.484c.692 0 1.258-.53 1.258-1.179 0-.648-.566-1.179-1.258-1.179zm0 4.322H7.258c-.692 0-1.258.53-1.258 1.178C6 17.47 6.566 18 7.258 18h10.484c.692 0 1.258-.53 1.258-1.179 0-.648-.566-1.178-1.258-1.178z" fill="#999" fill-rule="evenodd"/></svg>