<svg width="16" height="16" xmlns="http://www.w3.org/2000/svg"><path d="M16 3.543c-.59.26-1.22.437-1.885.518a3.294 3.294 0 001.444-1.817 6.523 6.523 0 01-2.085.797A3.283 3.283 0 007.88 6.035 9.303 9.303 0 011.112 2.6a3.286 3.286 0 001.02 4.387 3.206 3.206 0 01-1.491-.41v.04A3.285 3.285 0 003.275 9.84a3.304 3.304 0 01-.864.115c-.21 0-.417-.02-.617-.06a3.288 3.288 0 003.068 2.281A6.581 6.581 0 010 13.535a9.175 9.175 0 005.025 1.485c6.045 0 9.348-5.008 9.348-9.351 0-.143-.004-.285-.01-.424A6.682 6.682 0 0016 3.543z" fill="#7E888E"/></svg>