<svg xmlns="http://www.w3.org/2000/svg" width="248" height="248"><g fill="none" fill-rule="evenodd"><circle cx="124" cy="124" r="124" fill="#556080"/><g fill="#FFF" transform="translate(42 44)"><ellipse cx="82.52" cy="46.456" rx="46.406" ry="46.301"/><path d="M82.5 188.447c-33.327 0-64.242-15.43-82.5-41.157 8.301-11.697 19.473-21.54 32.568-28.651 15.068-8.181 32.333-12.506 49.931-12.506s34.863 4.325 49.931 12.506c13.096 7.111 24.269 16.956 32.57 28.651-18.235 25.693-49.135 41.157-82.5 41.157z"/></g><g transform="translate(176)"><circle cx="36" cy="36" r="36" fill="#71C700"/><path fill="#FFF" fill-rule="nonzero" d="M49.873 24.483l-.804-.695a3.22 3.22 0 00-4.514.29L31.117 39.09l-4.056-3.52a3.22 3.22 0 00-4.515.285l-.71.791a3.277 3.277 0 00.233 4.61l7.435 6.86a3.224 3.224 0 004.67-.25l16.042-18.78a3.277 3.277 0 00-.343-4.603z"/></g></g></svg>