<svg width="16" height="16" xmlns="http://www.w3.org/2000/svg"><g fill="#686868"><path d="M10.991 8l-3.918 3.886a.246.246 0 00.004.353l.701.683c.1.098.265.1.363.004l4.786-4.745a.227.227 0 00.07-.181.24.24 0 00-.07-.18L8.141 3.07a.263.263 0 00-.363.005l-.7.683a.246.246 0 00-.005.353L10.99 8z"/><path d="M6.991 8l-3.918 3.886a.246.246 0 00.004.353l.701.683c.1.098.265.1.363.004l4.786-4.745A.227.227 0 008.997 8a.24.24 0 00-.07-.18L4.141 3.07a.263.263 0 00-.363.005l-.7.683a.246.246 0 00-.005.353L6.99 8z"/></g></svg>