<svg width="24" height="24" xmlns="http://www.w3.org/2000/svg"><path d="M21.19 14.999h-.324c-.398-3.074-3.01-5.455-6.163-5.455-.42 0-.83.042-1.226.123l.083-1.813h.306c.448 0 .81-.366.81-.818a.815.815 0 00-.81-.818H9.15V4.636h2.081a.814.814 0 00.811-.818.815.815 0 00-.81-.818H8.337a.815.815 0 00-.81.818v2.4H2.81a.815.815 0 00-.81.818c0 .452.363.818.81.818h.312l.629 12.37a.814.814 0 00.81.776h6.538l.028-.001h7.18c1.44 0 2.612-1.183 2.612-2.637v-1.727h.27c.448 0 .81-.366.81-.818a.814.814 0 00-.81-.818zm-1.964 0H10.18c.384-2.168 2.266-3.819 4.523-3.819 2.257 0 4.139 1.65 4.523 3.819zM4.746 7.854h7.19l-.109 2.403a6.286 6.286 0 00-3.288 4.742h-.323a.815.815 0 00-.81.818c0 .452.362.818.81.818h.27v1.727c0 .355.07.693.197 1.002H5.33l-.586-11.51zm14.551 10.508c0 .552-.444 1-.99 1h-7.208a.997.997 0 01-.99-1v-1.727h9.188v1.727z" fill="#999"/></svg>