<svg xmlns="http://www.w3.org/2000/svg" width="16" height="16"><g transform="translate(1 1)" fill="#6001D1"><path d="M6.065 3.214L4.411 7.303 2.815 3.217a.311.311 0 00-.291-.198H.312a.313.313 0 00-.289.43l2.986 7.327-.763 1.889a.313.313 0 00.29.43h2.142a.313.313 0 00.29-.196l3.822-9.45a.313.313 0 00-.29-.43H6.356a.313.313 0 00-.29.195zm5.26-3.018a.314.314 0 01.29-.196h2.146c.221 0 .372.224.29.43l-2.268 5.584a.312.312 0 01-.29.195H9.352a.313.313 0 01-.29-.429L11.325.196z"/><circle cx="9.522" cy="8.897" r="1.733"/></g></svg>