<svg xmlns="http://www.w3.org/2000/svg" width="22" height="22"><path fill="#FFF" d="M10.997 21.995C4.922 21.995 0 17.073 0 10.997 0 4.922 4.922 0 10.997 0c6.076 0 10.998 4.922 10.998 10.997 0 6.076-4.922 10.998-10.998 10.998zm0-21.08C5.435.915.915 5.441.915 10.997c0 5.563 4.526 10.083 10.082 10.083 5.557 0 10.083-4.526 10.083-10.083C21.08 5.435 16.554.915 10.997.915zM9.306 15.65h.846V9.306h-.846v-.423h2.537v6.768h.847v.423H9.306v-.424zm1.454-8.036a1.058 1.058 0 110-2.117 1.058 1.058 0 010 2.117z"/></svg>