<svg xmlns="http://www.w3.org/2000/svg" width="248" height="248"><g fill="none" fill-rule="evenodd"><circle cx="124" cy="124" r="124" fill="#556080"/><g fill="#FFF" transform="translate(42 44)"><ellipse cx="82.52" cy="46.456" rx="46.406" ry="46.301"/><path d="M82.5 188.447c-33.327 0-64.242-15.43-82.5-41.157 8.301-11.697 19.473-21.54 32.568-28.651 15.068-8.181 32.333-12.506 49.931-12.506s34.863 4.325 49.931 12.506c13.096 7.111 24.269 16.956 32.57 28.651-18.235 25.693-49.135 41.157-82.5 41.157z"/></g><g transform="translate(176)"><circle cx="36" cy="36" r="36" fill="#71C700"/><path fill="#FFF" d="M23 33h26a3 3 0 010 6H23a3 3 0 010-6z"/><path fill="#FFF" d="M39 23v26a3 3 0 01-6 0V23a3 3 0 016 0z"/></g></g></svg>