<svg xmlns="http://www.w3.org/2000/svg" width="16" height="16"><path d="M15.966 3.517a6.719 6.719 0 01-1.88.51 3.247 3.247 0 001.44-1.787c-.632.37-1.332.64-2.08.783A3.293 3.293 0 0011.055 2C9.245 2 7.78 3.447 7.78 5.23c0 .253.027.5.085.737A9.328 9.328 0 011.113 2.59 3.202 3.202 0 00.67 4.213c0 1.12.582 2.11 1.461 2.69A3.231 3.231 0 01.643 6.5v.04c0 1.567 1.13 2.87 2.628 3.167a3.358 3.358 0 01-.863.113c-.21 0-.416-.02-.615-.06a3.273 3.273 0 003.061 2.243 6.626 6.626 0 01-4.85 1.337 9.247 9.247 0 005.012 1.46c6.032 0 9.326-4.923 9.326-9.193 0-.14-.003-.28-.01-.417a6.611 6.611 0 001.634-1.673z" fill="#1DA1F2" fill-rule="evenodd"/></svg>