<svg xmlns="http://www.w3.org/2000/svg" width="16" height="16"><path fill="#72C700" fill-rule="evenodd" d="M13.893 3.315l-1.58-1.246A.284.284 0 0012.134 2a.276.276 0 00-.181.072L6.21 9.452S3.952 7.281 3.889 7.217c-.063-.063-.147-.169-.273-.169-.127 0-.184.089-.25.155-.049.052-.854.897-1.251 1.317a1.201 1.201 0 01-.058.061.282.282 0 00-.057.163c0 .064.023.115.057.164l.081.074s4.006 3.849 4.072 3.914c.066.066.147.15.265.15.115 0 .21-.124.264-.178l7.163-9.203a.285.285 0 00.059-.167.3.3 0 00-.068-.183z"/></svg>