<svg width="24" height="24" xmlns="http://www.w3.org/2000/svg"><path d="M17 5.627v12.747c0 .345-.236.626-.527.626H7.528C7.236 19 7 18.72 7 18.374v-.546h.487c.453 0 .821-.46.821-1.025s-.368-1.024-.82-1.024H7v-1.153h.487c.453 0 .821-.46.821-1.025 0-.566-.368-1.025-.82-1.025H7v-1.152h.487c.453 0 .821-.46.821-1.025s-.368-1.025-.82-1.025H7V8.221h.487c.453 0 .821-.46.821-1.024 0-.566-.368-1.025-.82-1.025H7v-.545C7 5.28 7.236 5 7.528 5h8.945c.291 0 .527.28.527.627z" fill="#999" fill-rule="evenodd"/></svg>