<svg xmlns="http://www.w3.org/2000/svg" width="20" height="20"><path d="M7.884 10.428c-.926 0-1.678.751-1.678 1.677v4.196a1.678 1.678 0 003.355 0v-4.196c0-.926-.752-1.677-1.677-1.677zm-5.871 1.677a1.68 1.68 0 003.357 0v-1.678H3.691a1.68 1.68 0 00-1.678 1.678zM7.886 2.01h-.002a1.68 1.68 0 000 3.357H9.56V3.685c0-.925-.75-1.675-1.675-1.675zM3.68 9.576h4.204a1.68 1.68 0 000-3.358H3.68a1.68 1.68 0 000 3.358zm12.597-3.358c-.926 0-1.676.75-1.676 1.675v1.682h1.678a1.68 1.68 0 000-3.357h-.002zm-5.867-2.53v4.209a1.678 1.678 0 003.356 0V3.688a1.678 1.678 0 00-3.355 0zM13.765 16.3c0-.926-.751-1.678-1.677-1.678H10.41v1.68a1.677 1.677 0 003.355-.002zm2.526-5.873h-4.203a1.68 1.68 0 000 3.357h4.203a1.68 1.68 0 000-3.357z" fill="#FFF"/></svg>