<svg xmlns="http://www.w3.org/2000/svg" width="16" height="16"><path fill="#1070AD" d="M14.564 4.316l-1.488 1.512-.084.087-.05.053a.21.21 0 01-.256-.012l-.027-.029-.084-.084-1.288-1.312-.069-.069-.053-.053a.303.303 0 01-.05-.165c0-.053.02-.1.05-.137l.022-.025.081-.081 1.494-1.518c-.16-.315-.77-.464-1.095-.44-.533.041-1.081.219-1.646.795-.021.025-.046.05-.068.072-.767.835-.92 1.958-.608 2.986a.64.64 0 01.05.143.43.43 0 01-.125.421L8.088 7.595c-.367-.374-.42-.424-.42-.424a.248.248 0 00-.297-.037l-.183.112c-.708-.72-1.007-1.01-1.104-1.36-.1-.364-.01-.85.084-1.03.078-.144.321-.278.527-.294l.268.274a.154.154 0 00.221 0l.964-.978a.162.162 0 000-.228L6.592 2.05a.154.154 0 00-.221 0l-.964.979a.162.162 0 000 .227l.103.106c0 .153-.022.39-.146.517-.193.197-.577-.03-.826.147a6.766 6.766 0 00-.758.655c-.196.199-.95.99-1.49 2.325-.54 1.334-.125 2.571.168 2.895.156.172.44.346.39.022-.05-.327-.131-1.462.24-1.926.371-.465.86-.845 1.496-.876.611-.031.964.178 1.756.982l-.088.162a.274.274 0 00.038.302s.046.05.377.387l-3.03 2.905c-.505.445-.477 1.262-.01 1.745.474.474 1.282.508 1.721-.006l2.85-3.073a65.152 65.152 0 012.908 3.347.154.154 0 00.222 0l1.555-1.58a.162.162 0 000-.228s-1.72-1.424-3.336-2.998l1.107-1.194a.417.417 0 01.415-.128.59.59 0 01.14.053c1.01.318 2.114.162 2.93-.617.026-.022.047-.046.072-.071.565-.574.74-1.135.78-1.677.03-.33-.11-.945-.427-1.116z"/></svg>