<svg xmlns="http://www.w3.org/2000/svg" width="231" height="290"><g fill="none" fill-rule="evenodd"><g fill-rule="nonzero"><path fill="#DC8744" d="M197.333 130H16.668C7.463 130 0 137.502 0 146.756v126.488C0 282.498 7.463 290 16.668 290h180.665c9.204 0 16.667-7.502 16.667-16.756V146.756c0-9.254-7.462-16.756-16.667-16.756z"/><path fill="#3A556A" d="M157.812 78.889V120H186V78.889C186 35.39 150.56 0 107 0v28.148c28.02 0 50.812 22.761 50.812 50.74z"/><path fill="#64798A" d="M57.188 120V78.889c0-27.98 22.794-50.74 50.812-50.74V0C64.44 0 29 35.39 29 78.889V120h28.188z"/><path fill="#F6C358" d="M197.332 120H107v160h90.333c9.204 0 16.667-7.502 16.667-16.756V136.757c-.001-9.255-7.463-16.757-16.668-16.757z"/><path fill="#FCD462" d="M56.392 120H16.668C7.463 120 0 127.502 0 136.756v126.488C0 272.498 7.463 280 16.668 280H107V120H56.392z"/><path fill="#DC8744" d="M126 174.999c0-10.492-8.506-18.999-19-18.999-10.493 0-19 8.506-19 18.999 0 6.745 3.538 12.633 8.837 16.004L91.171 218h31.658l-5.666-26.997c5.299-3.372 8.837-9.259 8.837-16.004z"/></g><g transform="translate(159 21)"><circle cx="36" cy="36" r="36" fill="#D0011B"/><path fill="#FFF" d="M50.173 46.2L39.975 35.998 50.173 25.8a2.8 2.8 0 000-3.973 2.8 2.8 0 00-3.973 0L35.998 32.025 25.8 21.827a2.8 2.8 0 00-3.973 0 2.8 2.8 0 000 3.973l10.198 10.198L21.827 46.2a2.8 2.8 0 000 3.973 2.8 2.8 0 003.973 0l10.198-10.198 10.2 10.198a2.8 2.8 0 003.972 0 2.814 2.814 0 00.003-3.973z"/></g></g></svg>