<svg xmlns="http://www.w3.org/2000/svg" width="16" height="16"><g fill="none"><path fill="#1977F3" d="M16.118 8.06A8.059 8.059 0 100 8.06a8.062 8.062 0 006.8 7.961v-5.632H4.753V8.06H6.8V6.283c0-2.02 1.204-3.136 3.044-3.136.882 0 1.805.158 1.805.158v1.983h-1.017c-1 0-1.314.621-1.314 1.26v1.511h2.235l-.357 2.33H9.318v5.632a8.06 8.06 0 006.8-7.962z"/><path fill="#FEFEFE" d="M11.196 10.39l.357-2.33H9.318V6.546c0-.637.312-1.259 1.314-1.259h1.017V3.305s-.923-.158-1.805-.158c-1.84 0-3.044 1.116-3.044 3.136V8.06H4.753v2.33H6.8v5.632a8.278 8.278 0 002.518 0V10.39h1.878z"/></g></svg>