<svg xmlns="http://www.w3.org/2000/svg" xmlns:xlink="http://www.w3.org/1999/xlink" width="124" height="124"><defs><filter id="b" width="102.6%" height="102.5%" x="-1.3%" y="-1.2%" filterUnits="objectBoundingBox"><feOffset dy="-3" in="SourceAlpha" result="shadowOffsetInner1"/><feComposite in="shadowOffsetInner1" in2="SourceAlpha" k2="-1" k3="1" operator="arithmetic" result="shadowInnerInner1"/><feColorMatrix in="shadowInnerInner1" values="0 0 0 0 0.815686275 0 0 0 0 0.819607843 0 0 0 0 0.815686275 0 0 0 1 0"/></filter><filter id="d" width="102.6%" height="103.7%" x="-1.3%" y="-1.8%" filterUnits="objectBoundingBox"><feOffset dy="-3" in="SourceAlpha" result="shadowOffsetInner1"/><feComposite in="shadowOffsetInner1" in2="SourceAlpha" k2="-1" k3="1" operator="arithmetic" result="shadowInnerInner1"/><feColorMatrix in="shadowInnerInner1" values="0 0 0 0 0.792156863 0 0 0 0 0.792156863 0 0 0 0 0.792156863 0 0 0 1 0"/></filter><filter id="f" width="102.5%" height="104%" x="-1.2%" y="-2%" filterUnits="objectBoundingBox"><feOffset dy="-3" in="SourceAlpha" result="shadowOffsetInner1"/><feComposite in="shadowOffsetInner1" in2="SourceAlpha" k2="-1" k3="1" operator="arithmetic" result="shadowInnerInner1"/><feColorMatrix in="shadowInnerInner1" values="0 0 0 0 0.792156863 0 0 0 0 0.792156863 0 0 0 0 0.792156863 0 0 0 1 0"/></filter><filter id="i" width="102.4%" height="104.3%" x="-1.2%" y="-2.1%" filterUnits="objectBoundingBox"><feOffset dy="-3" in="SourceAlpha" result="shadowOffsetInner1"/><feComposite in="shadowOffsetInner1" in2="SourceAlpha" k2="-1" k3="1" operator="arithmetic" result="shadowInnerInner1"/><feColorMatrix in="shadowInnerInner1" values="0 0 0 0 0.79333673 0 0 0 0 0.79333673 0 0 0 0 0.79333673 0 0 0 1 0"/></filter><path id="a" d="M17.875 0h89.542c7.732 0 14 6.268 14 14v93.304c0 7.732-6.268 14-14 14H17.875c-7.732 0-14-6.268-14-14V14c0-7.732 6.268-14 14-14z"/><path id="c" d="M121.417 61.565V107c0 9.389-7.611 17-17 17H20.875c-9.389 0-17-7.611-17-17V61.992c0-9.355 7.558-16.952 16.913-17l83.542-.427c9.389-.047 17.039 7.525 17.086 16.913v.087z"/><path id="e" d="M121.501 43.13l1.205 61.253c.154 7.857-6.077 14.226-13.918 14.226H16.504c-7.841 0-14.072-6.37-13.918-14.226L3.78 43.7l117.722-.57z"/><path id="h" d="M120.556 0l3.228 55.928c.452 7.82-5.777 14.159-13.912 14.159H14.128c-8.135 0-14.364-6.34-13.912-14.159L3.414.528 120.556 0z"/><linearGradient id="g" x1="95.424%" x2="76.328%" y1="48.019%" y2="51.343%"><stop offset="0%" stop-color="#3485B9"/><stop offset="100%" stop-color="#1573AD"/></linearGradient><linearGradient id="j" x1="56.4%" x2="100%" y1="42.235%" y2="73.783%"><stop offset="0%" stop-opacity=".102"/><stop offset="100%" stop-color="#E8E8E8" stop-opacity="0"/></linearGradient></defs><g fill="none" fill-rule="evenodd"><use fill="#EBECEB" xlink:href="#a"/><use fill="#000" filter="url(#b)" xlink:href="#a"/><use fill="#EBECEB" xlink:href="#c"/><use fill="#000" filter="url(#d)" xlink:href="#c"/><use fill="#EBECEB" xlink:href="#e"/><use fill="#000" filter="url(#f)" xlink:href="#e"/><path fill="url(#g)" d="M28.922 13.478h66.156c6.7 0 12.13 5.431 12.13 12.13 0 6.7-5.43 12.131-12.13 12.131H28.922c-6.7 0-12.13-5.43-12.13-12.13 0-6.7 5.43-12.13 12.13-12.13z"/><g transform="translate(0 43.13)"><use fill="#EBECEB" xlink:href="#h"/><use fill="#000" filter="url(#i)" xlink:href="#h"/><path fill="#1070AD" d="M61.647 25.486c6.431 0 11.595-4.596 11.533-10.265-.062-5.67-5.222-10.265-11.526-10.265-6.304 0-11.467 4.596-11.533 10.265-.065 5.67 5.095 10.265 11.526 10.265zm-.01 29.734c6.615 0 11.928-4.596 11.866-10.265-.062-5.67-5.371-10.265-11.859-10.265-6.488 0-11.8 4.595-11.866 10.265-.065 5.67 5.244 10.265 11.859 10.265z"/><path fill="#71C700" d="M27.79 25.486c6.43 0 11.74-4.596 11.86-10.265.12-5.67-4.894-10.265-11.198-10.265S16.838 9.552 16.592 15.22c-.247 5.67 4.767 10.265 11.198 10.265zm-.96 29.734c6.615 0 12.075-4.596 12.194-10.265.12-5.67-5.043-10.265-11.531-10.265s-11.948 4.595-12.194 10.265c-.246 5.67 4.916 10.265 11.531 10.265zm68.675-29.734c6.43 0 11.447-4.596 11.205-10.265-.243-5.67-5.55-10.265-11.854-10.265-6.304 0-11.32 4.596-11.205 10.265.116 5.67 5.423 10.265 11.854 10.265zm.939 29.734c6.615 0 11.78-4.596 11.538-10.265-.243-5.67-5.699-10.265-12.187-10.265-6.488 0-11.653 4.595-11.538 10.265.116 5.67 5.572 10.265 12.187 10.265z"/><path fill="url(#j)" d="M120.556 0l3.228 55.928c.452 7.82-5.777 14.159-13.912 14.159H71.856L3.414.529 120.556 0z" opacity=".531" style="mix-blend-mode:darken"/></g></g></svg>