<svg xmlns="http://www.w3.org/2000/svg" width="16" height="16"><g transform="translate(1 1)" fill="none"><circle cx="6.977" cy="6.953" r="1.71" fill="#1070AD"/><circle cx="6.977" cy="12.084" r="1.71" fill="#1070AD"/><circle cx="1.846" cy="6.953" r="1.71" fill="#71C700"/><circle cx="1.846" cy="12.084" r="1.71" fill="#71C700"/><circle cx="12.108" cy="6.953" r="1.71" fill="#71C700"/><path fill="#1070AD" d="M12.213.175H1.742c-.444 0-.823.157-1.137.47-.313.314-.47.693-.47 1.136v.124c0 .444.157.823.47 1.136.314.314.693.47 1.137.47h10.47c.888 0 1.607-.718 1.607-1.606v-.124c0-.887-.72-1.606-1.606-1.606z"/><circle cx="12.108" cy="12.084" r="1.71" fill="#71C700"/></g></svg>