<svg width="16" height="16" xmlns="http://www.w3.org/2000/svg"><path d="M6.114 12.155l-.707.702a1.582 1.582 0 01-2.221 0 1.53 1.53 0 01-.456-1.092c0-.413.162-.801.456-1.093l2.601-2.581c.54-.533 1.554-1.32 2.293-.587a.864.864 0 001.223-.005.864.864 0 00-.004-1.224c-1.256-1.246-3.113-1.015-4.73.589l-2.601 2.58A3.25 3.25 0 001 11.766c0 .877.344 1.7.968 2.319a3.292 3.292 0 002.329.956c.844 0 1.688-.318 2.33-.956l.708-.702a.864.864 0 00.004-1.223.868.868 0 00-1.225-.005zm7.883-10.024C12.648.792 10.761.72 9.512 1.959l-.881.874a.866.866 0 001.22 1.229l.88-.874c.647-.643 1.494-.376 2.047.172.295.292.457.68.457 1.093 0 .412-.162.8-.456 1.092l-2.775 2.752c-1.27 1.26-1.865.669-2.119.416a.865.865 0 00-1.219 1.228c.583.579 1.247.865 1.944.865.854 0 1.755-.43 2.612-1.28l2.775-2.753c.623-.62.967-1.443.967-2.321a3.245 3.245 0 00-.967-2.321z" fill="#283842" fill-rule="evenodd"/></svg>