<svg xmlns="http://www.w3.org/2000/svg" xmlns:xlink="http://www.w3.org/1999/xlink" width="236" height="755"><defs><path id="a" d="M20.875 0h180.542c7.732 0 14 6.268 14 14v187.217c0 7.732-6.268 14-14 14H20.875c-7.732 0-14-6.268-14-14V14c0-7.732 6.268-14 14-14z"/><path id="b" d="M20.875 0h180.542c7.732 0 14 6.268 14 14v161c0 7.732-6.268 14-14 14H20.875c-7.732 0-14-6.268-14-14V14c0-7.732 6.268-14 14-14z"/><path id="c" d="M51.313 23.913h117.374c11.886 0 21.521 9.636 21.521 21.522s-9.635 21.522-21.521 21.522H51.313c-11.886 0-21.521-9.636-21.521-21.522s9.635-21.522 21.521-21.522z"/><path id="d" d="M215.836 0l5.78 99.227c.809 13.874-10.343 25.12-24.908 25.12H25.292c-14.565 0-25.717-11.246-24.909-25.12L6.11.938 215.836 0z"/><path id="e" d="M109.374 45.217c11.41 0 20.57-8.154 20.461-18.212-.109-10.059-9.264-18.213-20.449-18.213-11.184 0-20.345 8.154-20.461 18.213-.116 10.058 9.04 18.212 20.449 18.212z"/><path id="f" d="M109.356 97.971c11.736 0 21.162-8.154 21.053-18.213-.11-10.058-9.53-18.212-21.04-18.212-11.511 0-20.937 8.154-21.053 18.212-.116 10.059 9.304 18.213 21.04 18.213z"/><path id="g" d="M49.304 45.217c11.41 0 20.831-8.154 21.043-18.212.212-10.059-8.684-18.213-19.868-18.213s-20.605 8.154-21.043 18.213C29 37.063 37.894 45.217 49.304 45.217z"/><path id="h" d="M47.602 97.971c11.737 0 21.422-8.154 21.634-18.213.212-10.058-8.948-18.212-20.459-18.212-11.51 0-21.196 8.154-21.634 18.212-.437 10.059 8.723 18.213 20.46 18.213z"/><path id="i" d="M169.444 45.217c11.41 0 20.31-8.154 19.88-18.212-.43-10.059-9.846-18.213-21.03-18.213-11.185 0-20.085 8.154-19.88 18.213.204 10.058 9.62 18.212 21.03 18.212z"/><path id="j" d="M171.11 97.971c11.736 0 20.901-8.154 20.471-18.213-.43-10.058-10.11-18.212-21.621-18.212s-20.677 8.154-20.472 18.212c.205 10.059 9.886 18.213 21.622 18.213z"/><path id="v" d="M20.875 0h180.542c7.732 0 14 6.268 14 14v187.217c0 7.732-6.268 14-14 14H20.875c-7.732 0-14-6.268-14-14V14c0-7.732 6.268-14 14-14z"/><path id="x" d="M215.417 96v107c0 9.389-7.611 17-17 17H23.875c-9.389 0-17-7.611-17-17V96.89c0-9.354 7.558-16.951 16.913-16.999l174.542-.89c9.389-.049 17.039 7.524 17.086 16.912V96z"/><path id="z" d="M215.567 76.522l2.136 108.674c.274 13.939-10.781 25.239-24.693 25.239H29.281c-13.911 0-24.967-11.3-24.693-25.239L6.705 77.532l208.862-1.01z"/><path id="C" d="M213.889 0l5.728 99.227c.8 13.874-10.25 25.12-24.683 25.12H25.066c-14.433 0-25.484-11.246-24.683-25.12L6.057.938 213.889 0z"/><linearGradient id="k" x1="50%" x2="50%" y1="0%" y2="100%"><stop offset="0%" stop-color="#CFD9E9"/><stop offset="100%" stop-color="#1573AD"/></linearGradient><linearGradient id="B" x1="95.424%" x2="76.328%" y1="48.019%" y2="51.343%"><stop offset="0%" stop-color="#3485B9"/><stop offset="100%" stop-color="#1573AD"/></linearGradient><linearGradient id="E" x1="56.4%" x2="100%" y1="42.235%" y2="73.783%"><stop offset="0%" stop-opacity=".102"/><stop offset="100%" stop-color="#E8E8E8" stop-opacity="0"/></linearGradient><linearGradient id="F" x1="44.453%" x2="97.135%" y1="44.027%" y2="88.747%"><stop offset="0%" stop-color="#ACC130"/><stop offset="100%" stop-color="#97A03B"/></linearGradient><linearGradient id="G" x1="67.96%" x2="26.828%" y1="64.627%" y2="35.881%"><stop offset="0%" stop-color="#97A03B" stop-opacity="0"/><stop offset="100%" stop-color="#575C55"/></linearGradient><linearGradient id="H" x1="38.847%" x2="51.179%" y1="38.705%" y2="52.665%"><stop offset="0%" stop-color="#97A03B"/><stop offset="100%" stop-color="#6C7D47"/></linearGradient><linearGradient id="I" x1="44.421%" x2="97.405%" y1="44.027%" y2="88.747%"><stop offset="0%" stop-color="#ACC130"/><stop offset="100%" stop-color="#97A03B"/></linearGradient><linearGradient id="J" x1="68.128%" x2="26.611%" y1="64.627%" y2="35.881%"><stop offset="0%" stop-color="#97A03B" stop-opacity="0"/><stop offset="100%" stop-color="#575C55"/></linearGradient><linearGradient id="K" x1="39.163%" x2="51.145%" y1="38.705%" y2="52.665%"><stop offset="0%" stop-color="#97A03B"/><stop offset="100%" stop-color="#6C7D47"/></linearGradient><linearGradient id="L" x1="44.486%" x2="96.852%" y1="44.027%" y2="88.747%"><stop offset="0%" stop-color="#ACC130"/><stop offset="100%" stop-color="#97A03B"/></linearGradient><linearGradient id="M" x1="67.667%" x2="27.206%" y1="64.627%" y2="35.881%"><stop offset="0%" stop-color="#97A03B" stop-opacity="0"/><stop offset="100%" stop-color="#575C55"/></linearGradient><linearGradient id="N" x1="39.362%" x2="51.124%" y1="38.705%" y2="52.665%"><stop offset="0%" stop-color="#97A03B"/><stop offset="100%" stop-color="#6C7D47"/></linearGradient><mask id="l" width="208.542" height="215.217" x="0" y="0" fill="#fff" maskContentUnits="userSpaceOnUse" maskUnits="objectBoundingBox"><use xlink:href="#a"/></mask><mask id="m" width="208.542" height="189" x="0" y="0" fill="#fff" maskContentUnits="userSpaceOnUse" maskUnits="objectBoundingBox"><use xlink:href="#b"/></mask><mask id="n" width="160.417" height="43.043" x="0" y="0" fill="#fff" maskContentUnits="userSpaceOnUse" maskUnits="objectBoundingBox"><use xlink:href="#c"/></mask><mask id="o" width="221.316" height="124.348" x="0" y="0" fill="#fff" maskContentUnits="userSpaceOnUse" maskUnits="objectBoundingBox"><use xlink:href="#d"/></mask><mask id="p" width="40.912" height="36.425" x="0" y="0" fill="#fff" maskContentUnits="userSpaceOnUse" maskUnits="objectBoundingBox"><use xlink:href="#e"/></mask><mask id="q" width="42.095" height="36.425" x="0" y="0" fill="#fff" maskContentUnits="userSpaceOnUse" maskUnits="objectBoundingBox"><use xlink:href="#f"/></mask><mask id="r" width="40.93" height="36.425" x="0" y="0" fill="#fff" maskContentUnits="userSpaceOnUse" maskUnits="objectBoundingBox"><use xlink:href="#g"/></mask><mask id="s" width="42.111" height="36.425" x="0" y="0" fill="#fff" maskContentUnits="userSpaceOnUse" maskUnits="objectBoundingBox"><use xlink:href="#h"/></mask><mask id="t" width="40.929" height="36.425" x="0" y="0" fill="#fff" maskContentUnits="userSpaceOnUse" maskUnits="objectBoundingBox"><use xlink:href="#i"/></mask><mask id="u" width="42.111" height="36.425" x="0" y="0" fill="#fff" maskContentUnits="userSpaceOnUse" maskUnits="objectBoundingBox"><use xlink:href="#j"/></mask><filter id="w" width="101.4%" height="101.4%" x="-.7%" y="-.7%" filterUnits="objectBoundingBox"><feOffset dy="-3" in="SourceAlpha" result="shadowOffsetInner1"/><feComposite in="shadowOffsetInner1" in2="SourceAlpha" k2="-1" k3="1" operator="arithmetic" result="shadowInnerInner1"/><feColorMatrix in="shadowInnerInner1" values="0 0 0 0 0.815686275 0 0 0 0 0.819607843 0 0 0 0 0.815686275 0 0 0 1 0"/></filter><filter id="y" width="101.4%" height="102.1%" x="-.7%" y="-1%" filterUnits="objectBoundingBox"><feOffset dy="-3" in="SourceAlpha" result="shadowOffsetInner1"/><feComposite in="shadowOffsetInner1" in2="SourceAlpha" k2="-1" k3="1" operator="arithmetic" result="shadowInnerInner1"/><feColorMatrix in="shadowInnerInner1" values="0 0 0 0 0.792156863 0 0 0 0 0.792156863 0 0 0 0 0.792156863 0 0 0 1 0"/></filter><filter id="A" width="101.4%" height="102.2%" x="-.7%" y="-1.1%" filterUnits="objectBoundingBox"><feOffset dy="-3" in="SourceAlpha" result="shadowOffsetInner1"/><feComposite in="shadowOffsetInner1" in2="SourceAlpha" k2="-1" k3="1" operator="arithmetic" result="shadowInnerInner1"/><feColorMatrix in="shadowInnerInner1" values="0 0 0 0 0.792156863 0 0 0 0 0.792156863 0 0 0 0 0.792156863 0 0 0 1 0"/></filter><filter id="D" width="101.4%" height="102.4%" x="-.7%" y="-1.2%" filterUnits="objectBoundingBox"><feOffset dy="-3" in="SourceAlpha" result="shadowOffsetInner1"/><feComposite in="shadowOffsetInner1" in2="SourceAlpha" k2="-1" k3="1" operator="arithmetic" result="shadowInnerInner1"/><feColorMatrix in="shadowInnerInner1" values="0 0 0 0 0.79333673 0 0 0 0 0.79333673 0 0 0 0 0.79333673 0 0 0 1 0"/></filter></defs><g fill="none" fill-rule="evenodd"><path fill="url(#k)" d="M3 305v1H0v-1h3zm0-18v9H0v-9h3zm0-18v9H0v-9h3zm0-18v9H0v-9h3zm0-18v9H0v-9h3zm0-18v9H0v-9h3zm0-18v9H0v-9h3zm0-18v9H0v-9h3zm0-18v9H0v-9h3zm0-18v9H0v-9h3zm0-18v9H0v-9h3zm0-18v9H0v-9h3zm0-18v9H0v-9h3zm0-18v9H0v-9h3zm0-18v9H0v-9h3zm0-18v9H0v-9h3zm0-18v9H0v-9h3zM3 0v8H0V0h3z" transform="translate(108 229)"/><g fill="#FFF" stroke="#CFD9E9" stroke-width="6" transform="translate(0 14)"><use stroke-dasharray="10" mask="url(#l)" xlink:href="#a"/><use stroke-dasharray="9" mask="url(#m)" xlink:href="#b"/><use stroke-dasharray="9" mask="url(#n)" xlink:href="#c"/><g stroke-dasharray="9" transform="translate(0 76.522)"><use mask="url(#o)" xlink:href="#d"/><use mask="url(#p)" xlink:href="#e"/><use mask="url(#q)" xlink:href="#f"/><use mask="url(#r)" xlink:href="#g"/><use mask="url(#s)" xlink:href="#h"/><use mask="url(#t)" xlink:href="#i"/><use mask="url(#u)" xlink:href="#j"/></g></g><g transform="translate(164)"><circle cx="36" cy="36" r="36" fill="#71C700"/><path fill="#FFF" d="M23 33h26a3 3 0 110 6H23a3 3 0 110-6z"/><path fill="#FFF" d="M39 23v26a3 3 0 11-6 0V23a3 3 0 116 0z"/></g><g transform="translate(0 535)"><use fill="#EBECEB" xlink:href="#v"/><use fill="#000" filter="url(#w)" xlink:href="#v"/><use fill="#EBECEB" xlink:href="#x"/><use fill="#000" filter="url(#y)" xlink:href="#x"/><use fill="#EBECEB" xlink:href="#z"/><use fill="#000" filter="url(#A)" xlink:href="#z"/><path fill="url(#B)" d="M51.313 23.913h117.374c11.886 0 21.521 9.636 21.521 21.522s-9.635 21.522-21.521 21.522H51.313c-11.886 0-21.521-9.636-21.521-21.522s9.635-21.522 21.521-21.522z"/><g transform="translate(0 76.522)"><use fill="#EBECEB" xlink:href="#C"/><use fill="#000" filter="url(#D)" xlink:href="#C"/><path fill="#1070AD" d="M109.374 45.217c11.41 0 20.57-8.154 20.461-18.212-.109-10.059-9.264-18.213-20.449-18.213-11.184 0-20.345 8.154-20.461 18.213-.116 10.058 9.04 18.212 20.449 18.212zm-.018 52.754c11.736 0 21.162-8.154 21.053-18.213-.11-10.058-9.53-18.212-21.04-18.212-11.511 0-20.937 8.154-21.053 18.212-.116 10.059 9.304 18.213 21.04 18.213z"/><path fill="#71C700" d="M49.304 45.217c11.41 0 20.831-8.154 21.043-18.212.212-10.059-8.684-18.213-19.868-18.213s-20.605 8.154-21.043 18.213C29 37.063 37.894 45.217 49.304 45.217zm-1.702 52.754c11.737 0 21.422-8.154 21.634-18.213.212-10.058-8.948-18.212-20.459-18.212-11.51 0-21.196 8.154-21.634 18.212-.437 10.059 8.723 18.213 20.46 18.213zm121.842-52.754c11.41 0 20.31-8.154 19.88-18.212-.43-10.059-9.846-18.213-21.03-18.213-11.185 0-20.085 8.154-19.88 18.213.204 10.058 9.62 18.212 21.03 18.212zm1.666 52.754c11.736 0 20.901-8.154 20.471-18.213-.43-10.058-10.11-18.212-21.621-18.212s-20.677 8.154-20.472 18.212c.205 10.059 9.886 18.213 21.622 18.213z"/><path fill="url(#E)" d="M213.889 0l5.728 99.227c.8 13.874-10.25 25.12-24.683 25.12h-67.448L6.057.939 213.889 0z" opacity=".531" style="mix-blend-mode:darken"/></g></g><g fill-rule="nonzero"><path fill="url(#F)" d="M9.374 78S-32.114 17.263 59.472.124c3.822-.716 7.514 1.747 8.382 5.548C72.031 23.947 77.08 73.797 9.374 78z" transform="translate(97 455)"/><path fill="url(#G)" d="M67.841 6.765A7.294 7.294 0 0064.23 2C33.697 35.145 9 79 9 79c68.124-4.199 63.043-53.983 58.841-72.235z" transform="translate(97 455)"/><path fill="url(#H)" d="M51.186 30.003c-.727.213-1.45.425-2.182.599-.728.188-1.487.27-2.233.367a7.022 7.022 0 00-2.125.613 15.88 15.88 0 00-1.985 1.12l1.64-2.632 2.722-4.254c.902-1.426 1.882-2.783 2.806-4.196 1.893-2.785 3.878-5.479 6.058-8.046L55.355 13l-1.946 1.676-.978.845c-.318.29-.613.596-.921.893-1.195 1.215-2.46 2.397-3.591 3.668-2.346 2.493-4.552 5.09-6.778 7.68l-1.248 1.53a7.03 7.03 0 00-.165-1.636c-.168-.732-.354-1.475-.428-2.223-.092-.747-.142-1.5-.194-2.256-.053-.755-.118-1.52-.126-2.283-.09-1.54-.034-3.08-.02-4.668l-.423-.104a29.934 29.934 0 00-1.713 4.496c-.234.773-.412 1.56-.6 2.351a43.692 43.692 0 00-.4 2.401c-.112.807-.273 1.619-.396 2.439a6.454 6.454 0 00.267 2.915c.522 1.705.146 3.56-.951 4.965l-.02.026c-1.91 2.447-3.762 4.928-5.628 7.403a16.232 16.232 0 00-.21-2.212 7.041 7.041 0 00-.708-2.097c-.346-.667-.712-1.338-.97-2.045-.277-.7-.514-1.415-.753-2.135-.24-.718-.494-1.442-.694-2.179-.472-1.468-.802-2.974-1.187-4.514l-.435.004a29.862 29.862 0 00-.534 4.782c-.032.809-.01 1.614.007 2.428.057.806.113 1.618.214 2.424.093.809.14 1.634.226 2.46.103.82.341 1.61.74 2.334.18.319.375.633.586.94 1.032 1.493.916 3.5-.195 4.934-.954 1.232-1.911 2.462-2.856 3.7a65.651 65.651 0 00-3.366 4.852c-.028-.661-.1-1.295-.199-1.921a7.067 7.067 0 00-.707-2.097c-.347-.666-.713-1.34-.972-2.044-.276-.7-.512-1.417-.751-2.136-.242-.718-.495-1.441-.695-2.18-.47-1.467-.802-2.973-1.187-4.513l-.435.004a29.9 29.9 0 00-.534 4.782c-.032.808-.008 1.614.007 2.427.057.807.113 1.618.214 2.425.093.808.14 1.634.228 2.46.101.82.34 1.608.738 2.334.406.716.879 1.412 1.474 2.037.684.716.86 1.77.405 2.649-1.175 2.275-3.266 6.406-4.227 8.679-1.314 3.175-2.517 6.417-3.32 9.894l.668.406c2.714-2.3 5.084-4.802 7.341-7.369a120.82 120.82 0 006.368-7.943c.036-.048.07-.096.107-.144.645-.877 1.793-1.155 2.8-.743.744.304 1.507.49 2.266.613a6.469 6.469 0 002.444-.113c.804-.205 1.595-.445 2.385-.639a44.13 44.13 0 002.348-.638c.768-.267 1.533-.523 2.278-.833a29.883 29.883 0 004.3-2.156l-.147-.41c-1.577.172-3.104.382-4.643.447-.76.068-1.527.081-2.284.103-.758.024-1.51.05-2.263.034-.751 0-1.509-.11-2.254-.204a7.028 7.028 0 00-2.21.061c-.795.159-1.587.365-2.405.668a81.15 81.15 0 002.719-4.563c.673-1.247 1.6-2.917 2.42-4.382.87-1.558 2.641-2.429 4.388-2.067.854.177 1.728.227 2.517.357.818.123 1.64.074 2.445-.115.804-.205 1.594-.445 2.385-.637.79-.185 1.572-.413 2.347-.639.769-.267 1.533-.524 2.28-.834a29.833 29.833 0 004.3-2.156l-.148-.409c-1.578.171-3.105.382-4.644.448-.76.067-1.527.08-2.284.103-.757.024-1.51.05-2.263.033-.751 0-1.507-.11-2.253-.203a7.037 7.037 0 00-2.211.06c-1.4.28-2.791.693-4.338 1.58 1.74-2.88 3.457-5.78 5.24-8.63l.066-.113c1.046-1.759 2.964-2.872 5.005-2.751.577.035 1.147.014 1.708-.037a6.492 6.492 0 002.337-.722c.728-.4 1.433-.831 2.15-1.215.72-.377 1.42-.794 2.113-1.207.677-.45 1.354-.89 1.999-1.377A29.917 29.917 0 0058 28.094l-.245-.36c-1.483.562-2.909 1.148-4.383 1.597-.719.256-1.459.46-2.186.672z" transform="translate(97 455)"/><path fill="url(#I)" d="M6.026 50S-20.644 11.066 38.232.08c2.457-.46 4.83 1.12 5.389 3.556C46.306 15.35 49.55 47.306 6.026 50z" transform="rotate(-60 362.001 161.467)"/><path fill="url(#J)" d="M43.62 4.032A4.647 4.647 0 0041.31 1C21.79 22.092 6 50 6 50c43.555-2.672 40.306-34.353 37.62-45.968z" transform="rotate(-60 362.001 161.467)"/><path fill="url(#K)" d="M32.69 18.912c-.461.137-.918.273-1.381.385-.46.12-.941.173-1.413.235-.473.06-.916.192-1.344.393-.424.208-.84.436-1.256.719l1.037-1.689 1.722-2.73c.57-.915 1.191-1.786 1.775-2.692 1.198-1.788 2.454-3.517 3.833-5.165L35.327 8l-1.231 1.076-.62.542c-.2.186-.387.383-.582.573-.756.78-1.557 1.538-2.272 2.354-1.484 1.6-2.88 3.267-4.288 4.93l-.79.981c.001-.351-.023-.7-.104-1.05-.106-.47-.224-.946-.27-1.427-.059-.48-.09-.962-.123-1.447-.034-.485-.075-.976-.08-1.466-.056-.988-.021-1.976-.013-2.996l-.267-.066c-.433.924-.8 1.89-1.084 2.885-.148.497-.26 1.001-.38 1.51-.093.51-.187 1.023-.253 1.54-.07.518-.172 1.039-.25 1.565a4.214 4.214 0 00.169 1.871 3.558 3.558 0 01-.602 3.186l-.013.018c-1.208 1.57-2.38 3.162-3.56 4.75-.01-.493-.061-.959-.133-1.419a4.57 4.57 0 00-.448-1.346c-.22-.428-.45-.859-.614-1.312-.175-.45-.325-.909-.476-1.37-.152-.461-.313-.926-.439-1.399-.298-.942-.508-1.909-.751-2.897l-.275.003a19.462 19.462 0 00-.338 3.068c-.02.52-.006 1.036.004 1.559.036.517.072 1.038.136 1.555.059.52.089 1.05.143 1.58.065.526.216 1.032.468 1.497.114.205.237.406.37.603.653.959.58 2.246-.123 3.167-.603.79-1.209 1.58-1.806 2.375a41.648 41.648 0 00-2.13 3.114 11.088 11.088 0 00-.126-1.233 4.57 4.57 0 00-.448-1.346c-.219-.428-.45-.86-.614-1.312-.175-.45-.324-.91-.475-1.37-.153-.462-.313-.926-.44-1.4-.298-.941-.508-1.908-.751-2.896l-.275.002a19.488 19.488 0 00-.338 3.069c-.02.519-.005 1.036.004 1.558.036.518.072 1.039.136 1.556.059.519.089 1.049.144 1.579.064.526.215 1.032.467 1.498.257.46.556.906.933 1.307.432.46.543 1.136.256 1.7-.743 1.46-2.067 4.112-2.674 5.57-.832 2.038-1.593 4.119-2.101 6.35l.423.261c1.716-1.476 3.216-3.082 4.644-4.73a77.312 77.312 0 004.029-5.097l.067-.093c.408-.562 1.134-.74 1.772-.476.47.195.953.314 1.433.393.518.08 1.037.048 1.546-.073.51-.131 1.01-.285 1.51-.41.5-.118.994-.264 1.485-.41.486-.17.97-.335 1.441-.534a18.729 18.729 0 002.72-1.383l-.092-.263c-.998.11-1.964.245-2.938.286-.481.044-.966.052-1.445.067-.48.015-.955.031-1.431.021-.476 0-.955-.07-1.427-.13a4.342 4.342 0 00-1.398.039 9.72 9.72 0 00-1.521.428 52.773 52.773 0 001.72-2.928c.425-.8 1.012-1.873 1.53-2.812.551-1 1.672-1.56 2.777-1.327.54.114 1.094.146 1.592.229.518.08 1.038.047 1.547-.074.509-.131 1.009-.286 1.51-.409.5-.119.994-.265 1.484-.41.486-.171.97-.336 1.442-.535a18.78 18.78 0 002.72-1.383l-.093-.263c-.998.11-1.964.245-2.938.287-.48.043-.966.052-1.445.066-.479.016-.955.032-1.431.022-.476 0-.954-.07-1.426-.131a4.407 4.407 0 00-1.399.039c-.885.18-1.766.444-2.744 1.014 1.1-1.848 2.187-3.71 3.315-5.539l.042-.073c.661-1.128 1.875-1.843 3.166-1.765.365.022.726.009 1.08-.024a4.078 4.078 0 001.48-.463c.46-.257.906-.534 1.36-.78.455-.242.897-.51 1.336-.774.429-.289.857-.572 1.265-.884A19.19 19.19 0 0037 17.688l-.155-.232c-.938.36-1.84.737-2.773 1.025-.455.165-.923.295-1.383.431z" transform="rotate(-60 362.001 161.467)"/><path fill="url(#L)" d="M4.726 38.127S-15.224 8.833 28.816.567c1.837-.346 3.612.842 4.03 2.675 2.008 8.815 4.437 32.858-28.12 34.885z" transform="matrix(0 -1 -1 0 185 324)"/><path fill="url(#M)" d="M32.794 3.728a3.497 3.497 0 00-1.72-2.287C16.54 17.35 4.782 38.4 4.782 38.4c32.431-2.016 30.013-25.912 28.012-34.673z" transform="matrix(0 -1 -1 0 185 324)"/><path fill="url(#N)" d="M24.42 14.96c-.344.103-.684.206-1.03.29-.343.09-.7.13-1.052.176a3.27 3.27 0 00-1.002.296 7.77 7.77 0 00-.936.54l.773-1.27 1.284-2.053c.425-.688.887-1.343 1.322-2.025a45.562 45.562 0 012.856-3.884l-.25-.277-.918.81-.46.407c-.15.14-.29.288-.435.431-.563.586-1.16 1.157-1.693 1.77-1.106 1.204-2.146 2.458-3.195 3.708l-.588.738c0-.264-.018-.527-.078-.79-.08-.353-.167-.711-.202-1.073-.044-.36-.067-.723-.092-1.088-.025-.365-.055-.734-.059-1.102-.042-.744-.016-1.487-.01-2.254l-.199-.05a14.677 14.677 0 00-.807 2.17c-.11.374-.195.753-.283 1.135-.07.384-.14.77-.189 1.16-.053.388-.129.78-.186 1.176a3.188 3.188 0 00.126 1.408 2.7 2.7 0 01-.449 2.396l-.01.013c-.9 1.18-1.773 2.378-2.652 3.573a7.96 7.96 0 00-.1-1.068 3.488 3.488 0 00-.333-1.012c-.164-.322-.336-.646-.458-.987-.13-.338-.242-.683-.355-1.03-.113-.347-.232-.697-.327-1.052-.222-.709-.378-1.436-.56-2.18l-.204.003c-.143.755-.23 1.529-.252 2.308-.015.39-.005.779.003 1.172.027.389.053.78.1 1.17.045.39.067.789.108 1.187.048.396.16.777.349 1.127.085.153.176.305.276.453.486.721.431 1.69-.092 2.382-.45.595-.901 1.189-1.346 1.786a31.882 31.882 0 00-1.588 2.342 8.36 8.36 0 00-.093-.927c-.06-.355-.17-.69-.334-1.013-.163-.321-.336-.646-.458-.986-.13-.338-.241-.684-.354-1.031-.114-.347-.233-.696-.327-1.052-.222-.709-.379-1.435-.56-2.179l-.205.002a14.79 14.79 0 00-.252 2.308c-.015.39-.004.78.003 1.172.027.39.054.781.101 1.17.044.39.067.79.108 1.188.047.396.16.776.348 1.126.191.346.414.682.695.984.322.345.405.854.19 1.278-.553 1.098-1.54 3.092-1.992 4.19-.62 1.532-1.187 3.097-1.565 4.775l.315.196c1.279-1.11 2.396-2.318 3.46-3.557a57.925 57.925 0 003.002-3.834l.05-.07a1.09 1.09 0 011.321-.358c.35.147.71.236 1.068.296.386.06.773.036 1.152-.055.38-.098.752-.215 1.124-.308.374-.09.742-.199 1.107-.308.363-.129.723-.252 1.075-.402a13.97 13.97 0 002.026-1.04l-.069-.198c-.743.082-1.463.184-2.189.215-.358.033-.72.04-1.077.05-.357.012-.711.024-1.066.016-.354 0-.711-.053-1.063-.098a3.196 3.196 0 00-1.042.03 7.133 7.133 0 00-1.134.322c.451-.72.878-1.454 1.282-2.203.317-.602.755-1.408 1.141-2.115.41-.752 1.245-1.172 2.069-.997.403.085.815.109 1.186.172.386.06.774.035 1.153-.056.379-.099.752-.215 1.124-.307.373-.09.742-.2 1.107-.309.362-.129.723-.252 1.075-.402a14.186 14.186 0 002.027-1.04l-.07-.198c-.744.082-1.464.184-2.189.216-.359.032-.72.039-1.077.05-.357.011-.712.023-1.067.016-.354 0-.71-.053-1.062-.099a3.252 3.252 0 00-1.042.03c-.66.135-1.316.334-2.045.763.82-1.39 1.63-2.79 2.47-4.167l.031-.054c.493-.849 1.397-1.386 2.36-1.328.272.017.54.007.805-.018a3.01 3.01 0 001.102-.348c.342-.193.675-.402 1.013-.587.34-.182.67-.383.996-.582.32-.217.638-.43.942-.665a14.266 14.266 0 001.709-1.527l-.116-.174c-.7.271-1.371.554-2.066.77-.34.125-.688.223-1.03.325z" transform="matrix(0 -1 -1 0 185 324)"/></g></g></svg>