<svg width="42" height="66" xmlns="http://www.w3.org/2000/svg"><path d="M41.818 25.972l-4.356-9.505 4.356-9.506a1.978 1.978 0 00-.14-1.91 2.012 2.012 0 00-1.696-.918H19.725a.97.97 0 00-.975.967v3.167H7.157V5.908a3.04 3.04 0 002.084-2.875C9.24 1.361 7.869 0 6.183 0 4.497 0 3.125 1.36 3.125 3.033a3.04 3.04 0 002.083 2.875v54.025h-2.15C1.372 59.933 0 61.294 0 62.967v2.066A.97.97 0 00.975 66H11.39a.97.97 0 00.975-.967v-2.066c0-1.673-1.372-3.034-3.058-3.034h-2.15v-27h17.775a2.01 2.01 0 002.017-2V28.8h13.033c.688 0 1.322-.343 1.695-.917a1.979 1.979 0 00.14-1.91zM5.074 3.033c0-.606.498-1.1 1.109-1.1s1.109.494 1.109 1.1c0 .607-.498 1.1-1.109 1.1a1.106 1.106 0 01-1.109-1.1zm4.234 58.834c.611 0 1.109.493 1.109 1.1v1.1H1.949v-1.1c0-.607.498-1.1 1.109-1.1h6.25zM20.7 6.907l2.056 1.36H20.7v-1.36zM25 30.933c0 .037-.03.067-.067.067H11.324V15.434a.97.97 0 00-.974-.967.97.97 0 00-.975.967V31H7.158V10.2h2.217v1.1a.97.97 0 00.975.967.97.97 0 00.974-.967v-1.1H25v20.733zm15.04-4.097c-.02.03-.044.03-.057.03H26.95V9.234a.964.964 0 00-.434-.804l-3.572-2.362h17.039a.06.06 0 01.056.03c.02.031.01.052.005.064l-4.54 9.906a.96.96 0 000 .8l4.54 9.906a.059.059 0 01-.005.063z" fill="#C8CBD0"/></svg>