<svg xmlns="http://www.w3.org/2000/svg" width="125" height="125"><g fill="#C8CBD0"><path d="M110.17 73.049V10.593c0-1.171-.95-2.118-2.12-2.118H97.459V2.119A2.12 2.12 0 0095.339 0h-14.83c-1.17 0-2.12.947-2.12 2.119v6.356H31.78V2.119A2.117 2.117 0 0029.662 0h-14.83c-1.17 0-2.12.947-2.12 2.119v6.356H2.12C.949 8.475 0 9.422 0 10.593v108.051c0 1.172.95 2.119 2.119 2.119h80.728c4.242 2.67 9.242 4.237 14.61 4.237C112.645 125 125 112.644 125 97.458c0-10.6-6.03-19.808-14.83-24.41zM82.626 4.237H93.22V16.95H82.627V4.237zm-65.678 0h10.593V16.95H16.95V4.237zM4.237 12.712h8.475v6.356c0 1.171.949 2.118 2.119 2.118h14.83c1.17 0 2.119-.947 2.119-2.118v-6.356h46.61v6.356c0 1.171.949 2.118 2.118 2.118H95.34c1.17 0 2.119-.947 2.119-2.118v-6.356h8.474V29.66H4.237V12.71zm0 103.813V33.898h101.695v37.365c-.415-.134-.839-.242-1.263-.358a28.35 28.35 0 00-1.18-.305 30 30 0 00-1.082-.217 27.622 27.622 0 00-1.557-.239c-.29-.036-.579-.076-.871-.104a28.491 28.491 0 00-2.521-.125c-.716 0-1.418.053-2.119.108V44.492H14.831v61.44h56.432c.061.187.137.367.201.551.178.515.354 1.032.564 1.534.116.282.254.55.38.826.245.538.492 1.074.77 1.596.123.226.26.444.39.67.313.548.631 1.09.983 1.616.13.192.271.375.405.565.372.53.754 1.055 1.167 1.56.152.186.318.36.474.542.329.381.642.771.992 1.136H4.237v-.003zM85.41 72.73c-.229.11-.462.214-.687.33-.398.208-.783.437-1.169.663a29.04 29.04 0 00-1.002.609 28.354 28.354 0 00-2.055 1.47c-.284.222-.568.443-.841.678-.371.313-.725.646-1.079.979-.243.23-.495.453-.73.69-.384.39-.746.803-1.107 1.216-.152.176-.32.337-.47.517V67.797H91.1v2.885c-.035.009-.07.021-.103.03a27.35 27.35 0 00-5.587 2.017zM71.123 89.405c-.074.243-.123.493-.19.74-.17.613-.344 1.228-.471 1.861-.1.49-.155.99-.227 1.486-.057.4-.138.794-.18 1.2-.091.914-.14 1.838-.14 2.766 0 .764.043 1.538.113 2.313.012.142.012.286.027.428.034.343.102.676.148 1.015v.002c.024.161.032.32.058.479H57.203v-14.83h14.83v.014c-.02.051-.033.104-.054.155a27.42 27.42 0 00-.856 2.37zm-52.055-2.54h14.83v14.83h-14.83v-14.83zm0-19.068h14.83v14.83h-14.83v-14.83zm72.034-4.238h-14.83V48.73h14.83v14.83zm-19.068 0h-14.83V48.73h14.83v14.83zm0 19.068h-14.83v-14.83h14.83v14.83zm-33.898-14.83h14.83v14.83h-14.83v-14.83zm14.83-4.238h-14.83V48.73h14.83v14.83zm-19.068 0h-14.83V48.73h14.83v14.83zm4.238 23.305h14.83v14.83h-14.83v-14.83zm59.322 33.899a23.162 23.162 0 01-12.939-3.937 23.435 23.435 0 01-2.06-1.56c-.228-.194-.444-.402-.665-.605-.417-.38-.822-.77-1.207-1.174-.248-.26-.487-.525-.723-.794-.347-.4-.673-.814-.991-1.235-.204-.27-.413-.53-.606-.808a23.717 23.717 0 01-1.303-2.103c-.091-.17-.163-.348-.25-.52-.31-.605-.597-1.22-.854-1.851-.11-.276-.205-.557-.307-.837-.2-.555-.381-1.119-.54-1.689-.036-.13-.068-.262-.102-.394a24.254 24.254 0 01-.54-2.78c-.009-.065-.021-.13-.03-.198a22.041 22.041 0 01-.066-5.21c.007-.066.024-.13.03-.195.08-.723.187-1.443.335-2.153.015-.067.038-.133.053-.2.152-.704.332-1.403.55-2.094.026-.08.062-.16.088-.24a23.097 23.097 0 011.597-3.741l.21-.362c.084-.153.184-.297.273-.447a24.65 24.65 0 011.18-1.803c.104-.144.212-.286.32-.428.381-.505.784-.99 1.203-1.458.147-.163.293-.328.443-.487.415-.44.852-.858 1.299-1.263.159-.144.313-.292.477-.432.525-.45 1.07-.87 1.631-1.271.089-.064.174-.134.263-.197a23.163 23.163 0 019.347-3.793l.045-.006c1.25-.21 2.527-.345 3.839-.345.824 0 1.644.044 2.457.133.127.013.25.042.377.057.695.087 1.388.19 2.072.34.085.018.166.044.248.063.73.167 1.452.362 2.166.601l.144.053c.73.25 1.45.536 2.165.86 8.055 3.674 13.676 11.784 13.676 21.198 0 12.85-10.456 23.305-23.305 23.305z"/><path d="M110.857 95.857h-10.714V85.143a2.142 2.142 0 10-4.286 0v10.714H85.143a2.142 2.142 0 100 4.286h10.714v10.714a2.142 2.142 0 104.286 0v-10.714h10.714a2.142 2.142 0 100-4.286z"/></g></svg>